<?xml version="1.0" encoding="utf-8" standalone="no"?>
<!DOCTYPE svg PUBLIC "-//W3C//DTD SVG 1.1//EN"
  "http://www.w3.org/Graphics/SVG/1.1/DTD/svg11.dtd">
<svg xmlns:xlink="http://www.w3.org/1999/xlink" width="1313.28pt" height="663.84pt" viewBox="0 0 1313.28 663.84" xmlns="http://www.w3.org/2000/svg" version="1.1">
 <metadata>
  <rdf:RDF xmlns:dc="http://purl.org/dc/elements/1.1/" xmlns:cc="http://creativecommons.org/ns#" xmlns:rdf="http://www.w3.org/1999/02/22-rdf-syntax-ns#">
   <cc:Work>
    <dc:type rdf:resource="http://purl.org/dc/dcmitype/StillImage"/>
    <dc:date>2023-03-02T11:07:48.771411</dc:date>
    <dc:format>image/svg+xml</dc:format>
    <dc:creator>
     <cc:Agent>
      <dc:title>Matplotlib v3.7.0, https://matplotlib.org/</dc:title>
     </cc:Agent>
    </dc:creator>
   </cc:Work>
  </rdf:RDF>
 </metadata>
 <defs>
  <style type="text/css">*{stroke-linejoin: round; stroke-linecap: butt}</style>
 </defs>
 <g id="figure_1">
  <g id="patch_1">
   <path d="M 0 663.84 
L 1313.28 663.84 
L 1313.28 0 
L 0 0 
z
" style="fill: #ffffff"/>
  </g>
  <g id="axes_1">
   <g id="patch_2">
    <path d="M 527.822162 588.888 
L 785.457838 588.888 
L 785.457838 43.152 
L 527.822162 43.152 
z
" style="fill: #ffffff"/>
   </g>
   <g id="matplotlib.axis_1">
    <g id="xtick_1">
     <g id="line2d_1">
      <path d="M 547.802219 588.888 
L 547.802219 43.152 
" clip-path="url(#p916a63c349)" style="fill: none; stroke: #cccccc; stroke-linecap: round"/>
     </g>
     <g id="text_1">
      <!-- −30 -->
      <g style="fill: #262626" transform="translate(528.069336 612.597078) scale(0.187 -0.187)">
       <defs>
        <path id="DejaVuSerif-2212" d="M 678 2259 
L 4684 2259 
L 4684 1753 
L 678 1753 
L 678 2259 
z
" transform="scale(0.015625)"/>
        <path id="DejaVuSerif-33" d="M 622 4469 
Q 988 4606 1323 4678 
Q 1659 4750 1953 4750 
Q 2638 4750 3022 4454 
Q 3406 4159 3406 3634 
Q 3406 3213 3140 2930 
Q 2875 2647 2388 2547 
Q 2963 2466 3280 2130 
Q 3597 1794 3597 1259 
Q 3597 606 3158 257 
Q 2719 -91 1894 -91 
Q 1528 -91 1179 -12 
Q 831 66 488 225 
L 488 1131 
L 838 1131 
Q 869 681 1141 450 
Q 1413 219 1906 219 
Q 2384 219 2661 495 
Q 2938 772 2938 1253 
Q 2938 1803 2653 2086 
Q 2369 2369 1819 2369 
L 1522 2369 
L 1522 2688 
L 1678 2688 
Q 2225 2688 2498 2914 
Q 2772 3141 2772 3597 
Q 2772 4006 2547 4223 
Q 2322 4441 1900 4441 
Q 1478 4441 1245 4241 
Q 1013 4041 972 3647 
L 622 3647 
L 622 4469 
z
" transform="scale(0.015625)"/>
        <path id="DejaVuSerif-30" d="M 2034 219 
Q 2513 219 2750 744 
Q 2988 1269 2988 2328 
Q 2988 3391 2750 3916 
Q 2513 4441 2034 4441 
Q 1556 4441 1318 3916 
Q 1081 3391 1081 2328 
Q 1081 1269 1318 744 
Q 1556 219 2034 219 
z
M 2034 -91 
Q 1275 -91 848 546 
Q 422 1184 422 2328 
Q 422 3475 848 4112 
Q 1275 4750 2034 4750 
Q 2797 4750 3222 4112 
Q 3647 3475 3647 2328 
Q 3647 1184 3222 546 
Q 2797 -91 2034 -91 
z
" transform="scale(0.015625)"/>
       </defs>
       <use xlink:href="#DejaVuSerif-2212"/>
       <use xlink:href="#DejaVuSerif-33" x="83.789062"/>
       <use xlink:href="#DejaVuSerif-30" x="147.412109"/>
      </g>
     </g>
    </g>
    <g id="xtick_2">
     <g id="line2d_2">
      <path d="M 612.338019 588.888 
L 612.338019 43.152 
" clip-path="url(#p916a63c349)" style="fill: none; stroke: #cccccc; stroke-linecap: round"/>
     </g>
     <g id="text_2">
      <!-- −20 -->
      <g style="fill: #262626" transform="translate(592.605136 612.597078) scale(0.187 -0.187)">
       <defs>
        <path id="DejaVuSerif-32" d="M 819 3553 
L 469 3553 
L 469 4384 
Q 803 4563 1142 4656 
Q 1481 4750 1806 4750 
Q 2534 4750 2956 4397 
Q 3378 4044 3378 3438 
Q 3378 2753 2422 1800 
Q 2347 1728 2309 1691 
L 1131 513 
L 3078 513 
L 3078 1088 
L 3444 1088 
L 3444 0 
L 434 0 
L 434 341 
L 1850 1753 
Q 2319 2222 2519 2614 
Q 2719 3006 2719 3438 
Q 2719 3909 2473 4175 
Q 2228 4441 1797 4441 
Q 1350 4441 1106 4219 
Q 863 3997 819 3553 
z
" transform="scale(0.015625)"/>
       </defs>
       <use xlink:href="#DejaVuSerif-2212"/>
       <use xlink:href="#DejaVuSerif-32" x="83.789062"/>
       <use xlink:href="#DejaVuSerif-30" x="147.412109"/>
      </g>
     </g>
    </g>
    <g id="xtick_3">
     <g id="line2d_3">
      <path d="M 676.873819 588.888 
L 676.873819 43.152 
" clip-path="url(#p916a63c349)" style="fill: none; stroke: #cccccc; stroke-linecap: round"/>
     </g>
     <g id="text_3">
      <!-- −10 -->
      <g style="fill: #262626" transform="translate(657.140937 612.597078) scale(0.187 -0.187)">
       <defs>
        <path id="DejaVuSerif-31" d="M 909 0 
L 909 331 
L 1722 331 
L 1722 4213 
L 781 3603 
L 781 4013 
L 1919 4750 
L 2350 4750 
L 2350 331 
L 3163 331 
L 3163 0 
L 909 0 
z
" transform="scale(0.015625)"/>
       </defs>
       <use xlink:href="#DejaVuSerif-2212"/>
       <use xlink:href="#DejaVuSerif-31" x="83.789062"/>
       <use xlink:href="#DejaVuSerif-30" x="147.412109"/>
      </g>
     </g>
    </g>
    <g id="xtick_4">
     <g id="line2d_4">
      <path d="M 741.40962 588.888 
L 741.40962 43.152 
" clip-path="url(#p916a63c349)" style="fill: none; stroke: #cccccc; stroke-linecap: round"/>
     </g>
     <g id="text_4">
      <!-- 0 -->
      <g style="fill: #262626" transform="translate(735.460682 612.597078) scale(0.187 -0.187)">
       <use xlink:href="#DejaVuSerif-30"/>
      </g>
     </g>
    </g>
    <g id="text_5">
     <!-- $x$ (m) -->
     <g style="fill: #262626" transform="translate(629.712 635.986906) scale(0.204 -0.204)">
      <defs>
       <path id="DejaVuSans-Oblique-78" d="M 3841 3500 
L 2234 1784 
L 3219 0 
L 2559 0 
L 1819 1388 
L 531 0 
L -166 0 
L 1556 1844 
L 641 3500 
L 1300 3500 
L 1972 2234 
L 3144 3500 
L 3841 3500 
z
" transform="scale(0.015625)"/>
       <path id="DejaVuSerif-20" transform="scale(0.015625)"/>
       <path id="DejaVuSerif-28" d="M 2041 -997 
Q 1281 -656 893 83 
Q 506 822 506 1931 
Q 506 3044 893 3783 
Q 1281 4522 2041 4863 
L 2041 4556 
Q 1559 4225 1350 3623 
Q 1141 3022 1141 1931 
Q 1141 844 1350 242 
Q 1559 -359 2041 -691 
L 2041 -997 
z
" transform="scale(0.015625)"/>
       <path id="DejaVuSerif-6d" d="M 3316 2675 
Q 3481 3041 3739 3227 
Q 3997 3413 4341 3413 
Q 4863 3413 5119 3089 
Q 5375 2766 5375 2113 
L 5375 331 
L 5894 331 
L 5894 0 
L 4300 0 
L 4300 331 
L 4800 331 
L 4800 2047 
Q 4800 2556 4650 2772 
Q 4500 2988 4153 2988 
Q 3769 2988 3567 2697 
Q 3366 2406 3366 1850 
L 3366 331 
L 3866 331 
L 3866 0 
L 2291 0 
L 2291 331 
L 2791 331 
L 2791 2069 
Q 2791 2566 2641 2777 
Q 2491 2988 2144 2988 
Q 1759 2988 1557 2697 
Q 1356 2406 1356 1850 
L 1356 331 
L 1856 331 
L 1856 0 
L 263 0 
L 263 331 
L 781 331 
L 781 2994 
L 231 2994 
L 231 3322 
L 1356 3322 
L 1356 2731 
Q 1516 3063 1762 3238 
Q 2009 3413 2322 3413 
Q 2709 3413 2968 3220 
Q 3228 3028 3316 2675 
z
" transform="scale(0.015625)"/>
       <path id="DejaVuSerif-29" d="M 453 -997 
L 453 -691 
Q 934 -359 1145 242 
Q 1356 844 1356 1931 
Q 1356 3022 1145 3623 
Q 934 4225 453 4556 
L 453 4863 
Q 1216 4522 1603 3783 
Q 1991 3044 1991 1931 
Q 1991 822 1603 83 
Q 1216 -656 453 -997 
z
" transform="scale(0.015625)"/>
      </defs>
      <use xlink:href="#DejaVuSans-Oblique-78" transform="translate(0 0.015625)"/>
      <use xlink:href="#DejaVuSerif-20" transform="translate(59.179688 0.015625)"/>
      <use xlink:href="#DejaVuSerif-28" transform="translate(90.966797 0.015625)"/>
      <use xlink:href="#DejaVuSerif-6d" transform="translate(129.980469 0.015625)"/>
      <use xlink:href="#DejaVuSerif-29" transform="translate(224.804688 0.015625)"/>
     </g>
    </g>
   </g>
   <g id="matplotlib.axis_2">
    <g id="ytick_1">
     <g id="line2d_5">
      <path d="M 527.822162 577.309445 
L 785.457838 577.309445 
" clip-path="url(#p916a63c349)" style="fill: none; stroke: #cccccc; stroke-linecap: round"/>
     </g>
     <g id="text_6">
      <!-- −20 -->
      <g style="fill: #262626" transform="translate(478.856396 584.413984) scale(0.187 -0.187)">
       <use xlink:href="#DejaVuSerif-2212"/>
       <use xlink:href="#DejaVuSerif-32" x="83.789062"/>
       <use xlink:href="#DejaVuSerif-30" x="147.412109"/>
      </g>
     </g>
    </g>
    <g id="ytick_2">
     <g id="line2d_6">
      <path d="M 527.822162 512.773645 
L 785.457838 512.773645 
" clip-path="url(#p916a63c349)" style="fill: none; stroke: #cccccc; stroke-linecap: round"/>
     </g>
     <g id="text_7">
      <!-- −10 -->
      <g style="fill: #262626" transform="translate(478.856396 519.878184) scale(0.187 -0.187)">
       <use xlink:href="#DejaVuSerif-2212"/>
       <use xlink:href="#DejaVuSerif-31" x="83.789062"/>
       <use xlink:href="#DejaVuSerif-30" x="147.412109"/>
      </g>
     </g>
    </g>
    <g id="ytick_3">
     <g id="line2d_7">
      <path d="M 527.822162 448.237845 
L 785.457838 448.237845 
" clip-path="url(#p916a63c349)" style="fill: none; stroke: #cccccc; stroke-linecap: round"/>
     </g>
     <g id="text_8">
      <!-- 0 -->
      <g style="fill: #262626" transform="translate(506.424287 455.342384) scale(0.187 -0.187)">
       <use xlink:href="#DejaVuSerif-30"/>
      </g>
     </g>
    </g>
    <g id="ytick_4">
     <g id="line2d_8">
      <path d="M 527.822162 383.702044 
L 785.457838 383.702044 
" clip-path="url(#p916a63c349)" style="fill: none; stroke: #cccccc; stroke-linecap: round"/>
     </g>
     <g id="text_9">
      <!-- 10 -->
      <g style="fill: #262626" transform="translate(494.526412 390.806583) scale(0.187 -0.187)">
       <use xlink:href="#DejaVuSerif-31"/>
       <use xlink:href="#DejaVuSerif-30" x="63.623047"/>
      </g>
     </g>
    </g>
    <g id="ytick_5">
     <g id="line2d_9">
      <path d="M 527.822162 319.166244 
L 785.457838 319.166244 
" clip-path="url(#p916a63c349)" style="fill: none; stroke: #cccccc; stroke-linecap: round"/>
     </g>
     <g id="text_10">
      <!-- 20 -->
      <g style="fill: #262626" transform="translate(494.526412 326.270783) scale(0.187 -0.187)">
       <use xlink:href="#DejaVuSerif-32"/>
       <use xlink:href="#DejaVuSerif-30" x="63.623047"/>
      </g>
     </g>
    </g>
    <g id="ytick_6">
     <g id="line2d_10">
      <path d="M 527.822162 254.630444 
L 785.457838 254.630444 
" clip-path="url(#p916a63c349)" style="fill: none; stroke: #cccccc; stroke-linecap: round"/>
     </g>
     <g id="text_11">
      <!-- 30 -->
      <g style="fill: #262626" transform="translate(494.526412 261.734983) scale(0.187 -0.187)">
       <use xlink:href="#DejaVuSerif-33"/>
       <use xlink:href="#DejaVuSerif-30" x="63.623047"/>
      </g>
     </g>
    </g>
    <g id="ytick_7">
     <g id="line2d_11">
      <path d="M 527.822162 190.094644 
L 785.457838 190.094644 
" clip-path="url(#p916a63c349)" style="fill: none; stroke: #cccccc; stroke-linecap: round"/>
     </g>
     <g id="text_12">
      <!-- 40 -->
      <g style="fill: #262626" transform="translate(494.526412 197.199183) scale(0.187 -0.187)">
       <defs>
        <path id="DejaVuSerif-34" d="M 2234 1581 
L 2234 4063 
L 641 1581 
L 2234 1581 
z
M 3609 0 
L 1484 0 
L 1484 331 
L 2234 331 
L 2234 1247 
L 197 1247 
L 197 1588 
L 2241 4750 
L 2859 4750 
L 2859 1581 
L 3750 1581 
L 3750 1247 
L 2859 1247 
L 2859 331 
L 3609 331 
L 3609 0 
z
" transform="scale(0.015625)"/>
       </defs>
       <use xlink:href="#DejaVuSerif-34"/>
       <use xlink:href="#DejaVuSerif-30" x="63.623047"/>
      </g>
     </g>
    </g>
    <g id="ytick_8">
     <g id="line2d_12">
      <path d="M 527.822162 125.558843 
L 785.457838 125.558843 
" clip-path="url(#p916a63c349)" style="fill: none; stroke: #cccccc; stroke-linecap: round"/>
     </g>
     <g id="text_13">
      <!-- 50 -->
      <g style="fill: #262626" transform="translate(494.526412 132.663382) scale(0.187 -0.187)">
       <defs>
        <path id="DejaVuSerif-35" d="M 3219 4666 
L 3219 4153 
L 1081 4153 
L 1081 2816 
Q 1244 2928 1461 2984 
Q 1678 3041 1947 3041 
Q 2703 3041 3140 2622 
Q 3578 2203 3578 1478 
Q 3578 738 3136 323 
Q 2694 -91 1894 -91 
Q 1572 -91 1234 -12 
Q 897 66 544 225 
L 544 1131 
L 897 1131 
Q 925 688 1179 453 
Q 1434 219 1894 219 
Q 2388 219 2653 544 
Q 2919 869 2919 1478 
Q 2919 2084 2655 2407 
Q 2391 2731 1894 2731 
Q 1613 2731 1398 2631 
Q 1184 2531 1019 2322 
L 750 2322 
L 750 4666 
L 3219 4666 
z
" transform="scale(0.015625)"/>
       </defs>
       <use xlink:href="#DejaVuSerif-35"/>
       <use xlink:href="#DejaVuSerif-30" x="63.623047"/>
      </g>
     </g>
    </g>
    <g id="ytick_9">
     <g id="line2d_13">
      <path d="M 527.822162 61.023043 
L 785.457838 61.023043 
" clip-path="url(#p916a63c349)" style="fill: none; stroke: #cccccc; stroke-linecap: round"/>
     </g>
     <g id="text_14">
      <!-- 60 -->
      <g style="fill: #262626" transform="translate(494.526412 68.127582) scale(0.187 -0.187)">
       <defs>
        <path id="DejaVuSerif-36" d="M 2094 219 
Q 2534 219 2771 542 
Q 3009 866 3009 1472 
Q 3009 2078 2771 2401 
Q 2534 2725 2094 2725 
Q 1647 2725 1412 2412 
Q 1178 2100 1178 1509 
Q 1178 888 1415 553 
Q 1653 219 2094 219 
z
M 1075 2569 
Q 1288 2803 1556 2918 
Q 1825 3034 2163 3034 
Q 2859 3034 3264 2615 
Q 3669 2197 3669 1472 
Q 3669 763 3233 336 
Q 2797 -91 2069 -91 
Q 1278 -91 853 498 
Q 428 1088 428 2181 
Q 428 3406 931 4078 
Q 1434 4750 2350 4750 
Q 2597 4750 2869 4703 
Q 3141 4656 3425 4563 
L 3425 3794 
L 3072 3794 
Q 3034 4109 2831 4275 
Q 2628 4441 2284 4441 
Q 1678 4441 1381 3981 
Q 1084 3522 1075 2569 
z
" transform="scale(0.015625)"/>
       </defs>
       <use xlink:href="#DejaVuSerif-36"/>
       <use xlink:href="#DejaVuSerif-30" x="63.623047"/>
      </g>
     </g>
    </g>
    <g id="text_15">
     <!-- $y$ (m) -->
     <g style="fill: #262626" transform="translate(470.572396 342.948) rotate(-90) scale(0.204 -0.204)">
      <defs>
       <path id="DejaVuSans-Oblique-79" d="M 1588 -325 
Q 1188 -997 936 -1164 
Q 684 -1331 294 -1331 
L -159 -1331 
L -63 -850 
L 269 -850 
Q 509 -850 678 -719 
Q 847 -588 1056 -206 
L 1234 128 
L 459 3500 
L 1069 3500 
L 1650 819 
L 3256 3500 
L 3859 3500 
L 1588 -325 
z
" transform="scale(0.015625)"/>
      </defs>
      <use xlink:href="#DejaVuSans-Oblique-79" transform="translate(0 0.015625)"/>
      <use xlink:href="#DejaVuSerif-20" transform="translate(59.179688 0.015625)"/>
      <use xlink:href="#DejaVuSerif-28" transform="translate(90.966797 0.015625)"/>
      <use xlink:href="#DejaVuSerif-6d" transform="translate(129.980469 0.015625)"/>
      <use xlink:href="#DejaVuSerif-29" transform="translate(224.804688 0.015625)"/>
     </g>
    </g>
   </g>
   <g id="line2d_14">
    <path d="M 753.219737 461.749475 
L 753.223757 461.749014 
L 753.18688 461.830292 
L 753.011185 462.353294 
L 752.550221 466.456065 
L 752.289223 468.30748 
L 751.512698 474.923779 
L 751.236873 476.716366 
L 750.363912 483.377674 
L 750.253524 485.249545 
L 750.060985 485.958095 
L 750.060316 486.549952 
L 749.852772 487.191947 
L 749.973116 487.781944 
L 749.743296 489.013718 
L 749.324589 489.644872 
L 749.481606 490.158048 
L 749.074247 491.30286 
L 748.194645 492.884774 
L 747.088332 494.371685 
L 746.28439 494.913207 
L 746.296489 495.259751 
L 744.891918 496.497104 
L 741.395333 498.347701 
L 741.281137 498.490443 
L 735.439573 500.315859 
L 732.330423 501.106601 
L 721.7888 503.241687 
L 719.159854 503.930541 
L 716.356777 504.532321 
L 716.838007 504.51251 
L 711.190726 506.029115 
L 712.2375 505.865386 
L 711.092936 506.227897 
L 703.328793 508.621433 
L 700.668043 509.337401 
L 697.160431 510.1999 
L 693.602597 511.078131 
L 688.521378 511.948799 
L 682.346878 512.509182 
L 682.310701 512.463175 
L 683.639884 512.145414 
L 677.228576 513.411201 
L 677.375266 513.323076 
L 672.207354 514.134972 
L 672.809949 513.973472 
L 661.826667 516.240658 
L 661.978611 516.221105 
L 661.300899 516.378924 
L 658.19161 517.205031 
L 658.175343 517.293471 
L 657.988066 517.415816 
L 652.075212 519.237735 
L 650.131539 519.598146 
L 648.184294 519.726249 
L 646.248984 519.680955 
L 644.428897 519.242612 
L 643.820668 518.997561 
L 642.622709 518.121519 
L 640.632359 516.918548 
L 639.367868 515.371284 
L 638.247873 513.158831 
L 637.358385 511.199544 
L 636.716997 509.444136 
L 635.899923 505.436272 
L 635.205323 502.011519 
L 634.556748 499.357088 
L 633.823159 495.871845 
L 633.022105 492.387575 
L 631.689704 483.522373 
L 630.385739 473.604628 
L 628.630421 464.62551 
L 625.532262 451.335033 
L 625.13533 449.453586 
L 624.088517 444.405407 
L 623.725282 442.512461 
L 623.259609 440.108191 
L 621.179851 426.713654 
L 619.590366 417.691019 
L 616.463617 401.670427 
L 615.883629 398.825091 
L 615.658083 396.792318 
L 615.698482 395.461014 
L 615.978977 394.047173 
L 616.423802 392.738407 
L 616.779847 392.063374 
L 617.561086 391.334765 
L 617.318794 390.800229 
L 618.358742 390.11388 
L 618.241723 389.715598 
L 618.982996 389.003681 
L 619.7676 388.447987 
L 620.32957 387.883544 
L 620.563697 387.430233 
L 623.860772 385.156067 
L 626.575886 383.719575 
L 628.597581 382.81193 
L 630.120685 382.26808 
L 632.409552 381.541985 
L 637.063034 380.346057 
L 640.810965 379.649106 
L 645.970746 379.066654 
L 650.631943 378.458956 
L 658.468319 377.563949 
L 661.170484 377.255692 
L 664.088112 376.719891 
L 668.59018 375.927087 
L 673.872706 374.509491 
L 680.485343 372.739799 
L 680.850499 372.594503 
L 685.098277 371.327526 
L 685.44396 371.177688 
L 687.3883 370.565079 
L 695.266406 367.756875 
L 695.538101 367.518888 
L 698.638177 366.088876 
L 700.392644 365.050413 
L 702.502467 363.808661 
L 705.369081 361.972523 
L 708.554788 359.425645 
L 710.412206 357.742853 
L 712.019558 355.93912 
L 714.021692 353.499157 
L 714.511794 352.908762 
L 715.440195 350.878862 
L 716.451698 347.994411 
L 716.787023 345.656473 
L 717.019285 345.475024 
L 717.188432 343.148282 
L 717.071129 340.976002 
L 717.114793 340.838607 
L 716.781953 338.550789 
L 716.096195 333.86242 
L 715.726217 331.543761 
L 713.795659 320.799491 
L 712.82486 316.418774 
L 711.367142 309.835056 
L 711.341271 309.810228 
L 710.860207 307.396245 
L 710.9317 306.551215 
L 710.523253 305.857052 
L 710.472756 305.038122 
L 710.028732 303.458258 
L 708.975501 298.371782 
L 708.250948 294.184393 
L 708.849295 296.822699 
L 706.695454 285.882851 
L 708.763861 295.364862 
L 707.302603 288.293287 
L 706.358701 283.789916 
L 706.369352 283.934659 
L 704.939806 278.000161 
L 702.279051 266.887 
L 699.991375 257.256018 
L 698.79636 249.991495 
L 698.328607 247.400046 
L 697.590118 243.61528 
L 697.616521 243.47883 
L 696.545606 237.271867 
L 696.574911 237.117531 
L 694.11987 223.045347 
L 692.622278 215.480756 
L 692.016507 213.1399 
L 691.147876 209.953879 
L 690.292544 206.920086 
L 689.721598 205.444991 
L 689.595416 205.533966 
L 688.792184 203.21322 
L 688.131607 201.932192 
L 686.546341 199.235323 
L 686.180229 198.838921 
L 685.477755 198.35262 
L 685.142961 197.638969 
L 683.377367 196.12543 
L 682.396288 195.831373 
L 682.064962 195.234899 
L 681.382963 194.823308 
L 679.641777 194.24878 
L 679.262935 193.803333 
L 676.155801 192.89172 
L 673.517109 192.425465 
L 667.536551 192.19499 
L 662.434412 192.714068 
L 659.231664 193.204785 
L 655.955082 193.906918 
L 642.804087 197.20797 
L 630.238788 200.958701 
L 626.832798 202.034709 
L 612.329763 205.859814 
L 605.578562 207.37323 
L 600.090807 208.45573 
L 594.099895 209.183254 
L 591.661562 209.134913 
L 591.166596 209.016285 
L 590.106596 209.083354 
L 586.95966 208.732899 
L 583.85503 207.970343 
L 581.572588 207.094388 
L 580.165487 206.339501 
L 578.221817 205.072217 
L 577.64856 204.972957 
L 577.032447 204.498404 
L 576.336229 203.549287 
L 575.752108 202.968276 
L 575.317493 202.797646 
L 574.708643 202.720614 
L 573.319094 200.81638 
L 572.044664 198.588202 
L 569.54069 192.629206 
L 568.884501 191.145861 
L 568.783085 190.393997 
L 568.249243 188.943304 
L 566.990504 183.242864 
L 566.656006 182.47262 
L 566.605055 181.899916 
L 566.206885 180.171997 
L 566.240002 179.442671 
L 564.956726 174.703922 
L 564.54786 173.207559 
L 564.303316 171.522328 
L 563.86822 168.96181 
L 563.332944 165.845602 
L 563.027577 164.831501 
L 563.637713 163.392331 
L 561.983506 154.182484 
L 559.141582 139.246239 
L 558.559717 135.174287 
L 558.306877 133.529631 
L 558.240314 131.893515 
L 558.411234 128.784155 
L 558.648648 126.540888 
L 558.840664 125.851478 
L 559.343559 125.045969 
L 559.368334 124.397913 
L 560.011806 123.654341 
L 560.782838 122.323989 
L 561.856607 120.529609 
L 562.466899 119.988074 
L 564.086606 118.936968 
L 564.146049 118.639654 
L 567.133715 117.219665 
L 568.879941 116.735004 
L 573.630678 115.68853 
L 578.591351 114.925304 
L 582.837097 114.499618 
L 583.68147 114.402483 
L 583.594165 114.393106 
" clip-path="url(#p916a63c349)" style="fill: none; stroke: #000000; stroke-opacity: 0.501961; stroke-width: 1.3; stroke-linecap: round"/>
   </g>
   <g id="line2d_15">
    <path d="M 768.657493 486.28471 
L 768.742652 488.419194 
L 768.645556 489.525825 
L 768.649995 493.024072 
L 768.565216 494.272024 
L 768.699283 497.446942 
L 768.775477 498.693235 
L 768.695914 501.747666 
L 768.358809 503.388817 
L 767.93611 506.244532 
L 767.622244 510.582358 
L 767.733769 513.348454 
L 767.771723 514.726363 
L 767.728307 515.381805 
L 767.502364 516.713293 
L 767.386061 518.27561 
L 767.160031 520.671875 
L 766.97989 521.365183 
L 766.264155 522.439486 
L 764.657242 524.314184 
L 762.882487 525.955999 
L 761.30025 527.220769 
L 759.506251 528.583994 
L 757.703519 529.559296 
L 751.742291 531.725972 
L 742.646567 534.284618 
L 738.404089 535.352387 
L 734.775797 536.669713 
L 731.852829 537.598353 
L 720.748414 541.438048 
L 718.719071 542.334134 
L 711.086638 545.083052 
L 708.079383 546.112898 
L 705.227633 547.315441 
L 703.760449 547.81667 
L 700.700704 548.655833 
L 698.387801 549.042503 
L 695.191664 549.563954 
L 690.627624 550.624053 
L 683.466377 552.799958 
L 673.193859 554.858182 
L 670.788621 555.505753 
L 667.708797 556.543794 
L 665.659837 557.453213 
L 662.267695 558.843999 
L 660.288587 559.8741 
L 658.882248 560.505612 
L 658.415308 560.791513 
L 656.580044 561.337347 
L 652.732475 562.16298 
L 649.38503 563.001447 
L 648.212058 563.369825 
L 646.271481 563.467834 
L 644.375478 563.248983 
L 642.168234 562.947674 
L 640.673464 562.532065 
L 639.313776 561.927833 
L 635.92526 559.29861 
L 634.990226 558.143039 
L 633.931308 556.222481 
L 633.002685 554.168625 
L 632.067587 551.163049 
L 630.649623 545.813749 
L 630.141524 543.567075 
L 629.534818 541.340161 
L 628.869983 538.309218 
L 626.873654 530.148646 
L 625.811371 523.487356 
L 625.29045 520.207775 
L 624.18904 513.782 
L 622.013589 502.45648 
L 619.598061 492.42504 
L 617.566919 484.20114 
L 617.082193 481.643029 
L 616.572647 478.932979 
L 615.694087 474.451716 
L 614.98308 470.966833 
L 614.041441 466.460798 
L 612.450948 456.302661 
L 609.960711 445.96326 
L 609.709204 444.308875 
L 608.741338 439.060582 
L 607.740785 433.77961 
L 607.183057 431.084204 
L 606.500158 427.490642 
L 602.935212 409.67908 
L 602.856002 408.499367 
L 602.938401 407.565555 
L 604.773399 403.065648 
L 605.639659 401.583465 
L 606.703076 400.216638 
L 607.874486 398.979367 
L 609.156849 397.892912 
L 610.514148 396.924376 
L 611.943297 396.070771 
L 614.963831 394.506327 
L 617.251973 393.502464 
L 619.684113 392.743308 
L 623.472504 390.871451 
L 626.072649 389.58963 
L 628.129069 388.852119 
L 628.816708 388.835037 
L 631.334455 388.321952 
L 644.951851 386.465123 
L 649.229032 386.01025 
L 652.013692 385.622134 
L 656.33385 385.247832 
L 664.245961 383.756916 
L 666.921392 383.275984 
L 672.620433 381.708524 
L 674.822727 381.054035 
L 679.350322 380.13537 
L 687.113916 378.500783 
L 689.816234 377.714799 
L 693.001634 376.760538 
L 697.481422 375.274433 
L 704.558023 372.619369 
L 707.90295 371.054293 
L 710.332959 369.797272 
L 713.365654 367.889465 
L 716.282547 365.713607 
L 721.035567 361.888027 
L 723.248296 359.952372 
L 725.82401 357.270906 
L 727.641459 354.713918 
L 729.532428 351.368192 
L 730.636196 348.584438 
L 730.965494 347.109711 
L 731.430137 344.658774 
L 731.765003 341.346909 
L 731.649963 338.009151 
L 730.031859 327.534504 
L 729.804354 325.73654 
L 729.266101 321.573702 
L 728.905235 318.66493 
L 728.483151 316.364136 
L 726.962964 309.554129 
L 726.263049 306.090535 
L 725.576224 303.302796 
L 724.845329 300.509485 
L 721.569696 284.65036 
L 721.125713 281.922063 
L 720.755572 279.35441 
L 719.586596 273.31276 
L 719.0395 270.570364 
L 713.958132 250.218202 
L 713.269047 247.415254 
L 710.902216 238.928233 
L 708.363464 223.904874 
L 707.864783 221.172887 
L 707.363716 217.738553 
L 703.757272 195.967895 
L 701.101493 184.631331 
L 698.307318 175.921317 
L 697.055857 172.863167 
L 695.133066 168.904161 
L 693.889286 166.735703 
L 692.601279 165.003857 
L 690.691434 163.353281 
L 689.292511 162.378284 
L 687.718599 161.517049 
L 685.988629 160.782912 
L 684.32909 160.350524 
L 681.40165 159.887738 
L 675.717007 158.920807 
L 673.280723 158.771905 
L 671.403249 158.941635 
L 668.562848 159.286829 
L 664.913968 159.946966 
L 661.110994 160.804459 
L 656.404767 161.975449 
L 647.099487 164.851969 
L 645.300756 165.407681 
L 636.546787 168.018035 
L 630.028297 169.927213 
L 622.660487 172.299243 
L 618.671922 173.72765 
L 615.710725 174.625 
L 610.577 176.167533 
L 603.061495 178.260078 
L 600.434723 178.883005 
L 597.834227 179.625527 
L 597.052839 179.680124 
L 594.866149 180.414334 
L 587.582393 183.793673 
L 580.336202 184.926366 
L 578.685497 185.031538 
L 577.306 184.900933 
L 574.470314 184.70584 
L 572.019735 184.537649 
L 569.589458 183.851035 
L 568.103876 183.338728 
L 566.870669 182.633932 
L 563.691487 181.645144 
L 561.291358 180.915662 
L 559.409245 179.970639 
L 558.834197 179.34573 
L 558.462409 178.688868 
L 556.954497 176.64143 
L 556.098737 175.197114 
L 555.392133 173.635138 
L 554.520512 171.261614 
L 552.867661 165.556474 
L 552.246021 163.146862 
L 550.862537 156.273029 
L 549.806748 152.900927 
L 549.155941 150.655122 
L 548.894847 149.669638 
L 548.612226 147.942468 
L 547.289082 140.825043 
L 546.390814 134.407526 
L 545.465528 129.058478 
L 544.101447 120.424355 
L 543.594831 117.598345 
L 542.912082 114.551333 
L 542.090134 110.341872 
L 540.526728 103.008051 
L 539.886903 98.597557 
L 539.723979 96.051883 
L 539.872436 93.076176 
L 539.532875 92.376218 
L 539.700812 90.569735 
L 540.299679 87.991747 
L 541.295426 85.055773 
L 542.553566 82.064683 
L 544.011819 79.406351 
L 546.800448 75.695602 
L 547.907003 74.66061 
L 549.301197 74.499312 
L 552.041354 73.473458 
L 553.69051 73.082605 
L 555.878264 72.979959 
L 557.353097 73.164687 
L 563.163169 74.763682 
L 567.23763 76.205591 
L 572.303131 78.048488 
L 572.34524 78.040038 
L 572.351667 78.051655 
" clip-path="url(#p916a63c349)" style="fill: none; stroke: #4c72b0; stroke-opacity: 0.74902; stroke-width: 1.3; stroke-linecap: round"/>
   </g>
   <g id="line2d_16">
    <path d="M 773.689933 488.698813 
L 773.747125 488.672118 
L 773.706372 488.799994 
L 773.520532 490.774515 
L 773.118007 494.060795 
L 773.112659 496.203928 
L 773.081749 498.102034 
L 773.007469 500.166803 
L 773.025843 502.069639 
L 772.491725 507.286769 
L 772.898318 512.298924 
L 772.707665 514.298519 
L 772.686465 519.673045 
L 772.306042 520.971449 
L 770.737305 523.98951 
L 769.99073 525.070137 
L 769.176771 526.000497 
L 767.83691 527.268257 
L 765.77705 528.831568 
L 761.949184 530.818606 
L 759.042132 531.977129 
L 756.339404 532.875931 
L 751.540822 534.321956 
L 732.768628 539.698785 
L 727.989675 541.315877 
L 723.257307 542.892897 
L 715.180422 545.732413 
L 703.596378 549.481852 
L 697.79392 550.917067 
L 692.548901 551.89346 
L 687.033519 553.010062 
L 684.54989 553.666586 
L 680.75783 554.858471 
L 677.559525 555.556885 
L 672.161536 556.455215 
L 669.4541 557.147477 
L 664.025805 559.002044 
L 661.748044 559.691692 
L 655.894188 561.811026 
L 649.077622 563.587641 
L 646.939912 563.861474 
L 645.434286 564.025211 
L 644.068052 564.035162 
L 643.421614 563.948241 
L 641.633457 563.086586 
L 639.708172 562.075695 
L 638.585586 561.231649 
L 635.291674 558.998556 
L 634.769218 558.468324 
L 634.338089 557.868462 
L 634.021695 557.236361 
L 632.442417 551.995988 
L 631.306163 546.492802 
L 630.644101 543.274424 
L 629.932826 539.689001 
L 629.277163 536.441535 
L 628.696577 533.999584 
L 627.562573 527.565442 
L 627.043921 523.444044 
L 626.335361 517.449658 
L 622.989997 497.96859 
L 621.826548 493.947947 
L 621.045148 490.880904 
L 618.271878 476.971227 
L 617.250738 471.59053 
L 615.58068 466.226174 
L 615.273571 464.31814 
L 614.488285 458.729553 
L 613.656248 452.968184 
L 610.281935 433.637966 
L 609.82209 430.882829 
L 608.579645 425.350449 
L 606.831129 413.971386 
L 606.961537 412.43147 
L 607.336941 410.81982 
L 609.065924 406.373754 
L 610.026976 404.423171 
L 611.224956 402.742475 
L 612.640434 401.594578 
L 614.890808 399.960789 
L 617.225892 398.658622 
L 619.538612 397.612397 
L 625.126787 395.345717 
L 627.074599 394.761726 
L 633.301383 393.544536 
L 637.232474 392.846708 
L 639.898944 392.560623 
L 644.193322 392.297163 
L 657.946548 390.890083 
L 660.727917 390.673047 
L 664.153729 390.140223 
L 668.387024 389.497981 
L 671.026537 389.09662 
L 674.671217 388.258446 
L 681.946537 386.518404 
L 686.467891 385.461189 
L 688.196247 385.030612 
L 690.068062 384.577542 
L 693.406983 383.450306 
L 697.469758 382.0364 
L 699.215452 381.587728 
L 701.957975 380.655338 
L 707.064161 378.508008 
L 708.829241 377.576577 
L 712.554315 375.144117 
L 716.72108 372.389469 
L 718.220735 371.368481 
L 719.766064 370.013216 
L 722.078886 367.718789 
L 722.772779 366.904464 
L 723.659387 366.188582 
L 724.102671 365.493287 
L 724.271365 364.789869 
L 724.090273 363.24992 
L 723.823921 361.739574 
L 723.848697 360.955134 
L 724.080355 360.183415 
L 725.022899 358.597634 
L 725.94209 355.262899 
L 726.586956 352.293212 
L 726.842984 349.421724 
L 726.860942 347.350889 
L 726.745281 345.390912 
L 726.440714 342.511627 
L 725.916405 338.010953 
L 725.460789 333.523136 
L 724.602679 327.002631 
L 723.694889 320.212885 
L 722.983838 315.756605 
L 722.548523 313.072726 
L 721.868431 309.40836 
L 719.55149 296.164325 
L 718.667643 289.436154 
L 717.869871 284.902906 
L 716.970172 278.978129 
L 714.455283 267.692765 
L 709.179194 241.252258 
L 708.711029 237.547739 
L 708.069232 231.506744 
L 706.358347 221.490521 
L 704.529592 206.739609 
L 703.987874 203.322437 
L 703.155542 198.422608 
L 702.442885 191.67876 
L 701.741785 188.238935 
L 700.845979 184.606612 
L 700.096986 181.610137 
L 699.192149 177.915334 
L 698.299875 175.180014 
L 697.293082 172.349907 
L 696.787758 171.522204 
L 695.522636 170.038696 
L 692.844525 167.293061 
L 691.200787 165.18465 
L 689.222436 163.477962 
L 687.343715 162.460527 
L 685.097251 161.558654 
L 682.883349 160.882278 
L 680.122681 160.268223 
L 676.955308 159.758633 
L 673.60418 159.452114 
L 670.555119 159.468788 
L 667.654154 159.649928 
L 659.270407 160.347017 
L 646.570066 162.740806 
L 641.753136 164.038279 
L 630.96927 167.010344 
L 626.911714 167.984519 
L 624.738587 168.538152 
L 616.780763 170.852326 
L 594.275813 175.782106 
L 592.392056 176.038693 
L 590.281352 176.533575 
L 584.659507 178.006071 
L 580.862016 178.561955 
L 577.959194 178.829395 
L 574.284933 178.916253 
L 572.36952 178.761515 
L 570.243248 178.386459 
L 567.119311 177.519361 
L 564.671543 176.632716 
L 562.336479 175.49094 
L 556.768261 171.745068 
L 555.346135 170.447624 
L 554.832749 169.755144 
L 552.200857 164.088892 
L 550.598236 160.103317 
L 550.084231 158.321644 
L 548.235717 147.784336 
L 547.587074 141.676038 
L 546.603601 137.256651 
L 546.136245 135.028189 
L 545.807129 132.0438 
L 542.674294 106.23721 
L 541.703059 101.607582 
L 541.007806 96.723203 
L 540.054195 88.37956 
L 539.875759 84.365047 
L 540.117718 79.599662 
L 540.375679 77.776119 
L 540.594382 76.875645 
L 541.320732 75.239317 
L 542.310474 73.720942 
L 544.103632 71.649755 
L 544.76012 71.087902 
L 546.228587 70.244036 
L 549.20623 69.227353 
L 554.750035 68.200011 
L 556.574177 68.000385 
L 564.559894 68.117872 
L 569.273512 68.307686 
L 569.204252 68.288602 
L 569.158365 68.2142 
L 569.158365 68.2142 
" clip-path="url(#p916a63c349)" style="fill: none; stroke: #55a868; stroke-opacity: 0.74902; stroke-width: 1.3; stroke-linecap: round"/>
   </g>
   <g id="patch_3">
    <path d="M 527.822162 588.888 
L 527.822162 43.152 
" style="fill: none; stroke: #cccccc; stroke-width: 1.25; stroke-linejoin: miter; stroke-linecap: square"/>
   </g>
   <g id="patch_4">
    <path d="M 785.457838 588.888 
L 785.457838 43.152 
" style="fill: none; stroke: #cccccc; stroke-width: 1.25; stroke-linejoin: miter; stroke-linecap: square"/>
   </g>
   <g id="patch_5">
    <path d="M 527.822162 588.888 
L 785.457838 588.888 
" style="fill: none; stroke: #cccccc; stroke-width: 1.25; stroke-linejoin: miter; stroke-linecap: square"/>
   </g>
   <g id="patch_6">
    <path d="M 527.822162 43.152 
L 785.457838 43.152 
" style="fill: none; stroke: #cccccc; stroke-width: 1.25; stroke-linejoin: miter; stroke-linecap: square"/>
   </g>
   <g id="text_16">
    <!-- school-dolly -->
    <g style="fill: #262626" transform="translate(595.175438 37.152) scale(0.204 -0.204)">
     <defs>
      <path id="DejaVuSerif-73" d="M 359 184 
L 359 959 
L 691 959 
Q 703 588 923 403 
Q 1144 219 1575 219 
Q 1963 219 2166 364 
Q 2369 509 2369 788 
Q 2369 1006 2220 1140 
Q 2072 1275 1594 1428 
L 1178 1569 
Q 750 1706 558 1912 
Q 366 2119 366 2438 
Q 366 2894 700 3153 
Q 1034 3413 1625 3413 
Q 1888 3413 2178 3344 
Q 2469 3275 2778 3144 
L 2778 2419 
L 2447 2419 
Q 2434 2741 2221 2922 
Q 2009 3103 1644 3103 
Q 1281 3103 1095 2975 
Q 909 2847 909 2591 
Q 909 2381 1050 2254 
Q 1191 2128 1613 1997 
L 2069 1856 
Q 2541 1709 2748 1489 
Q 2956 1269 2956 922 
Q 2956 450 2595 179 
Q 2234 -91 1600 -91 
Q 1278 -91 972 -22 
Q 666 47 359 184 
z
" transform="scale(0.015625)"/>
      <path id="DejaVuSerif-63" d="M 3291 997 
Q 3169 466 2822 187 
Q 2475 -91 1925 -91 
Q 1200 -91 759 389 
Q 319 869 319 1663 
Q 319 2459 759 2936 
Q 1200 3413 1925 3413 
Q 2241 3413 2553 3339 
Q 2866 3266 3181 3116 
L 3181 2266 
L 2847 2266 
Q 2781 2703 2561 2903 
Q 2341 3103 1931 3103 
Q 1466 3103 1228 2742 
Q 991 2381 991 1663 
Q 991 944 1227 581 
Q 1463 219 1931 219 
Q 2303 219 2525 412 
Q 2747 606 2828 997 
L 3291 997 
z
" transform="scale(0.015625)"/>
      <path id="DejaVuSerif-68" d="M 263 0 
L 263 331 
L 781 331 
L 781 4531 
L 231 4531 
L 231 4863 
L 1356 4863 
L 1356 2731 
Q 1516 3069 1770 3241 
Q 2025 3413 2363 3413 
Q 2913 3413 3172 3097 
Q 3431 2781 3431 2113 
L 3431 331 
L 3944 331 
L 3944 0 
L 2356 0 
L 2356 331 
L 2853 331 
L 2853 1931 
Q 2853 2541 2704 2764 
Q 2556 2988 2175 2988 
Q 1775 2988 1565 2697 
Q 1356 2406 1356 1850 
L 1356 331 
L 1856 331 
L 1856 0 
L 263 0 
z
" transform="scale(0.015625)"/>
      <path id="DejaVuSerif-6f" d="M 1925 219 
Q 2388 219 2623 584 
Q 2859 950 2859 1663 
Q 2859 2375 2623 2739 
Q 2388 3103 1925 3103 
Q 1463 3103 1227 2739 
Q 991 2375 991 1663 
Q 991 950 1228 584 
Q 1466 219 1925 219 
z
M 1925 -91 
Q 1200 -91 759 389 
Q 319 869 319 1663 
Q 319 2456 758 2934 
Q 1197 3413 1925 3413 
Q 2653 3413 3092 2934 
Q 3531 2456 3531 1663 
Q 3531 869 3092 389 
Q 2653 -91 1925 -91 
z
" transform="scale(0.015625)"/>
      <path id="DejaVuSerif-6c" d="M 1313 331 
L 1856 331 
L 1856 0 
L 184 0 
L 184 331 
L 738 331 
L 738 4531 
L 184 4531 
L 184 4863 
L 1313 4863 
L 1313 331 
z
" transform="scale(0.015625)"/>
      <path id="DejaVuSerif-2d" d="M 281 1959 
L 1881 1959 
L 1881 1472 
L 281 1472 
L 281 1959 
z
" transform="scale(0.015625)"/>
      <path id="DejaVuSerif-64" d="M 3359 331 
L 3909 331 
L 3909 0 
L 2784 0 
L 2784 519 
Q 2616 206 2355 57 
Q 2094 -91 1709 -91 
Q 1097 -91 708 395 
Q 319 881 319 1663 
Q 319 2444 706 2928 
Q 1094 3413 1709 3413 
Q 2094 3413 2355 3264 
Q 2616 3116 2784 2803 
L 2784 4531 
L 2241 4531 
L 2241 4863 
L 3359 4863 
L 3359 331 
z
M 2784 1497 
L 2784 1825 
Q 2784 2422 2554 2737 
Q 2325 3053 1888 3053 
Q 1444 3053 1217 2703 
Q 991 2353 991 1663 
Q 991 975 1217 622 
Q 1444 269 1888 269 
Q 2325 269 2554 583 
Q 2784 897 2784 1497 
z
" transform="scale(0.015625)"/>
      <path id="DejaVuSerif-79" d="M 1381 -609 
L 1600 -56 
L 359 2988 
L -19 2988 
L -19 3322 
L 1509 3322 
L 1509 2988 
L 978 2988 
L 1913 703 
L 2847 2988 
L 2350 2988 
L 2350 3322 
L 3597 3322 
L 3597 2988 
L 3225 2988 
L 1703 -750 
Q 1547 -1138 1356 -1280 
Q 1166 -1422 819 -1422 
Q 672 -1422 517 -1397 
Q 363 -1372 206 -1325 
L 206 -691 
L 500 -691 
Q 519 -903 608 -995 
Q 697 -1088 884 -1088 
Q 1056 -1088 1161 -992 
Q 1266 -897 1381 -609 
z
" transform="scale(0.015625)"/>
     </defs>
     <use xlink:href="#DejaVuSerif-73"/>
     <use xlink:href="#DejaVuSerif-63" x="51.318359"/>
     <use xlink:href="#DejaVuSerif-68" x="107.324219"/>
     <use xlink:href="#DejaVuSerif-6f" x="171.728516"/>
     <use xlink:href="#DejaVuSerif-6f" x="231.933594"/>
     <use xlink:href="#DejaVuSerif-6c" x="292.138672"/>
     <use xlink:href="#DejaVuSerif-2d" x="324.121094"/>
     <use xlink:href="#DejaVuSerif-64" x="357.910156"/>
     <use xlink:href="#DejaVuSerif-6f" x="421.923828"/>
     <use xlink:href="#DejaVuSerif-6c" x="482.128906"/>
     <use xlink:href="#DejaVuSerif-6c" x="514.111328"/>
     <use xlink:href="#DejaVuSerif-79" x="546.09375"/>
    </g>
   </g>
   <g id="legend_1">
    <g id="patch_7">
     <path d="M 565.925682 141.762359 
L 772.367838 141.762359 
Q 776.107838 141.762359 776.107838 138.022359 
L 776.107838 56.242 
Q 776.107838 52.502 772.367838 52.502 
L 565.925682 52.502 
Q 562.185682 52.502 562.185682 56.242 
L 562.185682 138.022359 
Q 562.185682 141.762359 565.925682 141.762359 
z
" style="fill: #ffffff; opacity: 0.8; stroke: #cccccc; stroke-linejoin: miter"/>
    </g>
    <g id="line2d_17">
     <path d="M 569.665682 67.646078 
L 588.365682 67.646078 
L 607.065682 67.646078 
" style="fill: none; stroke: #000000; stroke-opacity: 0.501961; stroke-width: 1.3; stroke-linecap: round"/>
    </g>
    <g id="text_17">
     <!-- gt -->
     <g style="fill: #262626" transform="translate(622.025682 74.191078) scale(0.187 -0.187)">
      <defs>
       <path id="DejaVuSerif-67" d="M 3359 2988 
L 3359 72 
Q 3359 -644 2965 -1033 
Q 2572 -1422 1844 -1422 
Q 1516 -1422 1216 -1362 
Q 916 -1303 641 -1184 
L 641 -488 
L 941 -488 
Q 997 -813 1206 -963 
Q 1416 -1113 1806 -1113 
Q 2313 -1113 2548 -827 
Q 2784 -541 2784 72 
L 2784 519 
Q 2616 206 2355 57 
Q 2094 -91 1709 -91 
Q 1097 -91 708 395 
Q 319 881 319 1663 
Q 319 2444 706 2928 
Q 1094 3413 1709 3413 
Q 2094 3413 2355 3264 
Q 2616 3116 2784 2803 
L 2784 3322 
L 3909 3322 
L 3909 2988 
L 3359 2988 
z
M 2784 1825 
Q 2784 2422 2554 2737 
Q 2325 3053 1888 3053 
Q 1444 3053 1217 2703 
Q 991 2353 991 1663 
Q 991 975 1217 622 
Q 1444 269 1888 269 
Q 2325 269 2554 583 
Q 2784 897 2784 1497 
L 2784 1825 
z
" transform="scale(0.015625)"/>
       <path id="DejaVuSerif-74" d="M 691 2988 
L 184 2988 
L 184 3322 
L 691 3322 
L 691 4353 
L 1269 4353 
L 1269 3322 
L 2350 3322 
L 2350 2988 
L 1269 2988 
L 1269 878 
Q 1269 456 1350 337 
Q 1431 219 1650 219 
Q 1875 219 1978 351 
Q 2081 484 2088 781 
L 2522 781 
Q 2497 328 2275 118 
Q 2053 -91 1600 -91 
Q 1103 -91 897 129 
Q 691 350 691 878 
L 691 2988 
z
" transform="scale(0.015625)"/>
      </defs>
      <use xlink:href="#DejaVuSerif-67"/>
      <use xlink:href="#DejaVuSerif-74" x="64.013672"/>
     </g>
    </g>
    <g id="line2d_18">
     <path d="M 569.665682 95.360062 
L 588.365682 95.360062 
L 607.065682 95.360062 
" style="fill: none; stroke: #4c72b0; stroke-opacity: 0.74902; stroke-width: 1.3; stroke-linecap: round"/>
    </g>
    <g id="text_18">
     <!-- DH-PTAM_CPU -->
     <g style="fill: #262626" transform="translate(622.025682 101.905062) scale(0.187 -0.187)">
      <defs>
       <path id="DejaVuSerif-44" d="M 1581 331 
L 2163 331 
Q 3072 331 3558 850 
Q 4044 1369 4044 2338 
Q 4044 3306 3559 3818 
Q 3075 4331 2163 4331 
L 1581 4331 
L 1581 331 
z
M 353 0 
L 353 331 
L 947 331 
L 947 4331 
L 353 4331 
L 353 4666 
L 2209 4666 
Q 3416 4666 4089 4050 
Q 4763 3434 4763 2338 
Q 4763 1238 4088 619 
Q 3413 0 2209 0 
L 353 0 
z
" transform="scale(0.015625)"/>
       <path id="DejaVuSerif-48" d="M 353 0 
L 353 331 
L 947 331 
L 947 4331 
L 353 4331 
L 353 4666 
L 2175 4666 
L 2175 4331 
L 1581 4331 
L 1581 2719 
L 4000 2719 
L 4000 4331 
L 3406 4331 
L 3406 4666 
L 5228 4666 
L 5228 4331 
L 4634 4331 
L 4634 331 
L 5228 331 
L 5228 0 
L 3406 0 
L 3406 331 
L 4000 331 
L 4000 2338 
L 1581 2338 
L 1581 331 
L 2175 331 
L 2175 0 
L 353 0 
z
" transform="scale(0.015625)"/>
       <path id="DejaVuSerif-50" d="M 1581 2375 
L 2406 2375 
Q 2872 2375 3115 2626 
Q 3359 2878 3359 3353 
Q 3359 3831 3115 4081 
Q 2872 4331 2406 4331 
L 1581 4331 
L 1581 2375 
z
M 353 0 
L 353 331 
L 947 331 
L 947 4331 
L 353 4331 
L 353 4666 
L 2559 4666 
Q 3259 4666 3668 4311 
Q 4078 3956 4078 3353 
Q 4078 2753 3668 2397 
Q 3259 2041 2559 2041 
L 1581 2041 
L 1581 331 
L 2303 331 
L 2303 0 
L 353 0 
z
" transform="scale(0.015625)"/>
       <path id="DejaVuSerif-54" d="M 1222 0 
L 1222 331 
L 1819 331 
L 1819 4294 
L 447 4294 
L 447 3566 
L 63 3566 
L 63 4666 
L 4206 4666 
L 4206 3566 
L 3822 3566 
L 3822 4294 
L 2450 4294 
L 2450 331 
L 3047 331 
L 3047 0 
L 1222 0 
z
" transform="scale(0.015625)"/>
       <path id="DejaVuSerif-41" d="M 1281 1691 
L 2994 1691 
L 2138 3909 
L 1281 1691 
z
M -38 0 
L -38 331 
L 372 331 
L 2034 4666 
L 2559 4666 
L 4225 331 
L 4684 331 
L 4684 0 
L 2988 0 
L 2988 331 
L 3506 331 
L 3116 1356 
L 1153 1356 
L 763 331 
L 1275 331 
L 1275 0 
L -38 0 
z
" transform="scale(0.015625)"/>
       <path id="DejaVuSerif-4d" d="M 353 0 
L 353 331 
L 947 331 
L 947 4331 
L 319 4331 
L 319 4666 
L 1678 4666 
L 3316 1344 
L 4953 4666 
L 6228 4666 
L 6228 4331 
L 5606 4331 
L 5606 331 
L 6203 331 
L 6203 0 
L 4378 0 
L 4378 331 
L 4972 331 
L 4972 3938 
L 3372 684 
L 2931 684 
L 1331 3938 
L 1331 331 
L 1925 331 
L 1925 0 
L 353 0 
z
" transform="scale(0.015625)"/>
       <path id="DejaVuSerif-5f" d="M 3200 -1259 
L 3200 -1509 
L 0 -1509 
L 0 -1259 
L 3200 -1259 
z
" transform="scale(0.015625)"/>
       <path id="DejaVuSerif-43" d="M 4513 1234 
Q 4306 581 3820 245 
Q 3334 -91 2591 -91 
Q 2134 -91 1743 65 
Q 1353 222 1050 525 
Q 700 875 529 1320 
Q 359 1766 359 2328 
Q 359 3416 987 4083 
Q 1616 4750 2644 4750 
Q 3025 4750 3456 4650 
Q 3888 4550 4384 4347 
L 4384 3272 
L 4031 3272 
Q 3916 3859 3567 4137 
Q 3219 4416 2591 4416 
Q 1844 4416 1459 3886 
Q 1075 3356 1075 2328 
Q 1075 1303 1459 773 
Q 1844 244 2591 244 
Q 3113 244 3450 492 
Q 3788 741 3938 1234 
L 4513 1234 
z
" transform="scale(0.015625)"/>
       <path id="DejaVuSerif-55" d="M 897 4331 
L 300 4331 
L 300 4666 
L 2125 4666 
L 2125 4331 
L 1528 4331 
L 1528 1919 
Q 1528 1025 1820 672 
Q 2113 319 2828 319 
Q 3544 319 3836 672 
Q 4128 1025 4128 1919 
L 4128 4331 
L 3531 4331 
L 3531 4666 
L 5106 4666 
L 5106 4331 
L 4513 4331 
L 4513 1856 
Q 4513 791 4103 350 
Q 3694 -91 2713 -91 
Q 1731 -91 1314 353 
Q 897 797 897 1856 
L 897 4331 
z
" transform="scale(0.015625)"/>
      </defs>
      <use xlink:href="#DejaVuSerif-44"/>
      <use xlink:href="#DejaVuSerif-48" x="80.175781"/>
      <use xlink:href="#DejaVuSerif-2d" x="167.382812"/>
      <use xlink:href="#DejaVuSerif-50" x="201.171875"/>
      <use xlink:href="#DejaVuSerif-54" x="268.457031"/>
      <use xlink:href="#DejaVuSerif-41" x="329.65625"/>
      <use xlink:href="#DejaVuSerif-4d" x="401.873047"/>
      <use xlink:href="#DejaVuSerif-5f" x="504.265625"/>
      <use xlink:href="#DejaVuSerif-43" x="554.265625"/>
      <use xlink:href="#DejaVuSerif-50" x="630.779297"/>
      <use xlink:href="#DejaVuSerif-55" x="696.314453"/>
     </g>
    </g>
    <g id="line2d_19">
     <path d="M 569.665682 123.32825 
L 588.365682 123.32825 
L 607.065682 123.32825 
" style="fill: none; stroke: #55a868; stroke-opacity: 0.74902; stroke-width: 1.3; stroke-linecap: round"/>
    </g>
    <g id="text_19">
     <!-- DH-PTAM_GPU -->
     <g style="fill: #262626" transform="translate(622.025682 129.87325) scale(0.187 -0.187)">
      <defs>
       <path id="DejaVuSerif-47" d="M 4097 3272 
Q 3988 3856 3641 4136 
Q 3294 4416 2675 4416 
Q 1869 4416 1472 3897 
Q 1075 3378 1075 2328 
Q 1075 1300 1484 772 
Q 1894 244 2688 244 
Q 3041 244 3362 331 
Q 3684 419 3975 594 
L 3975 1797 
L 3097 1797 
L 3097 2131 
L 4609 2131 
L 4609 391 
Q 4194 150 3714 29 
Q 3234 -91 2688 -91 
Q 1631 -91 995 570 
Q 359 1231 359 2328 
Q 359 3434 996 4092 
Q 1634 4750 2713 4750 
Q 3113 4750 3539 4658 
Q 3966 4566 4447 4378 
L 4447 3272 
L 4097 3272 
z
" transform="scale(0.015625)"/>
      </defs>
      <use xlink:href="#DejaVuSerif-44"/>
      <use xlink:href="#DejaVuSerif-48" x="80.175781"/>
      <use xlink:href="#DejaVuSerif-2d" x="167.382812"/>
      <use xlink:href="#DejaVuSerif-50" x="201.171875"/>
      <use xlink:href="#DejaVuSerif-54" x="268.457031"/>
      <use xlink:href="#DejaVuSerif-41" x="329.65625"/>
      <use xlink:href="#DejaVuSerif-4d" x="401.873047"/>
      <use xlink:href="#DejaVuSerif-5f" x="504.265625"/>
      <use xlink:href="#DejaVuSerif-47" x="554.265625"/>
      <use xlink:href="#DejaVuSerif-50" x="634.148438"/>
      <use xlink:href="#DejaVuSerif-55" x="699.683594"/>
     </g>
    </g>
   </g>
  </g>
 </g>
 <defs>
  <clipPath id="p916a63c349">
   <rect x="527.822162" y="43.152" width="257.635676" height="545.736"/>
  </clipPath>
 </defs>
</svg>
