<?xml version="1.0" encoding="utf-8" standalone="no"?>
<!DOCTYPE svg PUBLIC "-//W3C//DTD SVG 1.1//EN"
  "http://www.w3.org/Graphics/SVG/1.1/DTD/svg11.dtd">
<svg xmlns:xlink="http://www.w3.org/1999/xlink" width="1313.28pt" height="663.84pt" viewBox="0 0 1313.28 663.84" xmlns="http://www.w3.org/2000/svg" version="1.1">
 <metadata>
  <rdf:RDF xmlns:dc="http://purl.org/dc/elements/1.1/" xmlns:cc="http://creativecommons.org/ns#" xmlns:rdf="http://www.w3.org/1999/02/22-rdf-syntax-ns#">
   <cc:Work>
    <dc:type rdf:resource="http://purl.org/dc/dcmitype/StillImage"/>
    <dc:date>2023-03-02T11:03:49.213683</dc:date>
    <dc:format>image/svg+xml</dc:format>
    <dc:creator>
     <cc:Agent>
      <dc:title>Matplotlib v3.7.0, https://matplotlib.org/</dc:title>
     </cc:Agent>
    </dc:creator>
   </cc:Work>
  </rdf:RDF>
 </metadata>
 <defs>
  <style type="text/css">*{stroke-linejoin: round; stroke-linecap: butt}</style>
 </defs>
 <g id="figure_1">
  <g id="patch_1">
   <path d="M 0 663.84 
L 1313.28 663.84 
L 1313.28 0 
L 0 0 
z
" style="fill: #ffffff"/>
  </g>
  <g id="axes_1">
   <g id="patch_2">
    <path d="M 337.292404 588.888 
L 975.987596 588.888 
L 975.987596 43.152 
L 337.292404 43.152 
z
" style="fill: #ffffff"/>
   </g>
   <g id="matplotlib.axis_1">
    <g id="xtick_1">
     <g id="line2d_1">
      <path d="M 435.772225 588.888 
L 435.772225 43.152 
" clip-path="url(#p00cb99c76e)" style="fill: none; stroke: #cccccc; stroke-linecap: round"/>
     </g>
     <g id="text_1">
      <!-- 0 -->
      <g style="fill: #262626" transform="translate(429.823287 612.597078) scale(0.187 -0.187)">
       <defs>
        <path id="DejaVuSerif-30" d="M 2034 219 
Q 2513 219 2750 744 
Q 2988 1269 2988 2328 
Q 2988 3391 2750 3916 
Q 2513 4441 2034 4441 
Q 1556 4441 1318 3916 
Q 1081 3391 1081 2328 
Q 1081 1269 1318 744 
Q 1556 219 2034 219 
z
M 2034 -91 
Q 1275 -91 848 546 
Q 422 1184 422 2328 
Q 422 3475 848 4112 
Q 1275 4750 2034 4750 
Q 2797 4750 3222 4112 
Q 3647 3475 3647 2328 
Q 3647 1184 3222 546 
Q 2797 -91 2034 -91 
z
" transform="scale(0.015625)"/>
       </defs>
       <use xlink:href="#DejaVuSerif-30"/>
      </g>
     </g>
    </g>
    <g id="xtick_2">
     <g id="line2d_2">
      <path d="M 542.965638 588.888 
L 542.965638 43.152 
" clip-path="url(#p00cb99c76e)" style="fill: none; stroke: #cccccc; stroke-linecap: round"/>
     </g>
     <g id="text_2">
      <!-- 5 -->
      <g style="fill: #262626" transform="translate(537.016701 612.597078) scale(0.187 -0.187)">
       <defs>
        <path id="DejaVuSerif-35" d="M 3219 4666 
L 3219 4153 
L 1081 4153 
L 1081 2816 
Q 1244 2928 1461 2984 
Q 1678 3041 1947 3041 
Q 2703 3041 3140 2622 
Q 3578 2203 3578 1478 
Q 3578 738 3136 323 
Q 2694 -91 1894 -91 
Q 1572 -91 1234 -12 
Q 897 66 544 225 
L 544 1131 
L 897 1131 
Q 925 688 1179 453 
Q 1434 219 1894 219 
Q 2388 219 2653 544 
Q 2919 869 2919 1478 
Q 2919 2084 2655 2407 
Q 2391 2731 1894 2731 
Q 1613 2731 1398 2631 
Q 1184 2531 1019 2322 
L 750 2322 
L 750 4666 
L 3219 4666 
z
" transform="scale(0.015625)"/>
       </defs>
       <use xlink:href="#DejaVuSerif-35"/>
      </g>
     </g>
    </g>
    <g id="xtick_3">
     <g id="line2d_3">
      <path d="M 650.159052 588.888 
L 650.159052 43.152 
" clip-path="url(#p00cb99c76e)" style="fill: none; stroke: #cccccc; stroke-linecap: round"/>
     </g>
     <g id="text_3">
      <!-- 10 -->
      <g style="fill: #262626" transform="translate(638.261177 612.597078) scale(0.187 -0.187)">
       <defs>
        <path id="DejaVuSerif-31" d="M 909 0 
L 909 331 
L 1722 331 
L 1722 4213 
L 781 3603 
L 781 4013 
L 1919 4750 
L 2350 4750 
L 2350 331 
L 3163 331 
L 3163 0 
L 909 0 
z
" transform="scale(0.015625)"/>
       </defs>
       <use xlink:href="#DejaVuSerif-31"/>
       <use xlink:href="#DejaVuSerif-30" x="63.623047"/>
      </g>
     </g>
    </g>
    <g id="xtick_4">
     <g id="line2d_4">
      <path d="M 757.352466 588.888 
L 757.352466 43.152 
" clip-path="url(#p00cb99c76e)" style="fill: none; stroke: #cccccc; stroke-linecap: round"/>
     </g>
     <g id="text_4">
      <!-- 15 -->
      <g style="fill: #262626" transform="translate(745.454591 612.597078) scale(0.187 -0.187)">
       <use xlink:href="#DejaVuSerif-31"/>
       <use xlink:href="#DejaVuSerif-35" x="63.623047"/>
      </g>
     </g>
    </g>
    <g id="xtick_5">
     <g id="line2d_5">
      <path d="M 864.54588 588.888 
L 864.54588 43.152 
" clip-path="url(#p00cb99c76e)" style="fill: none; stroke: #cccccc; stroke-linecap: round"/>
     </g>
     <g id="text_5">
      <!-- 20 -->
      <g style="fill: #262626" transform="translate(852.648005 612.597078) scale(0.187 -0.187)">
       <defs>
        <path id="DejaVuSerif-32" d="M 819 3553 
L 469 3553 
L 469 4384 
Q 803 4563 1142 4656 
Q 1481 4750 1806 4750 
Q 2534 4750 2956 4397 
Q 3378 4044 3378 3438 
Q 3378 2753 2422 1800 
Q 2347 1728 2309 1691 
L 1131 513 
L 3078 513 
L 3078 1088 
L 3444 1088 
L 3444 0 
L 434 0 
L 434 341 
L 1850 1753 
Q 2319 2222 2519 2614 
Q 2719 3006 2719 3438 
Q 2719 3909 2473 4175 
Q 2228 4441 1797 4441 
Q 1350 4441 1106 4219 
Q 863 3997 819 3553 
z
" transform="scale(0.015625)"/>
       </defs>
       <use xlink:href="#DejaVuSerif-32"/>
       <use xlink:href="#DejaVuSerif-30" x="63.623047"/>
      </g>
     </g>
    </g>
    <g id="xtick_6">
     <g id="line2d_6">
      <path d="M 971.739293 588.888 
L 971.739293 43.152 
" clip-path="url(#p00cb99c76e)" style="fill: none; stroke: #cccccc; stroke-linecap: round"/>
     </g>
     <g id="text_6">
      <!-- 25 -->
      <g style="fill: #262626" transform="translate(959.841418 612.597078) scale(0.187 -0.187)">
       <use xlink:href="#DejaVuSerif-32"/>
       <use xlink:href="#DejaVuSerif-35" x="63.623047"/>
      </g>
     </g>
    </g>
    <g id="text_7">
     <!-- $x$ (m) -->
     <g style="fill: #262626" transform="translate(629.712 635.986906) scale(0.204 -0.204)">
      <defs>
       <path id="DejaVuSans-Oblique-78" d="M 3841 3500 
L 2234 1784 
L 3219 0 
L 2559 0 
L 1819 1388 
L 531 0 
L -166 0 
L 1556 1844 
L 641 3500 
L 1300 3500 
L 1972 2234 
L 3144 3500 
L 3841 3500 
z
" transform="scale(0.015625)"/>
       <path id="DejaVuSerif-20" transform="scale(0.015625)"/>
       <path id="DejaVuSerif-28" d="M 2041 -997 
Q 1281 -656 893 83 
Q 506 822 506 1931 
Q 506 3044 893 3783 
Q 1281 4522 2041 4863 
L 2041 4556 
Q 1559 4225 1350 3623 
Q 1141 3022 1141 1931 
Q 1141 844 1350 242 
Q 1559 -359 2041 -691 
L 2041 -997 
z
" transform="scale(0.015625)"/>
       <path id="DejaVuSerif-6d" d="M 3316 2675 
Q 3481 3041 3739 3227 
Q 3997 3413 4341 3413 
Q 4863 3413 5119 3089 
Q 5375 2766 5375 2113 
L 5375 331 
L 5894 331 
L 5894 0 
L 4300 0 
L 4300 331 
L 4800 331 
L 4800 2047 
Q 4800 2556 4650 2772 
Q 4500 2988 4153 2988 
Q 3769 2988 3567 2697 
Q 3366 2406 3366 1850 
L 3366 331 
L 3866 331 
L 3866 0 
L 2291 0 
L 2291 331 
L 2791 331 
L 2791 2069 
Q 2791 2566 2641 2777 
Q 2491 2988 2144 2988 
Q 1759 2988 1557 2697 
Q 1356 2406 1356 1850 
L 1356 331 
L 1856 331 
L 1856 0 
L 263 0 
L 263 331 
L 781 331 
L 781 2994 
L 231 2994 
L 231 3322 
L 1356 3322 
L 1356 2731 
Q 1516 3063 1762 3238 
Q 2009 3413 2322 3413 
Q 2709 3413 2968 3220 
Q 3228 3028 3316 2675 
z
" transform="scale(0.015625)"/>
       <path id="DejaVuSerif-29" d="M 453 -997 
L 453 -691 
Q 934 -359 1145 242 
Q 1356 844 1356 1931 
Q 1356 3022 1145 3623 
Q 934 4225 453 4556 
L 453 4863 
Q 1216 4522 1603 3783 
Q 1991 3044 1991 1931 
Q 1991 822 1603 83 
Q 1216 -656 453 -997 
z
" transform="scale(0.015625)"/>
      </defs>
      <use xlink:href="#DejaVuSans-Oblique-78" transform="translate(0 0.015625)"/>
      <use xlink:href="#DejaVuSerif-20" transform="translate(59.179688 0.015625)"/>
      <use xlink:href="#DejaVuSerif-28" transform="translate(90.966797 0.015625)"/>
      <use xlink:href="#DejaVuSerif-6d" transform="translate(129.980469 0.015625)"/>
      <use xlink:href="#DejaVuSerif-29" transform="translate(224.804688 0.015625)"/>
     </g>
    </g>
   </g>
   <g id="matplotlib.axis_2">
    <g id="ytick_1">
     <g id="line2d_7">
      <path d="M 337.292404 528.318278 
L 975.987596 528.318278 
" clip-path="url(#p00cb99c76e)" style="fill: none; stroke: #cccccc; stroke-linecap: round"/>
     </g>
     <g id="text_8">
      <!-- −20 -->
      <g style="fill: #262626" transform="translate(288.326639 535.422817) scale(0.187 -0.187)">
       <defs>
        <path id="DejaVuSerif-2212" d="M 678 2259 
L 4684 2259 
L 4684 1753 
L 678 1753 
L 678 2259 
z
" transform="scale(0.015625)"/>
       </defs>
       <use xlink:href="#DejaVuSerif-2212"/>
       <use xlink:href="#DejaVuSerif-32" x="83.789062"/>
       <use xlink:href="#DejaVuSerif-30" x="147.412109"/>
      </g>
     </g>
    </g>
    <g id="ytick_2">
     <g id="line2d_8">
      <path d="M 337.292404 421.124865 
L 975.987596 421.124865 
" clip-path="url(#p00cb99c76e)" style="fill: none; stroke: #cccccc; stroke-linecap: round"/>
     </g>
     <g id="text_9">
      <!-- −15 -->
      <g style="fill: #262626" transform="translate(288.326639 428.229404) scale(0.187 -0.187)">
       <use xlink:href="#DejaVuSerif-2212"/>
       <use xlink:href="#DejaVuSerif-31" x="83.789062"/>
       <use xlink:href="#DejaVuSerif-35" x="147.412109"/>
      </g>
     </g>
    </g>
    <g id="ytick_3">
     <g id="line2d_9">
      <path d="M 337.292404 313.931451 
L 975.987596 313.931451 
" clip-path="url(#p00cb99c76e)" style="fill: none; stroke: #cccccc; stroke-linecap: round"/>
     </g>
     <g id="text_10">
      <!-- −10 -->
      <g style="fill: #262626" transform="translate(288.326639 321.03599) scale(0.187 -0.187)">
       <use xlink:href="#DejaVuSerif-2212"/>
       <use xlink:href="#DejaVuSerif-31" x="83.789062"/>
       <use xlink:href="#DejaVuSerif-30" x="147.412109"/>
      </g>
     </g>
    </g>
    <g id="ytick_4">
     <g id="line2d_10">
      <path d="M 337.292404 206.738037 
L 975.987596 206.738037 
" clip-path="url(#p00cb99c76e)" style="fill: none; stroke: #cccccc; stroke-linecap: round"/>
     </g>
     <g id="text_11">
      <!-- −5 -->
      <g style="fill: #262626" transform="translate(300.224514 213.842576) scale(0.187 -0.187)">
       <use xlink:href="#DejaVuSerif-2212"/>
       <use xlink:href="#DejaVuSerif-35" x="83.789062"/>
      </g>
     </g>
    </g>
    <g id="ytick_5">
     <g id="line2d_11">
      <path d="M 337.292404 99.544623 
L 975.987596 99.544623 
" clip-path="url(#p00cb99c76e)" style="fill: none; stroke: #cccccc; stroke-linecap: round"/>
     </g>
     <g id="text_12">
      <!-- 0 -->
      <g style="fill: #262626" transform="translate(315.894529 106.649163) scale(0.187 -0.187)">
       <use xlink:href="#DejaVuSerif-30"/>
      </g>
     </g>
    </g>
    <g id="text_13">
     <!-- $y$ (m) -->
     <g style="fill: #262626" transform="translate(280.042639 342.948) rotate(-90) scale(0.204 -0.204)">
      <defs>
       <path id="DejaVuSans-Oblique-79" d="M 1588 -325 
Q 1188 -997 936 -1164 
Q 684 -1331 294 -1331 
L -159 -1331 
L -63 -850 
L 269 -850 
Q 509 -850 678 -719 
Q 847 -588 1056 -206 
L 1234 128 
L 459 3500 
L 1069 3500 
L 1650 819 
L 3256 3500 
L 3859 3500 
L 1588 -325 
z
" transform="scale(0.015625)"/>
      </defs>
      <use xlink:href="#DejaVuSans-Oblique-79" transform="translate(0 0.015625)"/>
      <use xlink:href="#DejaVuSerif-20" transform="translate(59.179688 0.015625)"/>
      <use xlink:href="#DejaVuSerif-28" transform="translate(90.966797 0.015625)"/>
      <use xlink:href="#DejaVuSerif-6d" transform="translate(129.980469 0.015625)"/>
      <use xlink:href="#DejaVuSerif-29" transform="translate(224.804688 0.015625)"/>
     </g>
    </g>
   </g>
   <g id="line2d_12">
    <path d="M 814.506221 175.712369 
L 814.536327 175.602118 
L 814.382369 175.709022 
L 814.374576 175.687318 
L 814.516657 175.760797 
L 814.537739 175.611548 
L 814.688136 175.744218 
L 814.508763 175.776003 
L 814.53373 175.590107 
L 814.691228 175.648382 
L 814.515341 175.654549 
L 814.499295 175.794428 
L 814.537631 175.569572 
L 814.514359 175.72283 
L 814.704164 175.592068 
L 814.588757 175.390129 
L 814.831987 175.132956 
L 814.72104 174.77667 
L 814.755467 174.324036 
L 815.307784 173.255007 
L 815.520994 172.677956 
L 815.631216 171.990259 
L 815.733825 170.332142 
L 815.884489 169.495854 
L 816.227557 168.409776 
L 816.37086 166.288746 
L 817.03519 160.878088 
L 817.208149 158.461085 
L 817.923328 153.437694 
L 818.419001 149.501489 
L 818.399886 148.218682 
L 818.612411 146.904796 
L 818.396697 145.537632 
L 817.99895 144.14675 
L 818.202364 142.872308 
L 817.991974 141.536605 
L 816.151183 134.733319 
L 815.719486 133.441489 
L 814.495701 130.934846 
L 812.90993 128.603075 
L 811.820965 127.390812 
L 811.086445 126.366552 
L 808.805862 124.406562 
L 805.167493 122.043314 
L 802.441796 120.820218 
L 799.630191 119.842713 
L 796.373073 119.21575 
L 788.0709 118.303041 
L 781.161649 117.701215 
L 762.824352 117.464795 
L 760.912291 117.063617 
L 759.732854 117.03527 
L 756.43633 116.838452 
L 755.068991 117.080675 
L 754.328669 116.844215 
L 751.650392 116.997362 
L 750.431943 116.670448 
L 747.015411 116.758229 
L 744.035051 116.259178 
L 743.229901 116.314606 
L 739.251749 116.23238 
L 737.250131 115.807372 
L 735.41671 115.637553 
L 733.488784 115.765468 
L 731.921361 115.375049 
L 729.192716 115.304329 
L 726.943413 114.986431 
L 723.703864 114.849849 
L 718.372439 114.417699 
L 715.997922 114.24145 
L 712.140398 113.707986 
L 707.054005 113.419656 
L 702.177868 113.339717 
L 703.460826 113.531298 
L 700.810958 113.002466 
L 699.071716 113.183513 
L 695.24007 112.786028 
L 694.69926 112.60477 
L 691.763506 112.438263 
L 691.884746 112.394025 
L 687.585559 111.916569 
L 685.880173 111.44933 
L 683.248414 111.422013 
L 684.775402 111.577301 
L 680.845802 110.742546 
L 677.389709 110.437052 
L 675.045844 110.102548 
L 673.752446 109.781196 
L 662.374324 108.195962 
L 654.57 107.150025 
L 654.806192 107.049868 
L 654.757423 106.9789 
L 650.191769 106.234953 
L 647.873593 105.939481 
L 646.652371 105.665055 
L 636.034985 104.760712 
L 636.268148 105.017571 
L 634.802224 104.836158 
L 631.836546 104.637094 
L 628.256556 104.228498 
L 625.66137 103.742662 
L 621.853354 103.288527 
L 622.183892 103.668737 
L 619.826901 103.227877 
L 616.264181 102.742161 
L 613.781991 102.610056 
L 612.882483 102.759253 
L 608.888604 102.37695 
L 603.267322 101.980835 
L 596.072786 101.079202 
L 593.097198 100.944498 
L 590.408109 100.570119 
L 585.314268 100.261 
L 585.125141 100.597252 
L 582.810993 100.198165 
L 579.251088 100.220912 
L 576.083879 99.993671 
L 575.830657 99.798687 
L 573.750945 99.655574 
L 574.103083 100.036916 
L 570.673104 99.813687 
L 566.991968 99.18915 
L 564.824831 99.424392 
L 563.907659 99.114773 
L 559.962352 99.098856 
L 556.760303 98.866745 
L 553.017294 98.252941 
L 538.142102 96.857325 
L 535.316385 96.681847 
L 533.520267 96.387836 
L 528.22704 96.154733 
L 524.05951 95.481347 
L 522.064063 95.235067 
L 520.011395 95.174887 
L 518.134009 94.945819 
L 502.555889 93.917923 
L 494.894907 93.216818 
L 489.114442 92.781285 
L 485.394719 92.449141 
L 473.791048 91.997307 
L 470.090379 92.117343 
L 468.084927 92.236248 
L 462.405322 92.945407 
L 460.62893 92.992019 
L 456.788277 93.646754 
L 453.30194 94.484473 
L 451.566657 95.205782 
L 449.929784 95.506081 
L 448.212324 96.776801 
L 444.908891 98.627766 
L 441.823933 100.830851 
L 439.051747 103.403201 
L 437.69825 104.838217 
L 436.563993 106.224167 
L 435.527126 107.827469 
L 433.854984 110.871942 
L 433.063009 111.751352 
L 431.314885 116.494589 
L 430.499566 120.800616 
L 430.184048 122.006781 
L 429.788879 124.022494 
L 429.698414 125.877 
L 429.292541 129.769086 
L 429.382665 131.757717 
L 429.036398 134.569965 
L 429.276208 135.691696 
L 429.256244 137.640212 
L 428.925393 139.571915 
L 429.142763 142.407596 
L 428.973288 145.594319 
L 428.450568 150.536758 
L 428.765483 151.619097 
L 428.414574 153.599893 
L 428.739481 155.61532 
L 428.691433 157.660091 
L 428.429198 159.65746 
L 428.654955 161.678179 
L 428.403592 163.602002 
L 428.549625 165.773074 
L 428.476066 169.796938 
L 428.153032 171.89002 
L 428.241936 175.846218 
L 428.560382 181.887792 
L 428.696248 183.919377 
L 429.37945 185.020973 
L 428.994745 186.912307 
L 429.10915 191.203965 
L 429.56261 193.076632 
L 429.243832 195.038678 
L 429.5797 198.236196 
L 429.298454 199.080638 
L 429.393147 199.969265 
L 428.793621 216.675394 
L 428.512145 220.792482 
L 427.896738 234.73521 
L 427.415236 241.055958 
L 427.110174 246.472235 
L 427.001036 251.014457 
L 426.832385 264.620712 
L 426.606454 268.966552 
L 426.645348 270.841465 
L 426.337283 279.067224 
L 426.525687 279.676211 
L 425.983649 284.951708 
L 426.06655 286.274246 
L 425.705359 289.551072 
L 425.619792 291.663986 
L 425.650056 295.64663 
L 425.364906 299.181394 
L 425.048756 308.929479 
L 424.692475 311.630542 
L 424.846466 313.303649 
L 424.506768 315.713373 
L 424.643911 317.279759 
L 424.334434 319.531014 
L 424.174767 321.685365 
L 424.443522 321.937992 
L 424.154799 323.934927 
L 424.228781 326.034304 
L 424.04133 327.55714 
L 423.825507 331.142948 
L 423.353573 335.694379 
L 423.427497 336.361416 
L 422.926939 342.833797 
L 422.463346 346.020323 
L 422.541549 347.166304 
L 422.406628 350.013372 
L 422.182782 351.856356 
L 422.112364 353.678293 
L 421.791062 355.871322 
L 421.463741 356.836261 
L 421.423538 359.820194 
L 420.293208 369.294449 
L 420.463281 370.652947 
L 420.073637 372.383143 
L 420.048061 373.853552 
L 419.637309 375.998389 
L 419.549622 378.113454 
L 418.726246 384.055883 
L 418.245277 386.511126 
L 417.792227 390.190087 
L 417.20903 393.92108 
L 416.996701 394.345861 
L 416.186759 400.146513 
L 415.910639 401.471136 
L 415.585487 404.375923 
L 415.177376 406.583293 
L 414.45868 412.662875 
L 414.563666 414.548052 
L 414.163653 415.988625 
L 413.940853 419.235539 
L 414.110087 421.293478 
L 413.635576 423.362609 
L 413.860833 424.536549 
L 413.41989 426.784649 
L 413.027956 433.939428 
L 413.193548 435.996231 
L 412.858315 438.064086 
L 412.755563 442.507569 
L 413.129198 444.548324 
L 413.165255 446.437441 
L 412.881149 448.714388 
L 413.161337 450.794519 
L 413.189442 452.94211 
L 413.65817 456.792474 
L 414.520845 460.919023 
L 414.99683 462.916551 
L 415.81936 465.017268 
L 416.973476 466.864695 
L 417.168501 468.757874 
L 417.976079 470.638855 
L 419.103808 472.335048 
L 419.727661 473.918714 
L 420.647415 475.552901 
L 421.714206 477.0013 
L 423.580926 478.334213 
L 423.901565 479.82544 
L 426.106305 481.139269 
L 429.063087 483.716884 
L 429.411024 484.722111 
L 431.99179 485.876875 
L 435.113905 487.922968 
L 436.57217 488.755123 
L 439.911993 490.325363 
L 440.93191 490.968545 
L 444.674924 492.219901 
L 448.387568 493.324585 
L 452.050599 494.242879 
L 456.164059 495.048451 
L 463.080844 496.074987 
L 467.401523 496.40729 
L 479.817159 496.828214 
L 486.959955 497.325042 
L 493.192252 497.575198 
L 504.941965 498.603544 
L 518.255625 499.436384 
L 532.382743 500.591491 
L 550.000037 502.473831 
L 551.662164 502.694114 
L 554.431184 502.872407 
L 555.889051 503.091949 
L 570.551115 504.332621 
L 580.030139 505.414431 
L 585.787597 505.915617 
L 587.545985 505.989301 
L 592.097927 506.743894 
L 596.556813 506.919089 
L 599.527228 507.402271 
L 603.809121 507.709979 
L 605.914091 507.417987 
L 609.380415 507.923639 
L 611.48221 507.865454 
L 638.477109 509.920947 
L 648.628128 510.960952 
L 652.55816 511.484038 
L 666.550248 512.917143 
L 670.74357 513.323562 
L 685.72386 515.049241 
L 690.551783 515.776054 
L 698.414499 517.257783 
L 706.115877 518.526038 
L 722.459553 520.374022 
L 734.273003 521.283951 
L 744.429895 522.412521 
L 748.622202 522.743728 
L 756.553478 523.514821 
L 780.859978 526.40928 
L 786.426398 527.331015 
L 788.472435 527.520264 
L 790.3339 527.890174 
L 801.020868 529.117674 
L 802.092573 528.993916 
L 804.099181 529.27114 
L 808.019994 529.505879 
L 812.065691 529.308146 
L 815.963521 528.550698 
L 817.813247 528.55063 
L 819.814334 528.112109 
L 823.423223 526.959119 
L 825.263964 526.436481 
L 828.731668 525.073179 
L 830.514202 524.259045 
L 832.274632 523.094937 
L 833.645386 522.543653 
L 835.152457 521.612381 
L 838.096961 519.292476 
L 840.762332 516.702079 
L 841.907149 515.30274 
L 842.972281 513.599825 
L 844.031001 512.271156 
L 844.982955 510.707531 
L 847.684514 505.244135 
L 848.398936 503.650788 
L 850.334303 498.02548 
L 853.179666 486.412081 
L 853.972626 482.412439 
L 854.529966 478.739727 
L 856.631658 464.83688 
L 857.532221 459.229305 
L 858.157395 453.049815 
L 858.475401 448.989986 
L 858.769659 446.410589 
L 858.780473 445.162961 
L 859.207907 441.06758 
L 859.731115 433.360137 
L 860.152909 428.427988 
L 860.435213 425.175607 
L 862.388625 411.483435 
L 862.509492 409.873225 
L 862.814494 408.207932 
L 864.691003 391.137483 
L 865.137716 387.265495 
L 865.124968 385.030205 
L 865.73067 380.022492 
L 866.091125 377.120284 
L 866.100705 375.955676 
L 866.484119 371.831943 
L 867.979658 361.418991 
L 869.580234 350.85567 
L 870.610208 342.79052 
L 872.125429 330.284392 
L 872.597372 328.173947 
L 872.864402 326.164036 
L 872.95998 324.042603 
L 873.881526 316.017971 
L 874.03106 313.922905 
L 875.016376 307.244173 
L 875.836466 302.832388 
L 876.789267 296.581317 
L 877.210399 293.818401 
L 877.652683 292.43421 
L 878.342379 288.235061 
L 879.225645 284.20186 
L 879.542194 282.076028 
L 880.888629 276.15182 
L 881.035416 274.142049 
L 882.906954 264.196596 
L 883.386483 260.164586 
L 883.600357 258.077934 
L 884.112107 256.177853 
L 884.291408 254.15583 
L 884.893055 250.265929 
L 887.435472 231.290847 
L 888.12074 224.60845 
L 888.510487 222.532523 
L 888.971514 218.561849 
L 889.971231 212.690762 
L 892.456609 199.525491 
L 892.962703 195.783262 
L 896.02539 168.753761 
L 896.259724 165.397999 
L 896.229063 161.934782 
L 895.755624 156.746068 
L 895.07678 153.327485 
L 893.980621 148.162689 
L 893.392731 146.592065 
L 891.33547 141.977973 
L 889.47752 139.017718 
L 887.477484 136.472227 
L 885.094102 134.085519 
L 883.890515 133.024071 
L 881.053062 131.300139 
L 878.192028 129.951155 
L 876.671224 129.335914 
L 875.062297 128.868039 
L 871.654757 128.122538 
L 869.881601 127.738595 
L 866.208283 127.280877 
L 862.589915 126.990475 
L 859.016487 126.953177 
L 855.525038 127.07792 
L 848.484928 127.491326 
L 840.328395 126.879454 
L 829.550086 125.242943 
L 827.887225 125.038141 
L 826.612381 124.980656 
L 826.621267 124.953895 
" clip-path="url(#p00cb99c76e)" style="fill: none; stroke: #000000; stroke-opacity: 0.501961; stroke-width: 1.3; stroke-linecap: round"/>
   </g>
   <g id="line2d_13">
    <path d="M 826.014634 130.768746 
L 824.866774 131.065466 
L 824.78801 131.271184 
L 824.799123 131.2899 
L 824.620023 131.299534 
L 824.75114 131.223398 
L 824.648492 131.131389 
L 824.792227 130.926547 
L 824.722562 130.651122 
L 824.862832 130.207621 
L 824.794846 129.687626 
L 824.946808 129.068618 
L 824.877339 128.417271 
L 824.985578 127.670442 
L 824.878952 126.921578 
L 824.973777 126.092838 
L 824.820709 125.201443 
L 824.88018 124.201622 
L 824.769552 123.165345 
L 824.837205 122.054859 
L 824.717419 120.978137 
L 824.800133 119.870168 
L 824.685355 118.803253 
L 824.745002 117.685286 
L 824.613295 116.591773 
L 824.615951 115.391342 
L 824.444676 114.19864 
L 824.505812 112.934327 
L 824.363873 111.636181 
L 824.402349 110.229772 
L 824.006026 104.604407 
L 823.484941 102.035598 
L 822.539593 99.893678 
L 821.829052 98.908409 
L 821.275238 97.837032 
L 820.504161 96.821744 
L 817.623343 90.817031 
L 815.20381 87.769263 
L 814.319224 86.771631 
L 809.832534 83.408445 
L 808.554721 82.777913 
L 807.35971 82.056605 
L 803.383184 80.484062 
L 801.995109 79.992739 
L 797.364824 79.337333 
L 795.737886 79.141008 
L 794.016644 79.154749 
L 792.327137 79.011504 
L 790.58216 79.049035 
L 788.893715 78.927618 
L 787.132 78.917586 
L 785.394761 78.763675 
L 783.582819 78.771137 
L 781.781216 78.629454 
L 779.911165 78.698055 
L 778.014116 78.621093 
L 776.046722 78.756717 
L 774.124347 78.774034 
L 772.225516 79.018301 
L 770.399413 79.110702 
L 768.53806 79.326179 
L 766.701263 79.344712 
L 764.859087 79.487538 
L 759.237205 79.343261 
L 757.311536 79.408579 
L 755.374124 79.34814 
L 753.422665 79.470541 
L 751.456857 79.443725 
L 749.452276 79.56789 
L 747.452319 79.515553 
L 745.445585 79.622823 
L 743.458254 79.534659 
L 741.498881 79.601388 
L 739.491556 79.472824 
L 737.505625 79.504019 
L 735.495638 79.348971 
L 733.435608 79.367773 
L 731.386818 79.230138 
L 729.34775 79.271511 
L 727.272141 79.127786 
L 725.11124 79.220516 
L 722.959005 79.171349 
L 720.832856 79.265932 
L 718.758482 79.187755 
L 716.759612 79.295562 
L 714.810045 79.173285 
L 712.818584 79.237107 
L 710.8881 79.084274 
L 708.876591 79.05968 
L 706.802312 78.896903 
L 704.719855 78.92447 
L 702.65583 78.78418 
L 700.61306 78.795978 
L 698.623868 78.687866 
L 696.665322 78.715148 
L 694.688966 78.594289 
L 692.708511 78.648978 
L 690.6445 78.50887 
L 688.579078 78.523717 
L 686.496225 78.356927 
L 684.362846 78.334032 
L 682.248457 78.138798 
L 680.133531 78.114148 
L 678.826522 77.934243 
L 648.243184 76.680821 
L 646.61973 76.427656 
L 644.547483 76.262395 
L 642.417857 75.969313 
L 640.317647 75.801415 
L 636.005379 75.220292 
L 632.076245 74.907895 
L 618.760185 74.506596 
L 616.700148 74.366513 
L 614.616977 74.359302 
L 612.438033 74.236198 
L 610.227194 74.24032 
L 608.093099 74.043734 
L 605.947385 74.01803 
L 603.763463 73.792482 
L 601.581199 73.749273 
L 599.371462 73.526339 
L 597.215545 73.480191 
L 595.078247 73.267232 
L 592.935597 73.244006 
L 590.836951 73.063321 
L 588.789633 73.074123 
L 586.777752 72.916376 
L 584.732289 72.940502 
L 582.657884 72.751394 
L 580.581649 72.750399 
L 578.468932 72.52285 
L 576.372211 72.483083 
L 574.268459 72.252131 
L 572.180784 72.223981 
L 570.10954 72.022764 
L 568.066717 72.051696 
L 565.989066 71.920137 
L 563.953043 71.992399 
L 561.89639 71.901625 
L 559.817398 72.017792 
L 557.819527 71.970722 
L 555.964078 72.053107 
L 553.663152 71.958607 
L 551.113111 72.083207 
L 548.367591 72.052073 
L 545.545049 72.179429 
L 542.713119 72.116987 
L 540.005675 72.254724 
L 537.478894 72.184688 
L 535.249111 72.29105 
L 529.21417 72.0623 
L 527.199743 72.100093 
L 525.119666 71.931358 
L 523.086688 71.891383 
L 521.023935 71.721581 
L 518.998581 71.765633 
L 516.955947 71.617743 
L 514.884357 71.710286 
L 512.816571 71.589521 
L 510.749348 71.646093 
L 508.703443 71.485506 
L 506.665185 71.470339 
L 504.584894 71.232367 
L 502.560238 71.164814 
L 500.498715 70.928809 
L 498.453214 70.91532 
L 496.345315 70.68498 
L 494.267108 70.695183 
L 492.23421 70.518342 
L 490.206846 70.557997 
L 488.206475 70.410186 
L 486.2145 70.462703 
L 484.356495 70.349397 
L 482.658262 70.38653 
L 480.371822 70.049948 
L 477.719494 69.993108 
L 474.846141 69.765907 
L 471.919854 69.817534 
L 468.996474 69.69154 
L 466.204565 69.800942 
L 463.655251 69.734142 
L 461.500242 69.863592 
L 457.976554 69.686693 
L 455.954499 69.43281 
L 453.85004 69.399061 
L 451.703619 69.148934 
L 449.576524 69.158226 
L 447.507821 68.995582 
L 445.43068 69.028952 
L 443.364764 68.830158 
L 441.33767 68.907497 
L 439.288709 68.859125 
L 437.231751 69.052328 
L 435.108914 69.096736 
L 427.188316 70.107607 
L 419.960497 71.606374 
L 414.733137 73.434677 
L 413.034958 74.130187 
L 409.872998 76.012333 
L 407.02429 78.240568 
L 405.763367 79.521694 
L 404.442752 80.701682 
L 402.249478 83.385301 
L 400.385099 86.368066 
L 398.053003 91.504074 
L 397.327098 93.224148 
L 396.30227 96.889566 
L 394.486337 109.99779 
L 394.294589 117.728685 
L 394.323893 119.893728 
L 394.19572 122.112051 
L 394.223427 124.410299 
L 394.089372 126.653282 
L 394.092483 128.916775 
L 393.953885 131.076482 
L 394.0293 133.126964 
L 393.962386 135.04907 
L 394.071758 137.045742 
L 393.97471 139.022371 
L 394.024348 141.047734 
L 393.922894 143.085164 
L 393.971914 145.140452 
L 393.835648 147.273197 
L 393.889725 149.472302 
L 393.827455 151.656573 
L 393.926915 153.861214 
L 393.882042 155.999504 
L 394.012962 158.132 
L 393.954139 160.245304 
L 394.107846 162.32261 
L 394.108254 163.921922 
L 394.236727 166.238568 
L 394.235791 169.161445 
L 394.409692 172.497937 
L 394.628369 183.027392 
L 394.770584 186.167834 
L 394.768077 188.793955 
L 394.889923 190.80786 
L 394.835625 192.699341 
L 394.908217 195.002285 
L 394.866306 197.221247 
L 394.941741 199.473702 
L 394.627618 208.801062 
L 394.367384 211.062689 
L 394.313883 217.685113 
L 394.293268 219.629126 
L 394.440567 221.601026 
L 394.154169 229.675012 
L 393.927887 231.761648 
L 393.898932 233.863819 
L 393.728344 235.89975 
L 393.723398 237.930328 
L 393.575666 239.939185 
L 393.582679 241.994445 
L 393.445135 244.105573 
L 393.500389 246.182364 
L 392.128609 268.691847 
L 392.12736 270.764255 
L 391.953456 272.897572 
L 391.899094 275.075532 
L 391.718764 277.314202 
L 391.691523 279.379792 
L 391.509258 281.37779 
L 391.451999 283.349282 
L 391.221987 285.353842 
L 391.1894 287.374541 
L 390.835643 292.446973 
L 390.883385 299.433784 
L 391.057724 308.401743 
L 391.258989 316.726896 
L 391.265672 319.96062 
L 391.139364 322.015657 
L 390.914182 323.313727 
L 390.85516 325.723242 
L 390.364244 332.960531 
L 390.314369 335.351842 
L 389.935286 339.934994 
L 389.519929 343.980793 
L 389.418909 346.216203 
L 389.511836 348.417843 
L 389.411347 350.638174 
L 389.53341 352.975205 
L 388.963089 362.087082 
L 388.463241 366.277503 
L 388.220591 368.607002 
L 388.122229 371.044758 
L 387.859129 373.481426 
L 387.773346 375.876167 
L 387.517994 378.171723 
L 387.45 380.486768 
L 387.218349 382.612825 
L 387.166121 384.527724 
L 386.795581 386.483226 
L 386.646054 388.612673 
L 385.029765 397.099849 
L 384.509911 399.166227 
L 383.235343 407.546833 
L 383.045504 409.659014 
L 382.617452 411.792641 
L 382.319705 413.865379 
L 381.821814 415.252975 
L 381.612865 417.384988 
L 381.477376 420.56117 
L 381.472842 424.4718 
L 382.267182 446.56834 
L 382.157515 452.337073 
L 381.977709 454.472766 
L 381.982745 456.578795 
L 381.784612 458.58011 
L 381.825209 460.628573 
L 381.632744 462.904383 
L 381.616743 465.304763 
L 381.416346 467.828164 
L 381.401497 470.329167 
L 381.246621 472.838992 
L 381.454383 477.369487 
L 382.225197 481.125415 
L 382.756028 483.013207 
L 383.167981 484.958033 
L 383.817054 486.789179 
L 384.346056 488.675632 
L 385.133675 490.356983 
L 385.823621 492.142944 
L 386.724414 493.842882 
L 387.474163 495.654256 
L 388.415232 497.285751 
L 389.24611 498.990763 
L 391.240539 502.033975 
L 393.583708 504.580637 
L 394.951507 505.660087 
L 396.285507 506.952355 
L 397.754839 508.042411 
L 399.164672 509.282985 
L 400.729704 510.308493 
L 402.237049 511.439974 
L 405.439058 513.212147 
L 407.150707 513.944279 
L 408.900361 514.839182 
L 410.861481 515.565771 
L 412.863367 516.441323 
L 414.940914 517.147263 
L 416.988134 517.969079 
L 421.177717 519.280676 
L 431.546389 520.898627 
L 433.618492 521.229405 
L 435.648318 521.377022 
L 437.696773 521.701293 
L 439.594509 521.715505 
L 449.417395 522.610147 
L 452.166259 523.032845 
L 454.890343 523.258611 
L 457.508371 523.619927 
L 468.866152 524.205823 
L 471.185526 524.473927 
L 473.517835 524.620203 
L 475.808648 524.944285 
L 478.058083 525.095858 
L 480.258262 525.38817 
L 482.44138 525.543697 
L 484.66009 525.825708 
L 486.831744 525.886058 
L 489.042474 526.11708 
L 491.262124 526.151782 
L 493.529367 526.371309 
L 495.80119 526.448067 
L 498.037316 526.704675 
L 500.208856 526.817124 
L 502.422482 527.126507 
L 504.642024 527.27697 
L 506.857644 527.601297 
L 509.064923 527.760372 
L 511.332936 528.085639 
L 513.572388 528.24416 
L 515.809806 528.569627 
L 518.008798 528.738503 
L 520.159161 529.107674 
L 522.332316 529.348308 
L 524.212904 529.780116 
L 529.437052 530.364232 
L 552.104053 531.87094 
L 553.907221 532.15726 
L 556.133828 532.331998 
L 571.978 534.777123 
L 578.550019 535.251516 
L 580.8032 535.550314 
L 582.954302 535.651955 
L 585.066147 535.919325 
L 587.13151 535.980891 
L 589.222909 536.173407 
L 591.308502 536.216875 
L 593.442699 536.381345 
L 595.524302 536.345985 
L 602.058528 536.761809 
L 604.233325 536.785525 
L 606.301784 537.003291 
L 608.335175 537.053998 
L 610.394951 537.26102 
L 612.403421 537.293994 
L 614.419615 537.451266 
L 616.408091 537.407325 
L 618.441165 537.553141 
L 620.465021 537.55856 
L 622.54712 537.7678 
L 624.608894 537.798204 
L 626.657721 538.058981 
L 628.623432 538.167408 
L 632.140039 538.73042 
L 635.150157 539.144156 
L 639.121445 539.4785 
L 648.202616 540.397 
L 656.857416 541.123174 
L 662.618007 541.564752 
L 664.061663 541.860802 
L 666.083772 542.022346 
L 668.301729 542.335169 
L 670.555229 542.525965 
L 672.800826 542.857447 
L 679.31687 543.479972 
L 681.477165 543.771501 
L 683.766376 543.952307 
L 695.828461 545.76535 
L 698.072404 546.141646 
L 704.113659 547.736629 
L 706.164025 548.100129 
L 708.160677 548.613317 
L 712.498443 549.273367 
L 714.681623 549.42588 
L 716.894152 549.750075 
L 719.151118 549.890021 
L 721.464335 550.187033 
L 723.745325 550.276695 
L 725.899433 550.533943 
L 727.972827 550.661175 
L 730.000223 550.953787 
L 732.062124 551.042695 
L 736.17277 551.483021 
L 738.218893 551.866749 
L 740.256757 552.066681 
L 742.339714 552.43086 
L 744.340518 552.623248 
L 746.360158 552.973821 
L 750.649195 553.498506 
L 752.838366 553.481962 
L 757.012755 554.19864 
L 758.998726 554.874346 
L 760.937502 555.369272 
L 764.419888 556.658437 
L 765.875433 557.24204 
L 772.898634 557.137383 
L 777.569531 556.794 
L 782.442301 556.820848 
L 787.226631 556.666352 
L 791.63671 556.85322 
L 795.314754 556.897042 
L 797.909537 557.36493 
L 799.082542 557.783203 
L 801.300588 558.087856 
L 803.534458 558.2653 
L 805.763502 558.731575 
L 807.937734 558.971753 
L 810.090958 559.389773 
L 812.295797 559.692429 
L 814.545494 560.23441 
L 818.936201 560.531921 
L 821.114838 560.399738 
L 823.236753 560.393886 
L 829.167937 559.744575 
L 833.761869 559.401934 
L 836.194011 559.083209 
L 841.060122 558.034104 
L 843.353606 557.448725 
L 847.323611 556.07456 
L 853.837727 553.489324 
L 856.693449 551.951467 
L 860.396081 548.997841 
L 861.679901 547.894151 
L 862.512074 546.575713 
L 863.816538 545.261768 
L 865.639304 543.802648 
L 872.543947 539.003637 
L 874.714006 537.336576 
L 876.623367 535.690268 
L 878.133628 533.97652 
L 879.065311 532.23081 
L 879.634829 530.498547 
L 881.360371 526.865642 
L 882.871403 523.039469 
L 883.378298 521.105861 
L 883.991921 519.210377 
L 887.466244 505.426836 
L 888.187664 503.127754 
L 888.749312 500.749557 
L 889.50436 498.396502 
L 890.086322 496.061365 
L 890.766078 493.883343 
L 892.103544 487.923161 
L 892.675181 485.911014 
L 893.022097 483.888762 
L 893.504091 481.842008 
L 893.784927 479.828313 
L 894.255926 477.753374 
L 894.483106 475.743803 
L 894.877805 473.813537 
L 895.040341 471.857289 
L 895.394524 469.908116 
L 895.636152 467.851057 
L 896.03537 465.8733 
L 896.259497 463.833502 
L 896.754909 461.753572 
L 897.189893 459.44737 
L 897.778769 457.124265 
L 898.188951 454.923764 
L 898.721792 452.715035 
L 898.992423 450.659864 
L 899.487288 448.610215 
L 900.251964 444.575096 
L 900.615331 442.581863 
L 901.190488 440.351746 
L 903.346929 427.965463 
L 903.617453 425.950135 
L 904.042531 423.962801 
L 904.395243 421.723608 
L 904.877994 419.528332 
L 905.148834 417.376488 
L 905.542709 415.345876 
L 905.848955 413.093617 
L 907.302702 406.494652 
L 907.902553 402.04275 
L 908.310273 395.473865 
L 908.786632 390.993517 
L 912.084633 375.314712 
L 914.139757 359.335587 
L 914.598253 357.037088 
L 914.934776 354.705676 
L 915.428488 352.465988 
L 915.76336 350.234342 
L 916.249541 348.098552 
L 917.726876 338.082478 
L 918.047618 334.673431 
L 918.93272 327.948236 
L 920.877999 318.333121 
L 921.480271 316.083969 
L 921.876523 313.788026 
L 922.418048 311.574713 
L 922.823833 309.341771 
L 923.386723 307.051654 
L 923.724846 304.69491 
L 924.219051 302.362956 
L 924.509398 300.021056 
L 925.01119 297.76325 
L 925.308401 295.530166 
L 925.822423 293.449787 
L 926.133377 291.410426 
L 926.678123 289.500866 
L 927.026335 287.539201 
L 927.521844 285.556661 
L 927.763678 283.545703 
L 928.23602 281.529008 
L 928.488744 279.510168 
L 928.931177 277.566266 
L 929.165573 275.597017 
L 929.598241 273.655205 
L 929.689439 271.959934 
L 930.135738 270.102218 
L 930.448864 267.744533 
L 930.999218 265.070789 
L 931.359029 262.183475 
L 931.947695 259.224108 
L 932.281295 256.401585 
L 932.848155 253.693565 
L 933.152036 251.193573 
L 933.523954 249.083706 
L 933.605798 247.297771 
L 934.008137 245.147276 
L 934.12066 243.041113 
L 934.412719 240.985487 
L 934.522082 238.92527 
L 934.845129 236.818932 
L 935.025219 234.7405 
L 935.514378 232.614233 
L 935.764118 230.520656 
L 936.224461 228.44064 
L 936.448575 226.301453 
L 936.901067 224.234137 
L 937.112572 222.22051 
L 937.571742 220.255862 
L 937.806073 218.177949 
L 938.252822 216.210265 
L 938.490154 214.23578 
L 938.898012 212.665949 
L 939.087367 210.82692 
L 939.60402 208.344244 
L 939.951478 205.50441 
L 940.593068 202.531213 
L 941.005662 199.445091 
L 941.644485 196.46148 
L 941.959777 193.67164 
L 942.442991 191.281639 
L 942.589664 189.382456 
L 942.864828 187.952608 
L 943.030729 185.930684 
L 943.427929 184.050023 
L 943.639481 182.162067 
L 944.066492 180.371094 
L 944.329795 178.520093 
L 944.80547 176.661419 
L 944.971992 174.72476 
L 945.257072 172.797671 
L 945.23578 170.880812 
L 945.444447 168.995545 
L 945.395864 167.194969 
L 945.474399 165.486663 
L 945.363854 163.948973 
L 945.448744 162.439896 
L 945.291341 159.056901 
L 944.963144 157.252086 
L 944.752296 155.394341 
L 944.367357 153.576799 
L 944.115167 151.787211 
L 943.586619 150.205814 
L 943.203578 148.668427 
L 942.597665 147.342239 
L 942.09326 145.914688 
L 939.045523 140.549139 
L 936.120063 136.943437 
L 935.099303 135.767761 
L 932.757519 133.813968 
L 928.803091 131.607839 
L 927.377455 130.894502 
L 925.710606 130.314822 
L 923.999683 129.564373 
L 916.573313 127.34823 
L 911.220748 126.573127 
L 909.351885 126.362201 
L 901.763023 125.854961 
L 899.914003 125.748548 
L 892.757345 124.409018 
L 891.091392 123.901338 
L 889.459503 123.552221 
L 887.95231 123.07095 
L 886.491395 122.758239 
L 885.142598 122.293609 
L 883.830373 122.036773 
L 882.624888 121.633638 
L 881.507718 121.41924 
L 880.531469 121.083046 
L 879.648479 120.95191 
L 878.913185 120.6953 
L 878.277709 120.652042 
L 877.781851 120.466574 
L 877.046721 120.404038 
L 876.422696 120.131958 
L 876.389883 120.077541 
L 876.389883 120.077541 
" clip-path="url(#p00cb99c76e)" style="fill: none; stroke: #4c72b0; stroke-opacity: 0.74902; stroke-width: 1.3; stroke-linecap: round"/>
   </g>
   <g id="line2d_14">
    <path d="M 849.996162 151.594372 
L 849.354068 152.038465 
L 849.18996 152.027124 
L 849.454875 151.921816 
L 849.463636 151.889583 
L 849.763698 151.772952 
L 850.684491 151.651547 
L 850.449482 151.739518 
L 848.077634 152.289339 
L 848.924283 152.146653 
L 848.48285 152.348912 
L 848.98013 152.150167 
L 850.437342 151.783625 
L 851.729657 151.355681 
L 852.295045 150.993152 
L 852.330529 150.60737 
L 852.12019 150.092 
L 852.026806 149.47986 
L 852.110979 148.816778 
L 851.96055 148.076591 
L 852.001133 147.292671 
L 851.832626 146.463425 
L 851.894515 145.552195 
L 851.764192 144.559371 
L 851.828756 143.518589 
L 851.715208 142.45074 
L 851.82591 141.371273 
L 851.680699 140.407579 
L 851.84499 139.22497 
L 851.590573 137.933818 
L 851.483728 136.449782 
L 851.132658 134.891315 
L 851.022645 133.265437 
L 850.604835 131.643415 
L 850.264955 128.598963 
L 850.476175 127.349587 
L 850.720352 124.71969 
L 850.518751 123.284539 
L 850.438533 121.74995 
L 849.502637 118.808262 
L 848.627606 117.398274 
L 847.945677 116.04334 
L 847.125805 114.875193 
L 846.524003 113.779235 
L 845.666264 112.879588 
L 840.561164 104.860485 
L 838.725872 102.936174 
L 837.640774 102.207855 
L 836.628571 101.293926 
L 831.768122 98.360674 
L 827.714383 96.879126 
L 826.303568 96.413531 
L 819.435743 95.222048 
L 814.013177 94.762597 
L 812.278876 94.548316 
L 801.218099 94.135193 
L 799.315575 94.22027 
L 797.438247 94.190978 
L 795.468956 94.278753 
L 773.264561 93.381629 
L 771.377699 93.473561 
L 767.897544 93.498698 
L 764.145677 93.479061 
L 743.574683 92.083891 
L 730.953214 91.320479 
L 728.867705 91.103358 
L 715.401346 90.513689 
L 708.77481 90.312825 
L 684.707115 88.244679 
L 681.89103 87.894563 
L 674.570178 87.276691 
L 652.843017 84.697406 
L 648.410526 84.218741 
L 641.944746 83.469608 
L 637.7083 83.011199 
L 610.934251 80.773052 
L 608.821543 80.675367 
L 606.667683 80.419051 
L 604.46606 80.338665 
L 602.274178 80.103833 
L 600.031953 80.039253 
L 597.7531 79.859252 
L 595.425007 79.854387 
L 588.48183 79.450736 
L 586.244025 79.45079 
L 583.938966 79.260305 
L 581.816125 79.212226 
L 579.733825 79.004133 
L 577.501858 79.027515 
L 575.335951 78.884284 
L 573.24413 78.903809 
L 571.088056 78.783078 
L 564.466181 78.881901 
L 562.283511 78.773058 
L 558.398044 78.70742 
L 556.103843 78.687973 
L 553.482089 78.425042 
L 550.49292 78.340309 
L 547.286913 78.075716 
L 544.024253 77.933229 
L 540.808012 77.592377 
L 537.855789 77.4069 
L 535.280757 77.091382 
L 533.272701 76.9901 
L 531.365483 76.672763 
L 529.250062 76.557611 
L 527.371083 76.241063 
L 525.186872 76.20028 
L 522.770012 76.019928 
L 520.197322 76.06272 
L 517.523357 75.918447 
L 514.844012 75.963005 
L 512.219831 75.783418 
L 509.730811 75.759942 
L 499.20956 74.536572 
L 497.034489 74.47393 
L 494.877038 74.243703 
L 492.73309 74.23171 
L 490.623986 74.04113 
L 488.553638 74.03921 
L 486.5796 73.850841 
L 484.728899 73.852558 
L 482.59597 73.581163 
L 480.359189 73.445868 
L 478.030337 73.093169 
L 475.622154 72.912574 
L 473.195495 72.549287 
L 470.801592 72.384341 
L 468.461973 72.047628 
L 459.746393 71.642397 
L 457.251938 71.507644 
L 454.594759 71.051638 
L 451.854349 70.756444 
L 445.739313 69.440591 
L 442.576182 68.595426 
L 437.519716 67.958182 
L 433.675792 68.308096 
L 430.721998 69.358029 
L 429.234736 70.040139 
L 423.487495 71.138848 
L 420.15921 72.321106 
L 415.383328 74.957019 
L 413.710111 75.885547 
L 408.97135 79.374127 
L 407.506107 80.578451 
L 405.011058 83.383002 
L 403.072037 86.345128 
L 401.493553 89.551316 
L 399.248428 96.462848 
L 397.785638 104.16869 
L 396.267846 116.385637 
L 395.96864 120.835302 
L 395.911996 124.565201 
L 395.841235 128.749611 
L 395.621098 133.353792 
L 394.645093 145.916449 
L 393.604126 157.072677 
L 393.349709 161.8644 
L 393.26347 174.886208 
L 393.312918 177.157952 
L 392.717164 194.53422 
L 392.604551 196.786209 
L 392.69268 199.439392 
L 392.410736 210.822225 
L 391.953079 215.948756 
L 391.615086 218.048128 
L 391.194383 222.788649 
L 390.822879 227.313794 
L 388.945225 243.25176 
L 388.488203 250.046599 
L 388.30661 251.99242 
L 387.769572 276.514672 
L 387.591754 278.546012 
L 387.375603 282.964054 
L 386.887281 289.819602 
L 386.600844 292.025203 
L 386.065515 298.754136 
L 385.828746 301.009463 
L 385.731606 303.180599 
L 385.36288 307.721305 
L 385.138766 310.017612 
L 384.752277 316.680964 
L 384.514648 318.935996 
L 384.424788 321.219499 
L 383.177765 335.003399 
L 382.50586 344.121925 
L 382.254931 347.438348 
L 381.629699 353.311153 
L 380.852559 360.271203 
L 380.516954 364.822133 
L 380.038378 369.565181 
L 377.383006 392.316898 
L 376.403403 398.776141 
L 376.166196 400.893204 
L 374.593294 409.728375 
L 373.963886 412.127405 
L 373.595711 414.382367 
L 373.01814 416.480458 
L 372.683946 418.802988 
L 372.083042 421.449797 
L 371.573452 424.288077 
L 370.807009 427.370846 
L 370.305093 430.279794 
L 369.617481 433.315443 
L 368.013425 443.344402 
L 367.86047 445.670159 
L 367.522079 447.962336 
L 367.38578 450.214057 
L 366.94108 454.420179 
L 366.728081 458.754101 
L 366.927612 463.361368 
L 367.036327 468.170872 
L 366.942013 472.909236 
L 366.712429 475.075018 
L 366.351817 477.28893 
L 366.406064 479.437593 
L 366.324004 481.768639 
L 366.65798 483.954811 
L 366.83904 486.177278 
L 367.660106 490.329812 
L 368.812104 493.998576 
L 369.578563 495.533175 
L 370.260208 497.283919 
L 371.074093 498.99987 
L 371.723112 500.803083 
L 374.271967 505.492175 
L 375.143237 506.934048 
L 377.496615 509.422215 
L 378.819441 510.361236 
L 385.076428 515.616983 
L 386.927713 517.051235 
L 390.779115 519.597361 
L 392.728975 520.601831 
L 394.549729 521.312336 
L 398.595678 522.527621 
L 403.139381 523.94485 
L 410.449139 525.848687 
L 414.945228 526.718694 
L 421.826858 527.494529 
L 428.875292 528.064528 
L 435.430156 528.391071 
L 449.498126 529.337828 
L 458.356257 529.503545 
L 461.200394 529.56306 
L 466.149087 529.951373 
L 470.789664 530.44974 
L 478.467503 531.12757 
L 488.370322 531.795165 
L 490.729649 531.967604 
L 495.288252 532.415808 
L 507.168278 533.714171 
L 509.513397 533.887646 
L 512.060719 534.225112 
L 526.688671 535.285328 
L 542.121262 535.999539 
L 551.803954 536.963216 
L 567.733639 538.916962 
L 576.075921 539.456448 
L 587.283399 540.061495 
L 594.204114 540.601644 
L 610.795252 541.492741 
L 615.347529 541.956444 
L 621.93366 542.632315 
L 633.6885 543.620188 
L 645.969325 544.256099 
L 659.504444 545.489086 
L 668.349544 546.352324 
L 670.701446 546.747263 
L 673.020493 546.921209 
L 675.29155 547.219268 
L 677.536136 547.289115 
L 685.972423 548.072005 
L 694.340555 549.350561 
L 697.179977 549.732757 
L 699.881944 550.250712 
L 702.291713 550.513595 
L 704.23488 550.99406 
L 708.353266 551.737101 
L 710.667667 551.891621 
L 712.921738 552.201576 
L 715.27947 552.331547 
L 719.972854 552.735006 
L 724.433214 553.133558 
L 726.665295 553.534205 
L 728.890233 553.733725 
L 731.085015 554.082464 
L 733.1487 554.233804 
L 735.140271 554.563386 
L 737.148557 554.741552 
L 743.368003 555.975483 
L 752.174896 557.092439 
L 754.376707 557.128798 
L 756.585228 557.314652 
L 758.754168 557.329986 
L 760.842521 557.535371 
L 762.983437 557.605873 
L 765.211564 558.092781 
L 767.418286 558.236787 
L 771.660129 558.845459 
L 776.874771 560.029862 
L 783.085996 560.9032 
L 792.237677 561.486324 
L 796.794097 561.475642 
L 800.630752 561.967291 
L 802.634616 562.402465 
L 804.848363 562.669123 
L 807.144247 563.111665 
L 809.466083 563.332306 
L 811.830163 563.698825 
L 820.725436 564.081818 
L 822.756741 564.003623 
L 824.77882 564.070164 
L 828.81819 563.848994 
L 832.855795 563.177173 
L 838.516284 561.203082 
L 840.276667 560.493475 
L 844.808796 558.138657 
L 850.777806 555.81119 
L 854.81215 553.932346 
L 858.296358 551.475411 
L 859.573731 550.060146 
L 862.010185 547.057165 
L 865.626817 543.954795 
L 869.6046 540.730638 
L 871.379761 539.095692 
L 872.960948 537.369057 
L 874.045299 535.675601 
L 874.729423 533.918517 
L 874.913887 532.098931 
L 877.329287 524.055117 
L 878.19663 521.6867 
L 878.910461 519.290102 
L 879.779244 516.941462 
L 881.071707 512.553073 
L 883.797218 497.632849 
L 884.400442 494.982015 
L 888.018629 474.21563 
L 888.368456 471.534454 
L 889.149644 463.693393 
L 891.044613 451.730886 
L 891.52506 449.657741 
L 892.985221 440.528968 
L 893.490031 437.090307 
L 894.524807 427.890178 
L 899.362349 398.597084 
L 900.346367 392.159718 
L 902.762338 378.858512 
L 903.807195 374.932139 
L 904.278466 372.540817 
L 905.115849 362.636523 
L 905.539235 359.015805 
L 905.823141 355.51921 
L 906.513902 349.739756 
L 906.993933 347.638445 
L 907.88184 341.017753 
L 909.151834 334.148917 
L 909.458768 331.891182 
L 909.886249 329.702469 
L 910.747456 323.238907 
L 911.187819 320.781044 
L 911.524771 317.977405 
L 912.063874 315.016195 
L 912.414384 311.94381 
L 912.969847 308.937674 
L 913.386225 305.99338 
L 913.949518 303.358157 
L 914.312226 300.984257 
L 914.792797 299.000616 
L 915.221217 296.709174 
L 915.821041 294.35948 
L 916.283653 292.029172 
L 916.885293 289.690121 
L 917.272154 287.363481 
L 917.882992 285.020155 
L 918.334466 282.730835 
L 918.941102 280.571363 
L 919.361612 278.575365 
L 919.96104 276.301749 
L 920.430019 273.801829 
L 921.137454 271.201256 
L 928.699686 230.128943 
L 929.034481 227.33952 
L 929.524499 224.653086 
L 929.800255 222.206048 
L 930.20437 220.029067 
L 930.354198 218.165491 
L 930.782317 216.325081 
L 931.069084 214.300342 
L 931.541809 212.45369 
L 931.807266 210.352396 
L 932.244986 208.087209 
L 932.451574 205.747864 
L 932.868892 203.400855 
L 933.102526 201.037978 
L 933.58712 198.73803 
L 933.879398 196.49612 
L 934.401823 194.388146 
L 934.748606 192.494061 
L 935.288662 190.642404 
L 935.63638 188.668005 
L 936.130208 186.849406 
L 936.42992 184.868597 
L 936.888997 182.774474 
L 937.077136 180.61162 
L 937.475908 178.39715 
L 937.634039 176.162568 
L 938.006974 173.952044 
L 938.150736 171.852424 
L 938.733786 167.985022 
L 938.961673 165.933356 
L 939.420914 164.047225 
L 940.315088 162.363058 
L 941.316169 160.95494 
L 942.243674 159.440236 
L 942.633491 157.936153 
L 943.762616 150.835611 
L 945.86311 151.687072 
L 946.955996 150.019574 
L 946.159924 144.753073 
L 943.751442 136.775934 
L 939.773068 127.04013 
L 935.079549 116.727829 
L 926.446281 99.075783 
L 922.630215 92.41661 
L 922.844674 93.71498 
L 921.824588 92.23927 
L 920.655042 90.966987 
L 919.606552 89.607916 
L 917.401517 87.462587 
L 913.6926 84.840859 
L 912.372669 83.964734 
L 909.5914 82.568847 
L 906.546089 81.691798 
L 903.032787 81.17065 
L 899.268432 81.073667 
L 893.448128 81.272059 
L 891.621938 81.470665 
L 885.905555 82.614024 
L 882.040033 83.666953 
L 873.538648 86.25786 
L 869.36482 87.427121 
L 865.443059 88.347212 
L 860.042105 89.428187 
L 842.103936 92.593863 
L 840.986207 93.079001 
L 840.986207 93.079001 
" clip-path="url(#p00cb99c76e)" style="fill: none; stroke: #55a868; stroke-opacity: 0.74902; stroke-width: 1.3; stroke-linecap: round"/>
   </g>
   <g id="patch_3">
    <path d="M 337.292404 588.888 
L 337.292404 43.152 
" style="fill: none; stroke: #cccccc; stroke-width: 1.25; stroke-linejoin: miter; stroke-linecap: square"/>
   </g>
   <g id="patch_4">
    <path d="M 975.987596 588.888 
L 975.987596 43.152 
" style="fill: none; stroke: #cccccc; stroke-width: 1.25; stroke-linejoin: miter; stroke-linecap: square"/>
   </g>
   <g id="patch_5">
    <path d="M 337.292404 588.888 
L 975.987596 588.888 
" style="fill: none; stroke: #cccccc; stroke-width: 1.25; stroke-linejoin: miter; stroke-linecap: square"/>
   </g>
   <g id="patch_6">
    <path d="M 337.292404 43.152 
L 975.987596 43.152 
" style="fill: none; stroke: #cccccc; stroke-width: 1.25; stroke-linejoin: miter; stroke-linecap: square"/>
   </g>
   <g id="text_14">
    <!-- corridors-dolly -->
    <g style="fill: #262626" transform="translate(580.589438 37.152) scale(0.204 -0.204)">
     <defs>
      <path id="DejaVuSerif-63" d="M 3291 997 
Q 3169 466 2822 187 
Q 2475 -91 1925 -91 
Q 1200 -91 759 389 
Q 319 869 319 1663 
Q 319 2459 759 2936 
Q 1200 3413 1925 3413 
Q 2241 3413 2553 3339 
Q 2866 3266 3181 3116 
L 3181 2266 
L 2847 2266 
Q 2781 2703 2561 2903 
Q 2341 3103 1931 3103 
Q 1466 3103 1228 2742 
Q 991 2381 991 1663 
Q 991 944 1227 581 
Q 1463 219 1931 219 
Q 2303 219 2525 412 
Q 2747 606 2828 997 
L 3291 997 
z
" transform="scale(0.015625)"/>
      <path id="DejaVuSerif-6f" d="M 1925 219 
Q 2388 219 2623 584 
Q 2859 950 2859 1663 
Q 2859 2375 2623 2739 
Q 2388 3103 1925 3103 
Q 1463 3103 1227 2739 
Q 991 2375 991 1663 
Q 991 950 1228 584 
Q 1466 219 1925 219 
z
M 1925 -91 
Q 1200 -91 759 389 
Q 319 869 319 1663 
Q 319 2456 758 2934 
Q 1197 3413 1925 3413 
Q 2653 3413 3092 2934 
Q 3531 2456 3531 1663 
Q 3531 869 3092 389 
Q 2653 -91 1925 -91 
z
" transform="scale(0.015625)"/>
      <path id="DejaVuSerif-72" d="M 3059 3328 
L 3059 2497 
L 2728 2497 
Q 2713 2744 2591 2866 
Q 2469 2988 2234 2988 
Q 1809 2988 1582 2694 
Q 1356 2400 1356 1850 
L 1356 331 
L 2022 331 
L 2022 0 
L 263 0 
L 263 331 
L 781 331 
L 781 2994 
L 231 2994 
L 231 3322 
L 1356 3322 
L 1356 2731 
Q 1525 3078 1790 3245 
Q 2056 3413 2438 3413 
Q 2578 3413 2733 3391 
Q 2888 3369 3059 3328 
z
" transform="scale(0.015625)"/>
      <path id="DejaVuSerif-69" d="M 622 4353 
Q 622 4497 726 4603 
Q 831 4709 978 4709 
Q 1122 4709 1226 4603 
Q 1331 4497 1331 4353 
Q 1331 4206 1228 4103 
Q 1125 4000 978 4000 
Q 831 4000 726 4103 
Q 622 4206 622 4353 
z
M 1356 331 
L 1900 331 
L 1900 0 
L 231 0 
L 231 331 
L 781 331 
L 781 2988 
L 231 2988 
L 231 3322 
L 1356 3322 
L 1356 331 
z
" transform="scale(0.015625)"/>
      <path id="DejaVuSerif-64" d="M 3359 331 
L 3909 331 
L 3909 0 
L 2784 0 
L 2784 519 
Q 2616 206 2355 57 
Q 2094 -91 1709 -91 
Q 1097 -91 708 395 
Q 319 881 319 1663 
Q 319 2444 706 2928 
Q 1094 3413 1709 3413 
Q 2094 3413 2355 3264 
Q 2616 3116 2784 2803 
L 2784 4531 
L 2241 4531 
L 2241 4863 
L 3359 4863 
L 3359 331 
z
M 2784 1497 
L 2784 1825 
Q 2784 2422 2554 2737 
Q 2325 3053 1888 3053 
Q 1444 3053 1217 2703 
Q 991 2353 991 1663 
Q 991 975 1217 622 
Q 1444 269 1888 269 
Q 2325 269 2554 583 
Q 2784 897 2784 1497 
z
" transform="scale(0.015625)"/>
      <path id="DejaVuSerif-73" d="M 359 184 
L 359 959 
L 691 959 
Q 703 588 923 403 
Q 1144 219 1575 219 
Q 1963 219 2166 364 
Q 2369 509 2369 788 
Q 2369 1006 2220 1140 
Q 2072 1275 1594 1428 
L 1178 1569 
Q 750 1706 558 1912 
Q 366 2119 366 2438 
Q 366 2894 700 3153 
Q 1034 3413 1625 3413 
Q 1888 3413 2178 3344 
Q 2469 3275 2778 3144 
L 2778 2419 
L 2447 2419 
Q 2434 2741 2221 2922 
Q 2009 3103 1644 3103 
Q 1281 3103 1095 2975 
Q 909 2847 909 2591 
Q 909 2381 1050 2254 
Q 1191 2128 1613 1997 
L 2069 1856 
Q 2541 1709 2748 1489 
Q 2956 1269 2956 922 
Q 2956 450 2595 179 
Q 2234 -91 1600 -91 
Q 1278 -91 972 -22 
Q 666 47 359 184 
z
" transform="scale(0.015625)"/>
      <path id="DejaVuSerif-2d" d="M 281 1959 
L 1881 1959 
L 1881 1472 
L 281 1472 
L 281 1959 
z
" transform="scale(0.015625)"/>
      <path id="DejaVuSerif-6c" d="M 1313 331 
L 1856 331 
L 1856 0 
L 184 0 
L 184 331 
L 738 331 
L 738 4531 
L 184 4531 
L 184 4863 
L 1313 4863 
L 1313 331 
z
" transform="scale(0.015625)"/>
      <path id="DejaVuSerif-79" d="M 1381 -609 
L 1600 -56 
L 359 2988 
L -19 2988 
L -19 3322 
L 1509 3322 
L 1509 2988 
L 978 2988 
L 1913 703 
L 2847 2988 
L 2350 2988 
L 2350 3322 
L 3597 3322 
L 3597 2988 
L 3225 2988 
L 1703 -750 
Q 1547 -1138 1356 -1280 
Q 1166 -1422 819 -1422 
Q 672 -1422 517 -1397 
Q 363 -1372 206 -1325 
L 206 -691 
L 500 -691 
Q 519 -903 608 -995 
Q 697 -1088 884 -1088 
Q 1056 -1088 1161 -992 
Q 1266 -897 1381 -609 
z
" transform="scale(0.015625)"/>
     </defs>
     <use xlink:href="#DejaVuSerif-63"/>
     <use xlink:href="#DejaVuSerif-6f" x="56.005859"/>
     <use xlink:href="#DejaVuSerif-72" x="116.210938"/>
     <use xlink:href="#DejaVuSerif-72" x="164.013672"/>
     <use xlink:href="#DejaVuSerif-69" x="211.816406"/>
     <use xlink:href="#DejaVuSerif-64" x="243.798828"/>
     <use xlink:href="#DejaVuSerif-6f" x="307.8125"/>
     <use xlink:href="#DejaVuSerif-72" x="368.017578"/>
     <use xlink:href="#DejaVuSerif-73" x="415.820312"/>
     <use xlink:href="#DejaVuSerif-2d" x="467.138672"/>
     <use xlink:href="#DejaVuSerif-64" x="500.927734"/>
     <use xlink:href="#DejaVuSerif-6f" x="564.941406"/>
     <use xlink:href="#DejaVuSerif-6c" x="625.146484"/>
     <use xlink:href="#DejaVuSerif-6c" x="657.128906"/>
     <use xlink:href="#DejaVuSerif-79" x="689.111328"/>
    </g>
   </g>
   <g id="legend_1">
    <g id="patch_7">
     <path d="M 553.418922 360.65018 
L 759.861078 360.65018 
Q 763.601078 360.65018 763.601078 356.91018 
L 763.601078 275.12982 
Q 763.601078 271.38982 759.861078 271.38982 
L 553.418922 271.38982 
Q 549.678922 271.38982 549.678922 275.12982 
L 549.678922 356.91018 
Q 549.678922 360.65018 553.418922 360.65018 
z
" style="fill: #ffffff; opacity: 0.8; stroke: #cccccc; stroke-linejoin: miter"/>
    </g>
    <g id="line2d_15">
     <path d="M 557.158922 286.533898 
L 575.858922 286.533898 
L 594.558922 286.533898 
" style="fill: none; stroke: #000000; stroke-opacity: 0.501961; stroke-width: 1.3; stroke-linecap: round"/>
    </g>
    <g id="text_15">
     <!-- gt -->
     <g style="fill: #262626" transform="translate(609.518922 293.078898) scale(0.187 -0.187)">
      <defs>
       <path id="DejaVuSerif-67" d="M 3359 2988 
L 3359 72 
Q 3359 -644 2965 -1033 
Q 2572 -1422 1844 -1422 
Q 1516 -1422 1216 -1362 
Q 916 -1303 641 -1184 
L 641 -488 
L 941 -488 
Q 997 -813 1206 -963 
Q 1416 -1113 1806 -1113 
Q 2313 -1113 2548 -827 
Q 2784 -541 2784 72 
L 2784 519 
Q 2616 206 2355 57 
Q 2094 -91 1709 -91 
Q 1097 -91 708 395 
Q 319 881 319 1663 
Q 319 2444 706 2928 
Q 1094 3413 1709 3413 
Q 2094 3413 2355 3264 
Q 2616 3116 2784 2803 
L 2784 3322 
L 3909 3322 
L 3909 2988 
L 3359 2988 
z
M 2784 1825 
Q 2784 2422 2554 2737 
Q 2325 3053 1888 3053 
Q 1444 3053 1217 2703 
Q 991 2353 991 1663 
Q 991 975 1217 622 
Q 1444 269 1888 269 
Q 2325 269 2554 583 
Q 2784 897 2784 1497 
L 2784 1825 
z
" transform="scale(0.015625)"/>
       <path id="DejaVuSerif-74" d="M 691 2988 
L 184 2988 
L 184 3322 
L 691 3322 
L 691 4353 
L 1269 4353 
L 1269 3322 
L 2350 3322 
L 2350 2988 
L 1269 2988 
L 1269 878 
Q 1269 456 1350 337 
Q 1431 219 1650 219 
Q 1875 219 1978 351 
Q 2081 484 2088 781 
L 2522 781 
Q 2497 328 2275 118 
Q 2053 -91 1600 -91 
Q 1103 -91 897 129 
Q 691 350 691 878 
L 691 2988 
z
" transform="scale(0.015625)"/>
      </defs>
      <use xlink:href="#DejaVuSerif-67"/>
      <use xlink:href="#DejaVuSerif-74" x="64.013672"/>
     </g>
    </g>
    <g id="line2d_16">
     <path d="M 557.158922 314.247883 
L 575.858922 314.247883 
L 594.558922 314.247883 
" style="fill: none; stroke: #4c72b0; stroke-opacity: 0.74902; stroke-width: 1.3; stroke-linecap: round"/>
    </g>
    <g id="text_16">
     <!-- DH-PTAM_CPU -->
     <g style="fill: #262626" transform="translate(609.518922 320.792883) scale(0.187 -0.187)">
      <defs>
       <path id="DejaVuSerif-44" d="M 1581 331 
L 2163 331 
Q 3072 331 3558 850 
Q 4044 1369 4044 2338 
Q 4044 3306 3559 3818 
Q 3075 4331 2163 4331 
L 1581 4331 
L 1581 331 
z
M 353 0 
L 353 331 
L 947 331 
L 947 4331 
L 353 4331 
L 353 4666 
L 2209 4666 
Q 3416 4666 4089 4050 
Q 4763 3434 4763 2338 
Q 4763 1238 4088 619 
Q 3413 0 2209 0 
L 353 0 
z
" transform="scale(0.015625)"/>
       <path id="DejaVuSerif-48" d="M 353 0 
L 353 331 
L 947 331 
L 947 4331 
L 353 4331 
L 353 4666 
L 2175 4666 
L 2175 4331 
L 1581 4331 
L 1581 2719 
L 4000 2719 
L 4000 4331 
L 3406 4331 
L 3406 4666 
L 5228 4666 
L 5228 4331 
L 4634 4331 
L 4634 331 
L 5228 331 
L 5228 0 
L 3406 0 
L 3406 331 
L 4000 331 
L 4000 2338 
L 1581 2338 
L 1581 331 
L 2175 331 
L 2175 0 
L 353 0 
z
" transform="scale(0.015625)"/>
       <path id="DejaVuSerif-50" d="M 1581 2375 
L 2406 2375 
Q 2872 2375 3115 2626 
Q 3359 2878 3359 3353 
Q 3359 3831 3115 4081 
Q 2872 4331 2406 4331 
L 1581 4331 
L 1581 2375 
z
M 353 0 
L 353 331 
L 947 331 
L 947 4331 
L 353 4331 
L 353 4666 
L 2559 4666 
Q 3259 4666 3668 4311 
Q 4078 3956 4078 3353 
Q 4078 2753 3668 2397 
Q 3259 2041 2559 2041 
L 1581 2041 
L 1581 331 
L 2303 331 
L 2303 0 
L 353 0 
z
" transform="scale(0.015625)"/>
       <path id="DejaVuSerif-54" d="M 1222 0 
L 1222 331 
L 1819 331 
L 1819 4294 
L 447 4294 
L 447 3566 
L 63 3566 
L 63 4666 
L 4206 4666 
L 4206 3566 
L 3822 3566 
L 3822 4294 
L 2450 4294 
L 2450 331 
L 3047 331 
L 3047 0 
L 1222 0 
z
" transform="scale(0.015625)"/>
       <path id="DejaVuSerif-41" d="M 1281 1691 
L 2994 1691 
L 2138 3909 
L 1281 1691 
z
M -38 0 
L -38 331 
L 372 331 
L 2034 4666 
L 2559 4666 
L 4225 331 
L 4684 331 
L 4684 0 
L 2988 0 
L 2988 331 
L 3506 331 
L 3116 1356 
L 1153 1356 
L 763 331 
L 1275 331 
L 1275 0 
L -38 0 
z
" transform="scale(0.015625)"/>
       <path id="DejaVuSerif-4d" d="M 353 0 
L 353 331 
L 947 331 
L 947 4331 
L 319 4331 
L 319 4666 
L 1678 4666 
L 3316 1344 
L 4953 4666 
L 6228 4666 
L 6228 4331 
L 5606 4331 
L 5606 331 
L 6203 331 
L 6203 0 
L 4378 0 
L 4378 331 
L 4972 331 
L 4972 3938 
L 3372 684 
L 2931 684 
L 1331 3938 
L 1331 331 
L 1925 331 
L 1925 0 
L 353 0 
z
" transform="scale(0.015625)"/>
       <path id="DejaVuSerif-5f" d="M 3200 -1259 
L 3200 -1509 
L 0 -1509 
L 0 -1259 
L 3200 -1259 
z
" transform="scale(0.015625)"/>
       <path id="DejaVuSerif-43" d="M 4513 1234 
Q 4306 581 3820 245 
Q 3334 -91 2591 -91 
Q 2134 -91 1743 65 
Q 1353 222 1050 525 
Q 700 875 529 1320 
Q 359 1766 359 2328 
Q 359 3416 987 4083 
Q 1616 4750 2644 4750 
Q 3025 4750 3456 4650 
Q 3888 4550 4384 4347 
L 4384 3272 
L 4031 3272 
Q 3916 3859 3567 4137 
Q 3219 4416 2591 4416 
Q 1844 4416 1459 3886 
Q 1075 3356 1075 2328 
Q 1075 1303 1459 773 
Q 1844 244 2591 244 
Q 3113 244 3450 492 
Q 3788 741 3938 1234 
L 4513 1234 
z
" transform="scale(0.015625)"/>
       <path id="DejaVuSerif-55" d="M 897 4331 
L 300 4331 
L 300 4666 
L 2125 4666 
L 2125 4331 
L 1528 4331 
L 1528 1919 
Q 1528 1025 1820 672 
Q 2113 319 2828 319 
Q 3544 319 3836 672 
Q 4128 1025 4128 1919 
L 4128 4331 
L 3531 4331 
L 3531 4666 
L 5106 4666 
L 5106 4331 
L 4513 4331 
L 4513 1856 
Q 4513 791 4103 350 
Q 3694 -91 2713 -91 
Q 1731 -91 1314 353 
Q 897 797 897 1856 
L 897 4331 
z
" transform="scale(0.015625)"/>
      </defs>
      <use xlink:href="#DejaVuSerif-44"/>
      <use xlink:href="#DejaVuSerif-48" x="80.175781"/>
      <use xlink:href="#DejaVuSerif-2d" x="167.382812"/>
      <use xlink:href="#DejaVuSerif-50" x="201.171875"/>
      <use xlink:href="#DejaVuSerif-54" x="268.457031"/>
      <use xlink:href="#DejaVuSerif-41" x="329.65625"/>
      <use xlink:href="#DejaVuSerif-4d" x="401.873047"/>
      <use xlink:href="#DejaVuSerif-5f" x="504.265625"/>
      <use xlink:href="#DejaVuSerif-43" x="554.265625"/>
      <use xlink:href="#DejaVuSerif-50" x="630.779297"/>
      <use xlink:href="#DejaVuSerif-55" x="696.314453"/>
     </g>
    </g>
    <g id="line2d_17">
     <path d="M 557.158922 342.21607 
L 575.858922 342.21607 
L 594.558922 342.21607 
" style="fill: none; stroke: #55a868; stroke-opacity: 0.74902; stroke-width: 1.3; stroke-linecap: round"/>
    </g>
    <g id="text_17">
     <!-- DH-PTAM_GPU -->
     <g style="fill: #262626" transform="translate(609.518922 348.76107) scale(0.187 -0.187)">
      <defs>
       <path id="DejaVuSerif-47" d="M 4097 3272 
Q 3988 3856 3641 4136 
Q 3294 4416 2675 4416 
Q 1869 4416 1472 3897 
Q 1075 3378 1075 2328 
Q 1075 1300 1484 772 
Q 1894 244 2688 244 
Q 3041 244 3362 331 
Q 3684 419 3975 594 
L 3975 1797 
L 3097 1797 
L 3097 2131 
L 4609 2131 
L 4609 391 
Q 4194 150 3714 29 
Q 3234 -91 2688 -91 
Q 1631 -91 995 570 
Q 359 1231 359 2328 
Q 359 3434 996 4092 
Q 1634 4750 2713 4750 
Q 3113 4750 3539 4658 
Q 3966 4566 4447 4378 
L 4447 3272 
L 4097 3272 
z
" transform="scale(0.015625)"/>
      </defs>
      <use xlink:href="#DejaVuSerif-44"/>
      <use xlink:href="#DejaVuSerif-48" x="80.175781"/>
      <use xlink:href="#DejaVuSerif-2d" x="167.382812"/>
      <use xlink:href="#DejaVuSerif-50" x="201.171875"/>
      <use xlink:href="#DejaVuSerif-54" x="268.457031"/>
      <use xlink:href="#DejaVuSerif-41" x="329.65625"/>
      <use xlink:href="#DejaVuSerif-4d" x="401.873047"/>
      <use xlink:href="#DejaVuSerif-5f" x="504.265625"/>
      <use xlink:href="#DejaVuSerif-47" x="554.265625"/>
      <use xlink:href="#DejaVuSerif-50" x="634.148438"/>
      <use xlink:href="#DejaVuSerif-55" x="699.683594"/>
     </g>
    </g>
   </g>
  </g>
 </g>
 <defs>
  <clipPath id="p00cb99c76e">
   <rect x="337.292404" y="43.152" width="638.695192" height="545.736"/>
  </clipPath>
 </defs>
</svg>
