<?xml version="1.0" encoding="utf-8" standalone="no"?>
<!DOCTYPE svg PUBLIC "-//W3C//DTD SVG 1.1//EN"
  "http://www.w3.org/Graphics/SVG/1.1/DTD/svg11.dtd">
<svg xmlns:xlink="http://www.w3.org/1999/xlink" width="1313.28pt" height="663.84pt" viewBox="0 0 1313.28 663.84" xmlns="http://www.w3.org/2000/svg" version="1.1">
 <metadata>
  <rdf:RDF xmlns:dc="http://purl.org/dc/elements/1.1/" xmlns:cc="http://creativecommons.org/ns#" xmlns:rdf="http://www.w3.org/1999/02/22-rdf-syntax-ns#">
   <cc:Work>
    <dc:type rdf:resource="http://purl.org/dc/dcmitype/StillImage"/>
    <dc:date>2023-03-02T11:06:58.668834</dc:date>
    <dc:format>image/svg+xml</dc:format>
    <dc:creator>
     <cc:Agent>
      <dc:title>Matplotlib v3.7.0, https://matplotlib.org/</dc:title>
     </cc:Agent>
    </dc:creator>
   </cc:Work>
  </rdf:RDF>
 </metadata>
 <defs>
  <style type="text/css">*{stroke-linejoin: round; stroke-linecap: butt}</style>
 </defs>
 <g id="figure_1">
  <g id="patch_1">
   <path d="M 0 663.84 
L 1313.28 663.84 
L 1313.28 0 
L 0 0 
z
" style="fill: #ffffff"/>
  </g>
  <g id="axes_1">
   <g id="patch_2">
    <path d="M 290.282097 588.888 
L 1022.997903 588.888 
L 1022.997903 43.152 
L 290.282097 43.152 
z
" style="fill: #ffffff"/>
   </g>
   <g id="matplotlib.axis_1">
    <g id="xtick_1">
     <g id="line2d_1">
      <path d="M 375.051209 588.888 
L 375.051209 43.152 
" clip-path="url(#pff18be900f)" style="fill: none; stroke: #cccccc; stroke-linecap: round"/>
     </g>
     <g id="text_1">
      <!-- 0 -->
      <g style="fill: #262626" transform="translate(369.102272 612.597078) scale(0.187 -0.187)">
       <defs>
        <path id="DejaVuSerif-30" d="M 2034 219 
Q 2513 219 2750 744 
Q 2988 1269 2988 2328 
Q 2988 3391 2750 3916 
Q 2513 4441 2034 4441 
Q 1556 4441 1318 3916 
Q 1081 3391 1081 2328 
Q 1081 1269 1318 744 
Q 1556 219 2034 219 
z
M 2034 -91 
Q 1275 -91 848 546 
Q 422 1184 422 2328 
Q 422 3475 848 4112 
Q 1275 4750 2034 4750 
Q 2797 4750 3222 4112 
Q 3647 3475 3647 2328 
Q 3647 1184 3222 546 
Q 2797 -91 2034 -91 
z
" transform="scale(0.015625)"/>
       </defs>
       <use xlink:href="#DejaVuSerif-30"/>
      </g>
     </g>
    </g>
    <g id="xtick_2">
     <g id="line2d_2">
      <path d="M 472.303561 588.888 
L 472.303561 43.152 
" clip-path="url(#pff18be900f)" style="fill: none; stroke: #cccccc; stroke-linecap: round"/>
     </g>
     <g id="text_2">
      <!-- 10 -->
      <g style="fill: #262626" transform="translate(460.405686 612.597078) scale(0.187 -0.187)">
       <defs>
        <path id="DejaVuSerif-31" d="M 909 0 
L 909 331 
L 1722 331 
L 1722 4213 
L 781 3603 
L 781 4013 
L 1919 4750 
L 2350 4750 
L 2350 331 
L 3163 331 
L 3163 0 
L 909 0 
z
" transform="scale(0.015625)"/>
       </defs>
       <use xlink:href="#DejaVuSerif-31"/>
       <use xlink:href="#DejaVuSerif-30" x="63.623047"/>
      </g>
     </g>
    </g>
    <g id="xtick_3">
     <g id="line2d_3">
      <path d="M 569.555912 588.888 
L 569.555912 43.152 
" clip-path="url(#pff18be900f)" style="fill: none; stroke: #cccccc; stroke-linecap: round"/>
     </g>
     <g id="text_3">
      <!-- 20 -->
      <g style="fill: #262626" transform="translate(557.658037 612.597078) scale(0.187 -0.187)">
       <defs>
        <path id="DejaVuSerif-32" d="M 819 3553 
L 469 3553 
L 469 4384 
Q 803 4563 1142 4656 
Q 1481 4750 1806 4750 
Q 2534 4750 2956 4397 
Q 3378 4044 3378 3438 
Q 3378 2753 2422 1800 
Q 2347 1728 2309 1691 
L 1131 513 
L 3078 513 
L 3078 1088 
L 3444 1088 
L 3444 0 
L 434 0 
L 434 341 
L 1850 1753 
Q 2319 2222 2519 2614 
Q 2719 3006 2719 3438 
Q 2719 3909 2473 4175 
Q 2228 4441 1797 4441 
Q 1350 4441 1106 4219 
Q 863 3997 819 3553 
z
" transform="scale(0.015625)"/>
       </defs>
       <use xlink:href="#DejaVuSerif-32"/>
       <use xlink:href="#DejaVuSerif-30" x="63.623047"/>
      </g>
     </g>
    </g>
    <g id="xtick_4">
     <g id="line2d_4">
      <path d="M 666.808264 588.888 
L 666.808264 43.152 
" clip-path="url(#pff18be900f)" style="fill: none; stroke: #cccccc; stroke-linecap: round"/>
     </g>
     <g id="text_4">
      <!-- 30 -->
      <g style="fill: #262626" transform="translate(654.910389 612.597078) scale(0.187 -0.187)">
       <defs>
        <path id="DejaVuSerif-33" d="M 622 4469 
Q 988 4606 1323 4678 
Q 1659 4750 1953 4750 
Q 2638 4750 3022 4454 
Q 3406 4159 3406 3634 
Q 3406 3213 3140 2930 
Q 2875 2647 2388 2547 
Q 2963 2466 3280 2130 
Q 3597 1794 3597 1259 
Q 3597 606 3158 257 
Q 2719 -91 1894 -91 
Q 1528 -91 1179 -12 
Q 831 66 488 225 
L 488 1131 
L 838 1131 
Q 869 681 1141 450 
Q 1413 219 1906 219 
Q 2384 219 2661 495 
Q 2938 772 2938 1253 
Q 2938 1803 2653 2086 
Q 2369 2369 1819 2369 
L 1522 2369 
L 1522 2688 
L 1678 2688 
Q 2225 2688 2498 2914 
Q 2772 3141 2772 3597 
Q 2772 4006 2547 4223 
Q 2322 4441 1900 4441 
Q 1478 4441 1245 4241 
Q 1013 4041 972 3647 
L 622 3647 
L 622 4469 
z
" transform="scale(0.015625)"/>
       </defs>
       <use xlink:href="#DejaVuSerif-33"/>
       <use xlink:href="#DejaVuSerif-30" x="63.623047"/>
      </g>
     </g>
    </g>
    <g id="xtick_5">
     <g id="line2d_5">
      <path d="M 764.060615 588.888 
L 764.060615 43.152 
" clip-path="url(#pff18be900f)" style="fill: none; stroke: #cccccc; stroke-linecap: round"/>
     </g>
     <g id="text_5">
      <!-- 40 -->
      <g style="fill: #262626" transform="translate(752.16274 612.597078) scale(0.187 -0.187)">
       <defs>
        <path id="DejaVuSerif-34" d="M 2234 1581 
L 2234 4063 
L 641 1581 
L 2234 1581 
z
M 3609 0 
L 1484 0 
L 1484 331 
L 2234 331 
L 2234 1247 
L 197 1247 
L 197 1588 
L 2241 4750 
L 2859 4750 
L 2859 1581 
L 3750 1581 
L 3750 1247 
L 2859 1247 
L 2859 331 
L 3609 331 
L 3609 0 
z
" transform="scale(0.015625)"/>
       </defs>
       <use xlink:href="#DejaVuSerif-34"/>
       <use xlink:href="#DejaVuSerif-30" x="63.623047"/>
      </g>
     </g>
    </g>
    <g id="xtick_6">
     <g id="line2d_6">
      <path d="M 861.312967 588.888 
L 861.312967 43.152 
" clip-path="url(#pff18be900f)" style="fill: none; stroke: #cccccc; stroke-linecap: round"/>
     </g>
     <g id="text_6">
      <!-- 50 -->
      <g style="fill: #262626" transform="translate(849.415092 612.597078) scale(0.187 -0.187)">
       <defs>
        <path id="DejaVuSerif-35" d="M 3219 4666 
L 3219 4153 
L 1081 4153 
L 1081 2816 
Q 1244 2928 1461 2984 
Q 1678 3041 1947 3041 
Q 2703 3041 3140 2622 
Q 3578 2203 3578 1478 
Q 3578 738 3136 323 
Q 2694 -91 1894 -91 
Q 1572 -91 1234 -12 
Q 897 66 544 225 
L 544 1131 
L 897 1131 
Q 925 688 1179 453 
Q 1434 219 1894 219 
Q 2388 219 2653 544 
Q 2919 869 2919 1478 
Q 2919 2084 2655 2407 
Q 2391 2731 1894 2731 
Q 1613 2731 1398 2631 
Q 1184 2531 1019 2322 
L 750 2322 
L 750 4666 
L 3219 4666 
z
" transform="scale(0.015625)"/>
       </defs>
       <use xlink:href="#DejaVuSerif-35"/>
       <use xlink:href="#DejaVuSerif-30" x="63.623047"/>
      </g>
     </g>
    </g>
    <g id="xtick_7">
     <g id="line2d_7">
      <path d="M 958.565318 588.888 
L 958.565318 43.152 
" clip-path="url(#pff18be900f)" style="fill: none; stroke: #cccccc; stroke-linecap: round"/>
     </g>
     <g id="text_7">
      <!-- 60 -->
      <g style="fill: #262626" transform="translate(946.667443 612.597078) scale(0.187 -0.187)">
       <defs>
        <path id="DejaVuSerif-36" d="M 2094 219 
Q 2534 219 2771 542 
Q 3009 866 3009 1472 
Q 3009 2078 2771 2401 
Q 2534 2725 2094 2725 
Q 1647 2725 1412 2412 
Q 1178 2100 1178 1509 
Q 1178 888 1415 553 
Q 1653 219 2094 219 
z
M 1075 2569 
Q 1288 2803 1556 2918 
Q 1825 3034 2163 3034 
Q 2859 3034 3264 2615 
Q 3669 2197 3669 1472 
Q 3669 763 3233 336 
Q 2797 -91 2069 -91 
Q 1278 -91 853 498 
Q 428 1088 428 2181 
Q 428 3406 931 4078 
Q 1434 4750 2350 4750 
Q 2597 4750 2869 4703 
Q 3141 4656 3425 4563 
L 3425 3794 
L 3072 3794 
Q 3034 4109 2831 4275 
Q 2628 4441 2284 4441 
Q 1678 4441 1381 3981 
Q 1084 3522 1075 2569 
z
" transform="scale(0.015625)"/>
       </defs>
       <use xlink:href="#DejaVuSerif-36"/>
       <use xlink:href="#DejaVuSerif-30" x="63.623047"/>
      </g>
     </g>
    </g>
    <g id="text_8">
     <!-- $x$ (m) -->
     <g style="fill: #262626" transform="translate(629.712 635.986906) scale(0.204 -0.204)">
      <defs>
       <path id="DejaVuSans-Oblique-78" d="M 3841 3500 
L 2234 1784 
L 3219 0 
L 2559 0 
L 1819 1388 
L 531 0 
L -166 0 
L 1556 1844 
L 641 3500 
L 1300 3500 
L 1972 2234 
L 3144 3500 
L 3841 3500 
z
" transform="scale(0.015625)"/>
       <path id="DejaVuSerif-20" transform="scale(0.015625)"/>
       <path id="DejaVuSerif-28" d="M 2041 -997 
Q 1281 -656 893 83 
Q 506 822 506 1931 
Q 506 3044 893 3783 
Q 1281 4522 2041 4863 
L 2041 4556 
Q 1559 4225 1350 3623 
Q 1141 3022 1141 1931 
Q 1141 844 1350 242 
Q 1559 -359 2041 -691 
L 2041 -997 
z
" transform="scale(0.015625)"/>
       <path id="DejaVuSerif-6d" d="M 3316 2675 
Q 3481 3041 3739 3227 
Q 3997 3413 4341 3413 
Q 4863 3413 5119 3089 
Q 5375 2766 5375 2113 
L 5375 331 
L 5894 331 
L 5894 0 
L 4300 0 
L 4300 331 
L 4800 331 
L 4800 2047 
Q 4800 2556 4650 2772 
Q 4500 2988 4153 2988 
Q 3769 2988 3567 2697 
Q 3366 2406 3366 1850 
L 3366 331 
L 3866 331 
L 3866 0 
L 2291 0 
L 2291 331 
L 2791 331 
L 2791 2069 
Q 2791 2566 2641 2777 
Q 2491 2988 2144 2988 
Q 1759 2988 1557 2697 
Q 1356 2406 1356 1850 
L 1356 331 
L 1856 331 
L 1856 0 
L 263 0 
L 263 331 
L 781 331 
L 781 2994 
L 231 2994 
L 231 3322 
L 1356 3322 
L 1356 2731 
Q 1516 3063 1762 3238 
Q 2009 3413 2322 3413 
Q 2709 3413 2968 3220 
Q 3228 3028 3316 2675 
z
" transform="scale(0.015625)"/>
       <path id="DejaVuSerif-29" d="M 453 -997 
L 453 -691 
Q 934 -359 1145 242 
Q 1356 844 1356 1931 
Q 1356 3022 1145 3623 
Q 934 4225 453 4556 
L 453 4863 
Q 1216 4522 1603 3783 
Q 1991 3044 1991 1931 
Q 1991 822 1603 83 
Q 1216 -656 453 -997 
z
" transform="scale(0.015625)"/>
      </defs>
      <use xlink:href="#DejaVuSans-Oblique-78" transform="translate(0 0.015625)"/>
      <use xlink:href="#DejaVuSerif-20" transform="translate(59.179688 0.015625)"/>
      <use xlink:href="#DejaVuSerif-28" transform="translate(90.966797 0.015625)"/>
      <use xlink:href="#DejaVuSerif-6d" transform="translate(129.980469 0.015625)"/>
      <use xlink:href="#DejaVuSerif-29" transform="translate(224.804688 0.015625)"/>
     </g>
    </g>
   </g>
   <g id="matplotlib.axis_2">
    <g id="ytick_1">
     <g id="line2d_8">
      <path d="M 290.282097 507.019005 
L 1022.997903 507.019005 
" clip-path="url(#pff18be900f)" style="fill: none; stroke: #cccccc; stroke-linecap: round"/>
     </g>
     <g id="text_9">
      <!-- −30 -->
      <g style="fill: #262626" transform="translate(241.316331 514.123544) scale(0.187 -0.187)">
       <defs>
        <path id="DejaVuSerif-2212" d="M 678 2259 
L 4684 2259 
L 4684 1753 
L 678 1753 
L 678 2259 
z
" transform="scale(0.015625)"/>
       </defs>
       <use xlink:href="#DejaVuSerif-2212"/>
       <use xlink:href="#DejaVuSerif-33" x="83.789062"/>
       <use xlink:href="#DejaVuSerif-30" x="147.412109"/>
      </g>
     </g>
    </g>
    <g id="ytick_2">
     <g id="line2d_9">
      <path d="M 290.282097 409.766654 
L 1022.997903 409.766654 
" clip-path="url(#pff18be900f)" style="fill: none; stroke: #cccccc; stroke-linecap: round"/>
     </g>
     <g id="text_10">
      <!-- −20 -->
      <g style="fill: #262626" transform="translate(241.316331 416.871193) scale(0.187 -0.187)">
       <use xlink:href="#DejaVuSerif-2212"/>
       <use xlink:href="#DejaVuSerif-32" x="83.789062"/>
       <use xlink:href="#DejaVuSerif-30" x="147.412109"/>
      </g>
     </g>
    </g>
    <g id="ytick_3">
     <g id="line2d_10">
      <path d="M 290.282097 312.514302 
L 1022.997903 312.514302 
" clip-path="url(#pff18be900f)" style="fill: none; stroke: #cccccc; stroke-linecap: round"/>
     </g>
     <g id="text_11">
      <!-- −10 -->
      <g style="fill: #262626" transform="translate(241.316331 319.618841) scale(0.187 -0.187)">
       <use xlink:href="#DejaVuSerif-2212"/>
       <use xlink:href="#DejaVuSerif-31" x="83.789062"/>
       <use xlink:href="#DejaVuSerif-30" x="147.412109"/>
      </g>
     </g>
    </g>
    <g id="ytick_4">
     <g id="line2d_11">
      <path d="M 290.282097 215.261951 
L 1022.997903 215.261951 
" clip-path="url(#pff18be900f)" style="fill: none; stroke: #cccccc; stroke-linecap: round"/>
     </g>
     <g id="text_12">
      <!-- 0 -->
      <g style="fill: #262626" transform="translate(268.884222 222.36649) scale(0.187 -0.187)">
       <use xlink:href="#DejaVuSerif-30"/>
      </g>
     </g>
    </g>
    <g id="ytick_5">
     <g id="line2d_12">
      <path d="M 290.282097 118.009599 
L 1022.997903 118.009599 
" clip-path="url(#pff18be900f)" style="fill: none; stroke: #cccccc; stroke-linecap: round"/>
     </g>
     <g id="text_13">
      <!-- 10 -->
      <g style="fill: #262626" transform="translate(256.986347 125.114138) scale(0.187 -0.187)">
       <use xlink:href="#DejaVuSerif-31"/>
       <use xlink:href="#DejaVuSerif-30" x="63.623047"/>
      </g>
     </g>
    </g>
    <g id="text_14">
     <!-- $y$ (m) -->
     <g style="fill: #262626" transform="translate(233.032331 342.948) rotate(-90) scale(0.204 -0.204)">
      <defs>
       <path id="DejaVuSans-Oblique-79" d="M 1588 -325 
Q 1188 -997 936 -1164 
Q 684 -1331 294 -1331 
L -159 -1331 
L -63 -850 
L 269 -850 
Q 509 -850 678 -719 
Q 847 -588 1056 -206 
L 1234 128 
L 459 3500 
L 1069 3500 
L 1650 819 
L 3256 3500 
L 3859 3500 
L 1588 -325 
z
" transform="scale(0.015625)"/>
      </defs>
      <use xlink:href="#DejaVuSans-Oblique-79" transform="translate(0 0.015625)"/>
      <use xlink:href="#DejaVuSerif-20" transform="translate(59.179688 0.015625)"/>
      <use xlink:href="#DejaVuSerif-28" transform="translate(90.966797 0.015625)"/>
      <use xlink:href="#DejaVuSerif-6d" transform="translate(129.980469 0.015625)"/>
      <use xlink:href="#DejaVuSerif-29" transform="translate(224.804688 0.015625)"/>
     </g>
    </g>
   </g>
   <g id="line2d_13">
    <path d="M 909.057973 400.518164 
L 909.027135 400.62995 
L 909.622975 398.473803 
L 909.199247 397.078156 
L 909.482195 396.393398 
L 909.418942 395.667905 
L 910.339228 392.510853 
L 911.422485 390.394747 
L 911.244502 389.343312 
L 911.645884 387.944818 
L 912.072094 386.047116 
L 912.267834 384.254367 
L 913.422179 382.403143 
L 913.564292 379.301728 
L 914.507229 377.675709 
L 914.754083 375.019662 
L 914.735361 373.815885 
L 918.156213 368.351745 
L 919.699525 368.559091 
L 920.585321 367.440676 
L 920.858183 364.897349 
L 921.28041 363.428479 
L 921.266589 361.988976 
L 922.133613 359.653685 
L 922.704939 357.273202 
L 923.077526 355.090766 
L 923.717771 352.401321 
L 924.460943 348.341125 
L 925.597858 343.300208 
L 925.815507 340.69347 
L 926.609956 335.370641 
L 926.414727 333.967727 
L 926.816384 328.143823 
L 926.586597 326.122731 
L 926.603023 323.253908 
L 926.110575 321.78611 
L 925.888965 319.089818 
L 925.174152 313.735937 
L 924.275575 312.232341 
L 922.650978 307.576675 
L 921.709193 305.309674 
L 920.572903 303.184709 
L 919.710315 300.371571 
L 918.33799 298.539968 
L 916.896257 296.935127 
L 915.749338 295.088013 
L 912.749643 291.372542 
L 911.086222 289.767216 
L 909.308842 288.417425 
L 907.387974 287.324997 
L 905.783756 285.467301 
L 903.417678 284.099621 
L 901.457049 283.461982 
L 899.73091 282.213866 
L 897.336976 281.905863 
L 895.204817 280.739854 
L 893.038258 280.009495 
L 890.450909 280.075763 
L 888.217451 279.841244 
L 886.022908 279.755461 
L 883.825096 280.432033 
L 881.181124 280.196577 
L 878.88098 281.103723 
L 876.428645 281.039291 
L 871.367825 283.303025 
L 869.187522 283.940978 
L 867.164987 284.163846 
L 862.359583 287.87116 
L 858.014389 290.864017 
L 856.222409 291.680296 
L 850.120454 297.975899 
L 848.364603 299.617595 
L 846.417206 302.478381 
L 843.138216 305.799347 
L 839.606767 311.369919 
L 838.01841 313.629568 
L 836.106418 316.934321 
L 834.37455 318.487634 
L 832.694607 321.702562 
L 831.525716 323.682182 
L 829.262408 326.887724 
L 828.371571 328.87766 
L 825.136472 334.657576 
L 823.704079 336.907319 
L 822.483509 339.630854 
L 820.860067 341.955651 
L 818.627798 346.652319 
L 817.712713 349.271771 
L 816.375015 351.842793 
L 815.193195 354.624163 
L 813.962062 356.86138 
L 813.204637 359.278957 
L 812.118091 361.66101 
L 810.986935 364.6559 
L 806.99473 373.420704 
L 801.4547 385.73051 
L 800.132714 387.415822 
L 799.457131 389.18226 
L 796.667343 391.852823 
L 795.717428 393.11014 
L 792.257556 394.69656 
L 790.660029 395.30314 
L 789.701473 395.982357 
L 785.798256 396.705294 
L 783.742044 396.417274 
L 780.658343 395.31039 
L 780.075569 394.79041 
L 778.927978 394.028408 
L 778.552877 393.007103 
L 777.777725 391.987041 
L 777.314682 390.914224 
L 777.023013 389.314799 
L 776.388417 387.994154 
L 776.243122 386.763988 
L 775.892735 385.416507 
L 776.248633 383.703509 
L 776.361189 382.073016 
L 776.345087 379.907528 
L 776.822444 378.044397 
L 776.721625 376.401931 
L 776.910803 374.837083 
L 777.686353 370.914426 
L 778.789671 368.039922 
L 781.00451 359.175118 
L 783.314034 351.648832 
L 785.027837 346.573801 
L 786.719664 342.843786 
L 786.888404 341.464518 
L 787.124493 340.657392 
L 789.376892 333.839149 
L 789.832279 332.115373 
L 791.850619 326.129517 
L 794.365082 318.890916 
L 796.263136 312.883244 
L 796.9473 310.149431 
L 797.658151 307.939025 
L 798.097813 305.547318 
L 798.374825 301.34285 
L 799.032617 297.013691 
L 798.627887 292.446919 
L 798.518576 289.850791 
L 797.372451 284.750235 
L 797.20537 282.763249 
L 796.243357 279.692071 
L 794.173001 274.872874 
L 791.74391 270.024459 
L 789.410217 267.792607 
L 788.289749 265.565042 
L 786.32049 263.35168 
L 784.685459 261.231148 
L 782.646952 259.154116 
L 780.676237 257.863553 
L 776.306518 253.484053 
L 774.080798 252.202007 
L 771.773922 250.653467 
L 769.382432 248.736201 
L 766.451117 246.658728 
L 761.295068 243.881845 
L 758.294276 242.063129 
L 755.159762 241.02158 
L 752.263859 239.451365 
L 749.437366 238.050994 
L 746.594901 237.264151 
L 743.788119 235.072839 
L 737.633021 232.928137 
L 734.092118 231.37882 
L 731.150593 229.478761 
L 727.497365 228.351538 
L 724.711732 227.934507 
L 720.961614 226.668131 
L 718.294864 225.259713 
L 714.955933 223.718953 
L 711.597946 223.272758 
L 708.589287 221.576325 
L 701.891476 219.438469 
L 697.997706 218.623318 
L 695.064952 217.617254 
L 691.27516 216.520479 
L 687.267168 215.500498 
L 683.939088 214.065463 
L 677.395879 212.449859 
L 674.889151 211.528643 
L 671.331515 210.539296 
L 668.130586 209.787322 
L 665.026781 208.90296 
L 661.5127 207.692246 
L 658.665329 207.358953 
L 652.705359 204.832608 
L 649.481724 204.171382 
L 646.446051 203.264306 
L 642.778525 202.381526 
L 639.767544 201.792624 
L 636.473609 201.363251 
L 634.001609 200.712276 
L 631.232384 200.118038 
L 628.128009 200.133116 
L 625.925681 199.456246 
L 611.6435 198.92078 
L 606.25527 199.415967 
L 603.85264 200.378123 
L 600.610522 200.649718 
L 598.428647 201.111142 
L 596.46537 201.939522 
L 593.854485 202.519982 
L 591.027452 203.478877 
L 588.807406 204.544958 
L 584.795506 206.226607 
L 580.804994 209.153001 
L 578.565684 210.452411 
L 576.140132 212.463667 
L 575.116557 214.118814 
L 573.467629 215.74449 
L 570.362882 219.762272 
L 569.448875 220.522608 
L 564.476961 231.178326 
L 562.198054 237.08931 
L 560.541353 242.080379 
L 558.801296 247.936616 
L 558.250995 250.066198 
L 557.013677 253.412166 
L 556.742847 255.438804 
L 555.931099 257.90667 
L 554.100223 265.306915 
L 553.074253 267.926717 
L 552.281607 271.22182 
L 552.046134 272.835268 
L 551.205159 275.328649 
L 549.962215 279.766867 
L 546.915653 288.585063 
L 546.308138 290.710244 
L 545.598998 292.776527 
L 544.175542 298.624621 
L 543.703989 299.848284 
L 543.242099 302.180421 
L 543.169019 304.29099 
L 542.944071 305.954279 
L 542.937176 307.715124 
L 542.598124 309.268812 
L 543.576575 310.726812 
L 543.755141 312.031112 
L 544.796227 314.663147 
L 545.003479 315.728161 
L 545.931811 316.841293 
L 546.714062 317.579955 
L 549.389268 319.014585 
L 552.512752 319.475512 
L 552.799911 319.035978 
L 554.559077 318.782341 
L 555.722203 318.319358 
L 556.751166 317.602773 
L 558.081394 316.961368 
L 558.579145 315.730312 
L 559.626931 314.787177 
L 561.424003 312.08487 
L 561.980522 310.355937 
L 562.917829 308.682536 
L 564.493145 306.720681 
L 566.208606 303.96204 
L 567.036634 301.737405 
L 569.010873 299.905868 
L 570.867875 296.599803 
L 571.565898 294.460786 
L 573.163169 291.659638 
L 575.230007 289.90337 
L 576.655188 288.397972 
L 578.297856 286.271899 
L 581.600185 282.937529 
L 583.334434 281.370402 
L 585.203141 280.103136 
L 587.1641 278.383594 
L 589.143429 277.373085 
L 591.476336 276.771972 
L 593.655011 275.876997 
L 595.528503 274.836872 
L 598.178143 273.645353 
L 600.391659 273.584587 
L 605.202106 272.726858 
L 608.195073 272.416407 
L 610.484273 272.517105 
L 612.686411 272.26785 
L 615.047296 272.68136 
L 617.347122 272.963975 
L 622.995283 274.141073 
L 628.295033 276.198299 
L 631.341921 277.598672 
L 632.893636 278.586798 
L 634.743466 279.944169 
L 636.362519 281.452796 
L 638.128099 282.777662 
L 639.231989 284.637142 
L 641.320155 286.160256 
L 643.713375 289.540248 
L 644.437724 291.562784 
L 645.550799 293.805815 
L 646.572392 295.562464 
L 647.956332 297.695248 
L 647.543161 300.150253 
L 647.665446 302.27808 
L 648.36562 304.562483 
L 649.041959 309.069151 
L 648.647291 311.12288 
L 648.923193 313.576972 
L 648.697114 315.778727 
L 648.302806 318.058208 
L 648.470012 320.37424 
L 647.664564 324.757989 
L 647.433885 326.693858 
L 646.910195 328.768594 
L 647.199046 333.018108 
L 646.225503 334.781648 
L 646.671292 336.852898 
L 646.15651 338.624104 
L 645.847368 340.379341 
L 646.3636 342.32807 
L 646.265454 343.762909 
L 646.9383 345.790783 
L 647.096889 347.113728 
L 647.088613 348.709089 
L 648.4752 350.434689 
L 648.184855 351.522767 
L 649.261039 353.56286 
L 650.260977 354.797115 
L 653.139225 357.109075 
L 654.559011 357.518148 
L 655.581869 357.611173 
L 659.828069 357.106512 
L 660.708589 356.549704 
L 661.438445 355.705448 
L 662.555143 354.929466 
L 663.549867 353.909792 
L 664.718193 353.200698 
L 665.634667 352.06196 
L 666.905274 350.733366 
L 667.478945 349.313047 
L 667.778482 347.777633 
L 669.431046 346.119454 
L 670.571803 344.40716 
L 671.467268 342.770518 
L 672.620968 341.171882 
L 673.33632 339.576635 
L 674.66244 337.700852 
L 675.327816 335.714368 
L 676.929264 334.186574 
L 677.998505 332.940419 
L 679.484191 330.667173 
L 680.823084 328.870494 
L 682.227083 327.413309 
L 683.646578 325.093154 
L 685.363615 323.507854 
L 686.376794 321.96116 
L 688.247008 320.265565 
L 690.473003 318.935151 
L 694.148592 316.190111 
L 698.059102 313.9887 
L 700.020159 313.022412 
L 704.253439 311.338493 
L 710.825069 309.503211 
L 712.930598 309.135076 
L 715.975396 309.029676 
L 718.094774 308.581185 
L 722.819234 308.958111 
L 727.310819 309.509506 
L 730.036456 310.117564 
L 733.929297 311.480241 
L 737.106548 312.586162 
L 738.282056 313.219344 
L 741.264545 314.50886 
L 743.274658 315.627222 
L 745.125008 316.860387 
L 746.125568 317.999187 
L 749.929213 321.166234 
L 750.648879 322.616904 
L 752.328859 325.086283 
L 753.59973 326.568788 
L 754.206794 328.644227 
L 755.582832 330.981173 
L 755.607526 332.802267 
L 756.28761 334.949279 
L 757.285089 337.364094 
L 757.527945 340.101883 
L 758.560339 343.946608 
L 758.547073 346.151677 
L 758.141838 348.428469 
L 758.477533 350.919507 
L 758.102496 353.080654 
L 758.093571 355.422052 
L 757.057053 357.387831 
L 756.409978 359.845028 
L 756.282224 361.976802 
L 754.442389 367.771569 
L 751.837234 371.354536 
L 751.072712 373.249849 
L 750.231002 374.683913 
L 748.944895 375.916004 
L 747.060452 376.884928 
L 744.723478 379.49964 
L 743.038418 380.482168 
L 740.620288 381.103168 
L 738.769007 381.742329 
L 736.900797 382.235143 
L 734.961645 382.61498 
L 732.940831 382.826471 
L 730.606858 382.854284 
L 729.448311 383.156512 
L 723.804513 382.40748 
L 720.62227 381.678224 
L 719.661113 381.727126 
L 711.129628 379.798954 
L 703.747225 377.692185 
L 703.958644 377.636004 
L 694.411404 374.475588 
L 675.045549 367.367942 
L 656.86159 361.128846 
L 648.579942 358.327922 
L 643.444091 356.619205 
L 614.01038 347.720117 
L 595.881799 342.416441 
L 592.496048 341.342434 
L 590.911286 340.970132 
L 558.301762 331.40185 
L 552.987784 329.692842 
L 550.898979 328.854978 
L 548.479597 328.348543 
L 543.978249 326.890719 
L 541.734452 325.938664 
L 538.963384 325.114976 
L 535.200179 323.584255 
L 532.643672 322.518004 
L 528.832011 320.573024 
L 527.531683 319.624293 
L 525.557654 318.446189 
L 524.309441 317.357895 
L 522.737652 316.179019 
L 520.58754 313.697366 
L 519.502102 312.197177 
L 518.023326 309.100982 
L 517.026826 305.838131 
L 516.962181 302.11536 
L 516.653109 300.561153 
L 516.253523 297.794896 
L 516.425127 296.438531 
L 516.601261 292.467941 
L 517.150937 289.792631 
L 517.126556 288.547818 
L 517.402507 286.854764 
L 517.604799 284.700064 
L 518.05429 282.492904 
L 518.746327 280.317393 
L 519.474738 275.701364 
L 521.757226 267.013656 
L 522.253732 264.778306 
L 523.055639 261.909348 
L 524.207769 256.57876 
L 525.410008 254.084663 
L 525.376504 251.570693 
L 526.537389 248.329149 
L 527.085086 245.501066 
L 527.303638 243.392446 
L 528.084442 240.072432 
L 529.210025 237.66039 
L 529.306713 234.45645 
L 531.22205 228.124375 
L 531.659893 225.107981 
L 532.248979 222.728087 
L 532.661024 219.657374 
L 533.459786 216.322345 
L 534.099064 210.377715 
L 534.657749 207.180789 
L 534.502428 204.816258 
L 534.619053 189.337127 
L 533.963359 184.010259 
L 533.998722 182.317021 
L 532.713865 177.987268 
L 532.670013 176.079348 
L 532.213092 172.822558 
L 531.687391 170.297812 
L 530.726909 168.174086 
L 530.465194 165.634817 
L 529.210698 163.427222 
L 527.285797 158.153079 
L 525.195169 154.352678 
L 523.486548 152.1127 
L 522.095887 150.098077 
L 520.601573 148.224239 
L 517.393854 144.767783 
L 515.718144 143.003039 
L 514.071057 141.590538 
L 510.740978 139.184719 
L 508.129906 138.027146 
L 506.040383 137.387686 
L 504.266857 136.592489 
L 501.811822 136.167386 
L 497.996294 135.215174 
L 495.306105 135.300019 
L 493.866902 135.578955 
L 490.95658 135.780666 
L 489.27417 136.7195 
L 484.599021 137.310002 
L 482.530495 138.456116 
L 480.504149 139.390027 
L 478.413725 140.5848 
L 476.552425 141.817728 
L 474.666415 143.349424 
L 472.996896 144.947165 
L 471.646138 146.607503 
L 470.248881 147.711008 
L 467.116898 152.291205 
L 466.146027 153.789268 
L 464.997585 155.94932 
L 462.816046 160.772367 
L 460.816343 165.917727 
L 460.088851 168.322736 
L 459.153071 170.907545 
L 458.346481 173.536651 
L 453.954845 191.866264 
L 453.119346 194.679291 
L 452.516824 197.117724 
L 451.096085 202.393066 
L 450.566489 204.83861 
L 449.140704 208.66918 
L 448.265432 211.316779 
L 446.430277 215.704478 
L 445.557179 217.22764 
L 444.450491 220.064232 
L 443.579327 221.336221 
L 442.240746 224.527021 
L 441.143446 225.897012 
L 439.342127 228.526514 
L 438.491489 230.12611 
L 437.015693 232.528083 
L 435.715322 234.03532 
L 434.050182 235.725887 
L 432.913475 238.024726 
L 431.63488 240.065388 
L 429.985168 241.52195 
L 428.79648 243.434625 
L 428.133913 245.197327 
L 425.374235 249.045893 
L 423.799704 252.619712 
L 422.780017 256.686961 
L 422.150328 260.923807 
L 422.199443 265.140669 
L 422.476507 267.300536 
L 422.882053 269.426708 
L 423.439038 271.363965 
L 424.474388 272.933537 
L 425.27356 275.161868 
L 426.362088 277.031058 
L 427.614007 278.792477 
L 430.122562 282.663755 
L 431.603217 284.303551 
L 433.733602 285.84352 
L 436.935014 288.748059 
L 438.958862 290.084951 
L 446.031268 293.62338 
L 451.386256 295.661447 
L 456.842514 297.592837 
L 465.836569 300.505453 
L 474.617349 303.247944 
L 484.18868 305.69117 
L 487.296696 306.997504 
L 494.129405 309.221878 
L 516.361683 315.966578 
L 526.039126 318.907157 
L 536.785391 322.27064 
L 544.056009 324.496805 
L 550.280308 326.451938 
L 560.772701 329.912096 
L 564.449222 330.889773 
L 566.96836 331.880967 
L 574.100574 334.261467 
L 576.78096 335.059069 
L 583.961402 337.394567 
L 594.378423 340.594221 
L 602.195453 342.745291 
L 605.952038 343.566299 
L 608.758895 344.323129 
L 612.856196 345.696959 
L 619.690461 347.575666 
L 629.83384 350.564036 
L 636.824064 352.550076 
L 649.963175 356.415849 
L 659.388631 359.124265 
L 670.378457 362.50858 
L 699.096066 371.692859 
L 701.370532 372.622732 
L 705.014042 373.677236 
L 710.546624 375.790381 
L 735.950101 384.155324 
L 739.630394 385.192123 
L 743.162457 386.341293 
L 746.227011 387.173593 
L 749.628702 387.715499 
L 752.894917 389.389747 
L 756.516465 390.241287 
L 760.063479 391.603405 
L 766.558798 393.660914 
L 791.302466 401.527728 
L 806.865429 406.992841 
L 810.276193 407.822397 
L 813.521638 409.267336 
L 817.212094 410.787116 
L 829.022942 415.000069 
L 830.316336 415.606132 
L 843.672459 420.574875 
L 845.067233 421.183112 
L 866.69681 428.75796 
L 869.56056 429.506297 
L 875.057653 430.206146 
L 877.79011 430.387815 
L 879.930574 430.339547 
L 882.063168 430.1342 
L 883.91632 429.767069 
L 885.789117 429.248408 
L 890.189441 428.574555 
L 892.074497 427.853673 
L 893.799965 427.332695 
L 895.435731 425.96806 
L 896.82835 425.602788 
L 898.307339 424.243603 
L 899.380707 423.557156 
L 901.296217 421.244919 
L 902.84299 418.827159 
L 903.317956 418.165104 
L 905.193517 413.526851 
L 905.487615 412.498873 
L 906.423833 410.187633 
L 907.271607 407.748741 
L 907.93695 405.341039 
L 907.949294 405.372743 
L 908.040518 405.123288 
L 907.934342 405.433351 
L 907.864793 405.406191 
L 907.90322 404.276488 
L 908.076359 403.610096 
L 907.979794 403.875334 
L 908.107475 403.419257 
L 907.867599 403.961034 
L 907.983526 403.527664 
L 907.814261 404.047851 
L 907.783792 404.021191 
L 907.718472 403.936589 
L 907.675108 403.991264 
L 907.726401 403.480998 
L 907.590221 403.974526 
L 907.814787 403.68003 
L 906.730169 403.329558 
L 906.784757 403.338386 
" clip-path="url(#pff18be900f)" style="fill: none; stroke: #000000; stroke-opacity: 0.501961; stroke-width: 1.3; stroke-linecap: round"/>
   </g>
   <g id="line2d_14">
    <path d="M 918.662944 564.081818 
L 918.532014 563.879937 
L 918.58092 563.843958 
L 919.093158 563.490089 
L 921.659438 561.629373 
L 925.149559 558.73199 
L 928.592258 555.541369 
L 932.653051 551.938904 
L 935.625511 549.250067 
L 943.948765 541.456122 
L 945.705634 539.704917 
L 949.141504 535.828715 
L 958.018844 524.873605 
L 964.752858 517.261052 
L 969.02675 511.99776 
L 970.82048 509.462435 
L 975.606102 501.887948 
L 977.168466 499.127446 
L 979.991845 493.530087 
L 982.500999 487.956668 
L 983.57721 485.202339 
L 984.47321 482.521417 
L 985.777975 477.180363 
L 986.661258 471.637267 
L 986.920223 469.491904 
L 987.045934 466.88184 
L 986.904435 459.569606 
L 986.657685 455.193638 
L 985.84883 446.346397 
L 985.217089 442.398179 
L 984.498 439.120449 
L 983.616274 436.771922 
L 981.524499 432.86814 
L 980.681185 431.109822 
L 979.170422 429.051696 
L 977.065513 426.827629 
L 974.663056 424.511259 
L 971.982606 422.224039 
L 969.088303 420.039554 
L 966.125161 418.151554 
L 963.24295 416.529221 
L 960.669409 415.28901 
L 958.497095 414.62653 
L 956.331916 414.148941 
L 953.993997 413.770062 
L 948.583672 413.208318 
L 941.149182 412.892058 
L 932.881934 413.117639 
L 928.926319 413.543291 
L 925.434604 414.167952 
L 922.32529 415.088809 
L 919.890106 416.228667 
L 914.279413 418.596735 
L 902.568656 424.357164 
L 897.077229 427.36223 
L 893.144149 429.213195 
L 883.339614 433.368979 
L 872.248731 437.995625 
L 866.974823 440.313627 
L 862.163045 442.682456 
L 858.061203 444.945278 
L 855.095324 447.150488 
L 851.384193 449.615204 
L 842.019016 456.508397 
L 836.765199 460.505128 
L 827.691054 466.913198 
L 821.937825 471.47047 
L 813.190565 479.082693 
L 807.335504 484.482559 
L 805.45832 486.337832 
L 803.432523 488.005547 
L 801.252568 489.384362 
L 798.997399 490.619374 
L 794.567146 492.394648 
L 790.353146 493.6546 
L 786.954036 494.509109 
L 785.446856 494.37861 
L 783.982606 494.028617 
L 782.303365 493.74801 
L 775.323707 493.33007 
L 773.820481 492.989386 
L 772.63326 492.380935 
L 771.82961 491.484405 
L 770.646817 487.851776 
L 770.448921 485.484072 
L 770.848853 482.897217 
L 771.815173 480.040849 
L 773.406459 477.100204 
L 775.486527 474.03583 
L 776.674142 472.647895 
L 779.199072 469.051641 
L 783.633559 462.096519 
L 786.947168 457.436977 
L 788.681611 455.342112 
L 792.208437 451.88962 
L 797.639823 446.662378 
L 804.612164 439.897642 
L 812.805832 431.945957 
L 832.306849 412.699531 
L 836.973864 407.870491 
L 841.497099 402.703909 
L 843.791969 399.901895 
L 845.971037 396.955398 
L 849.955586 390.923249 
L 851.58965 388.061376 
L 853.016454 385.106383 
L 854.09816 382.130921 
L 854.982072 379.004334 
L 856.386194 372.402253 
L 856.964788 368.843953 
L 857.379594 365.279131 
L 857.617634 361.564899 
L 857.716901 357.891882 
L 857.700936 353.984139 
L 857.499963 350.094027 
L 857.059386 346.307329 
L 856.412187 342.78074 
L 855.541227 339.445718 
L 852.439492 330.381567 
L 850.513638 327.013976 
L 848.032422 323.399198 
L 845.160833 319.562384 
L 842.028511 315.581 
L 835.650357 307.836113 
L 832.807488 304.123518 
L 830.414737 300.768766 
L 828.697424 297.632142 
L 823.930807 291.056494 
L 821.403207 287.808478 
L 818.712749 284.574243 
L 816.373286 281.399233 
L 813.144399 278.136671 
L 809.225451 274.877246 
L 804.865316 271.615787 
L 790.872324 261.565476 
L 786.500023 258.268593 
L 782.615037 255.068371 
L 776.317178 249.061474 
L 766.754637 240.429232 
L 763.686803 237.665262 
L 758.077622 232.237732 
L 754.541912 229.468914 
L 750.482336 226.661571 
L 732.693462 215.061829 
L 728.571328 212.176729 
L 724.993134 209.462755 
L 722.174171 206.881408 
L 700.227347 190.156615 
L 697.438844 188.062935 
L 695.265463 186.017134 
L 692.135505 184.093488 
L 688.269522 182.324056 
L 683.918758 180.735727 
L 679.313557 179.232503 
L 670.195461 176.71285 
L 666.130985 175.705559 
L 662.901451 174.756645 
L 660.427876 173.803905 
L 657.810109 173.013803 
L 654.78869 172.352115 
L 651.786063 171.822667 
L 648.670354 171.471515 
L 645.591847 171.238016 
L 639.633426 171.437808 
L 636.866302 171.826003 
L 634.363638 172.352331 
L 629.278892 173.853813 
L 624.588521 175.677916 
L 619.954125 177.889253 
L 615.446006 180.413462 
L 610.624758 183.540571 
L 605.076887 187.54858 
L 602.277453 189.768447 
L 596.946191 194.417391 
L 592.789371 198.689956 
L 590.838624 200.909374 
L 583.283136 208.759167 
L 575.868247 217.027479 
L 573.844008 219.441443 
L 567.29862 228.617887 
L 565.885777 230.788739 
L 561.87084 236.25142 
L 560.52706 237.9652 
L 556.587497 242.195629 
L 554.183197 244.69922 
L 549.482261 249.99229 
L 545.852956 254.564616 
L 544.180577 257.764788 
L 542.893796 259.457651 
L 538.723941 264.391003 
L 537.436463 266.112821 
L 536.431836 267.674583 
L 535.849944 269.100029 
L 535.594021 270.373706 
L 535.494594 272.9491 
L 535.955262 275.200391 
L 536.424993 276.214058 
L 537.020398 277.16089 
L 537.711717 277.855857 
L 538.701155 278.417688 
L 539.884411 278.829615 
L 541.188959 279.115535 
L 543.75714 279.010024 
L 546.031775 278.411509 
L 547.118921 277.908312 
L 550.953969 275.616107 
L 554.693463 273.742742 
L 556.781799 272.758422 
L 564.89965 270.162127 
L 568.711636 269.24249 
L 581.06503 266.112 
L 585.579061 265.569695 
L 588.838472 264.641409 
L 597.248241 261.332775 
L 601.973102 259.664368 
L 606.608441 258.246978 
L 610.98437 257.263174 
L 614.914127 256.836496 
L 618.020778 257.082725 
L 620.080487 258.214779 
L 625.221023 259.569875 
L 627.588786 260.387101 
L 629.890563 261.366102 
L 632.044828 262.418929 
L 633.724828 263.548562 
L 635.884846 264.750454 
L 644.149557 268.608526 
L 646.804192 270.095471 
L 649.068614 271.690824 
L 650.752568 273.445696 
L 651.886136 275.326044 
L 652.929532 281.062153 
L 654.426398 286.902458 
L 654.723406 288.837623 
L 654.780394 290.689824 
L 655.052969 292.908163 
L 656.65392 300.831166 
L 657.00033 303.639139 
L 657.198391 306.453018 
L 657.053746 309.007798 
L 656.532841 311.407622 
L 653.490657 318.038426 
L 652.261457 320.188635 
L 649.479675 324.092373 
L 648.075609 325.795194 
L 646.658309 327.336572 
L 644.201453 330.598448 
L 643.121749 332.110073 
L 642.407515 333.608577 
L 641.224019 334.969109 
L 639.559407 336.292506 
L 637.388221 338.588789 
L 636.735193 339.645768 
L 636.447214 340.885596 
L 636.707254 342.241453 
L 637.266229 343.372099 
L 639.400829 345.409661 
L 640.195711 346.391713 
L 641.267067 347.112755 
L 642.585065 347.725821 
L 643.622286 348.351381 
L 644.872418 348.844778 
L 646.248452 349.154854 
L 647.721212 349.323528 
L 650.637339 349.156978 
L 653.358446 348.198274 
L 654.44156 347.500199 
L 655.339873 346.764446 
L 657.484902 343.586393 
L 660.66517 338.022724 
L 661.648214 336.557433 
L 662.529341 334.960411 
L 664.40836 332.124429 
L 665.462149 329.992711 
L 667.876457 324.488175 
L 669.262659 321.469828 
L 670.794282 318.530958 
L 672.433304 315.809736 
L 674.108887 313.442525 
L 675.759671 311.5716 
L 677.424304 310.491224 
L 685.734092 303.24366 
L 687.558953 301.897964 
L 689.438318 300.715931 
L 693.21076 299.003434 
L 695.679138 297.402976 
L 704.874144 290.821285 
L 708.219554 288.67549 
L 711.50753 286.903934 
L 714.467224 285.761061 
L 717.115844 285.428341 
L 719.423036 285.771993 
L 722.030125 285.68506 
L 727.203486 286.000585 
L 729.453131 286.37199 
L 734.970573 286.956587 
L 738.183165 287.274414 
L 744.759411 288.282606 
L 747.775795 289.060582 
L 750.516829 290.001228 
L 752.76074 291.175932 
L 754.537709 292.554026 
L 755.854157 294.099551 
L 757.421258 295.642684 
L 760.284659 298.96632 
L 762.806125 302.593136 
L 763.691601 304.369975 
L 769.151527 313.810509 
L 770.473796 316.473198 
L 771.514803 319.150541 
L 772.302151 321.81667 
L 772.608873 324.389062 
L 772.551125 326.915495 
L 771.976136 332.068894 
L 771.635112 334.798699 
L 770.247839 342.929809 
L 769.429158 348.012217 
L 768.88124 350.259758 
L 768.238771 352.272527 
L 766.646766 355.18722 
L 765.736544 356.308834 
L 764.697117 357.334234 
L 762.33616 358.690622 
L 759.142597 360.175297 
L 754.971865 361.20706 
L 752.814191 361.496635 
L 750.835563 361.285288 
L 748.238724 361.437458 
L 741.642333 362.468274 
L 737.922976 363.19527 
L 734.060264 363.830266 
L 730.222527 364.331338 
L 726.608557 364.531993 
L 723.307045 364.452922 
L 717.388613 363.226901 
L 710.808733 362.220936 
L 696.907522 359.600301 
L 672.260697 355.345372 
L 664.976717 353.958975 
L 637.7783 349.2423 
L 609.402129 344.72198 
L 578.680701 340.446728 
L 554.507312 337.974719 
L 536.777249 335.777535 
L 521.126891 333.277318 
L 513.939786 332.521749 
L 505.826055 331.688833 
L 488.360933 329.429149 
L 483.075231 328.656578 
L 480.752224 328.184338 
L 478.30678 327.533977 
L 473.812322 325.866835 
L 469.690757 323.803743 
L 466.23497 321.6469 
L 463.578875 319.473952 
L 461.144459 316.914171 
L 460.131548 315.48772 
L 459.133343 313.874805 
L 458.290068 312.10352 
L 457.546671 310.239925 
L 456.991667 308.288095 
L 456.549917 306.307577 
L 455.89432 298.633371 
L 455.471544 292.207341 
L 455.134681 287.258686 
L 454.720091 277.957063 
L 454.398867 270.036005 
L 454.350395 258.313148 
L 454.396319 255.134314 
L 454.552953 252.522029 
L 454.704891 243.465698 
L 455.16254 234.344066 
L 456.084988 215.475089 
L 456.233831 206.321537 
L 456.138298 201.548063 
L 455.894689 196.710472 
L 455.113078 187.912059 
L 453.528575 177.769107 
L 452.92427 174.355774 
L 452.206149 171.069284 
L 451.281751 167.910291 
L 450.158614 164.839175 
L 448.812962 161.763842 
L 447.417158 158.948833 
L 444.065371 153.457398 
L 440.543744 148.192184 
L 438.668129 145.70242 
L 434.992632 141.518365 
L 424.220021 128.373922 
L 421.241554 124.980187 
L 418.344049 122.026973 
L 415.574012 119.599303 
L 413.036974 117.961016 
L 410.724954 116.926836 
L 408.093893 115.521792 
L 405.47795 114.3452 
L 402.863621 113.317578 
L 397.946913 111.726309 
L 395.642234 111.192689 
L 392.835573 111.128337 
L 389.691785 111.405335 
L 383.086754 112.462858 
L 379.911493 113.148991 
L 376.803623 114.196854 
L 373.993701 115.474456 
L 371.541888 116.836284 
L 369.692545 118.23736 
L 367.446638 120.090015 
L 361.33636 125.896737 
L 359.708685 127.512956 
L 358.142434 129.403619 
L 356.870111 131.221184 
L 355.759346 133.253937 
L 354.66931 135.550108 
L 352.604999 141.052307 
L 350.906082 147.208049 
L 349.734214 153.597572 
L 349.291728 159.705032 
L 348.58346 168.771643 
L 347.267764 178.524697 
L 346.025879 187.913387 
L 345.795507 190.589969 
L 345.660245 194.923913 
L 345.047465 200.042003 
L 343.268701 210.370635 
L 341.958835 217.496423 
L 341.300627 220.556233 
L 340.581665 223.150004 
L 339.766568 225.505574 
L 338.860112 227.665254 
L 333.546714 238.572306 
L 331.701598 243.191813 
L 330.259741 248.154538 
L 329.863202 250.577412 
L 329.716644 252.833705 
L 329.745065 256.879192 
L 330.167534 257.748676 
L 329.842165 260.144491 
L 327.961149 268.168843 
L 325.378683 278.346931 
L 324.377881 283.212243 
L 323.760245 287.461663 
L 323.587361 290.691663 
L 324.19795 292.525087 
L 324.864403 294.075538 
L 325.520766 296.308064 
L 326.432396 298.34763 
L 327.721181 300.132472 
L 329.170188 301.739217 
L 330.8432 302.997761 
L 332.751853 304.159895 
L 335.117946 305.094998 
L 337.966548 305.914496 
L 344.417217 307.262593 
L 351.784672 308.261245 
L 359.424975 308.813041 
L 380.419865 309.534923 
L 398.379399 309.893081 
L 407.527441 310.011751 
L 420.681138 309.823469 
L 434.874393 309.545731 
L 518.217939 308.811916 
L 536.454309 308.249911 
L 544.992362 308.104113 
L 554.254803 308.200942 
L 569.391394 308.553913 
L 579.586187 308.56812 
L 588.763807 308.328235 
L 601.871776 307.806174 
L 611.322057 307.644351 
L 695.373766 306.872399 
L 699.870214 306.862123 
L 708.496551 307.024269 
L 716.51099 307.17891 
L 747.142969 308.076987 
L 765.343886 308.481896 
L 774.529594 308.742162 
L 789.461034 308.544116 
L 805.051824 307.987672 
L 809.704711 307.960014 
L 826.645813 308.359199 
L 859.020815 310.211457 
L 888.958265 311.525819 
L 907.685569 312.652302 
L 917.028811 313.10447 
L 921.159414 313.161088 
L 924.991152 313.092392 
L 931.246332 312.441914 
L 943.850497 310.635559 
L 947.037072 310.02337 
L 949.949202 309.23665 
L 952.661051 308.381739 
L 954.86851 307.386334 
L 956.573002 306.373033 
L 958.005632 304.32438 
L 959.653555 301.836589 
L 961.113223 299.167029 
L 962.323145 296.591123 
L 962.654564 295.438283 
L 962.788168 294.428972 
L 962.889155 292.114819 
L 963.005283 291.066511 
L 962.99626 290.03988 
L 963.120349 288.169334 
L 963.182631 286.64624 
L 963.225909 284.786295 
L 963.334615 282.687065 
L 963.205351 282.229814 
L 963.241851 281.71485 
L 963.225914 281.777251 
L 963.172855 281.776844 
L 963.254147 281.766109 
L 963.226817 281.693695 
L 963.097944 281.405219 
L 963.083598 281.251938 
L 962.989232 281.08973 
L 963.069205 280.830074 
L 962.914782 280.650619 
L 963.103873 280.894244 
L 963.103873 280.894244 
" clip-path="url(#pff18be900f)" style="fill: none; stroke: #4c72b0; stroke-opacity: 0.74902; stroke-width: 1.3; stroke-linecap: round"/>
   </g>
   <g id="line2d_15">
    <path d="M 945.787563 429.919779 
L 945.73933 430.001449 
L 945.901335 429.614305 
L 946.112994 428.890677 
L 946.470233 427.727668 
L 948.960661 418.599673 
L 949.396635 416.925669 
L 951.13757 411.32593 
L 954.446261 399.962389 
L 956.508961 392.242976 
L 958.295725 384.345567 
L 959.372637 378.677557 
L 960.934258 366.804317 
L 962.289752 355.2304 
L 962.675486 348.52001 
L 962.668715 341.36519 
L 962.265635 334.417994 
L 961.418867 328.248792 
L 959.677743 319.846206 
L 958.835793 317.099017 
L 957.769151 314.197999 
L 955.18379 308.435226 
L 952.404214 302.909719 
L 950.876207 300.408625 
L 949.055254 298.093013 
L 947.175108 296.063182 
L 944.989307 294.037419 
L 942.652366 292.134135 
L 940.434366 290.528425 
L 937.972556 288.892801 
L 925.78763 281.88459 
L 923.693862 280.803611 
L 921.799255 280.066692 
L 919.712839 279.765226 
L 914.196933 280.059331 
L 911.248163 280.494213 
L 908.383671 281.092335 
L 902.821506 282.739384 
L 898.050218 284.780027 
L 890.902532 289.332266 
L 888.528766 291.045776 
L 883.968785 294.99292 
L 876.987934 302.097153 
L 874.851199 304.671474 
L 872.880191 307.536589 
L 870.757872 310.422928 
L 868.840066 313.403553 
L 867.098537 316.391128 
L 863.647123 322.884234 
L 860.040991 329.706893 
L 858.125861 333.174455 
L 846.058757 356.861549 
L 842.427824 363.775196 
L 840.809896 367.223533 
L 838.245147 373.874196 
L 832.475203 389.946047 
L 831.465914 392.939393 
L 830.322892 395.825362 
L 828.537555 401.326655 
L 827.980773 403.922256 
L 826.47484 409.333065 
L 824.668977 414.149592 
L 822.650782 418.192288 
L 821.566087 420.01506 
L 819.695828 423.678068 
L 818.713554 425.488085 
L 817.470404 427.246843 
L 816.125538 428.840185 
L 814.68414 430.062927 
L 813.270103 430.916671 
L 810.221306 431.841628 
L 807.031965 432.683578 
L 803.888011 432.97485 
L 802.418461 432.838173 
L 801.078747 432.523159 
L 800.001304 431.924654 
L 798.290262 430.210821 
L 797.56272 429.225919 
L 796.609521 426.841048 
L 796.008908 423.898883 
L 796.025788 422.365807 
L 795.2884 412.407774 
L 795.487628 407.892285 
L 796.354413 403.321229 
L 796.91746 400.811306 
L 797.819263 395.401058 
L 798.849899 389.860799 
L 799.46766 387.246629 
L 803.895744 372.391306 
L 806.562192 362.366539 
L 811.217366 346.252253 
L 816.732756 325.260036 
L 817.647003 321.308279 
L 818.400074 317.431456 
L 818.902305 313.766828 
L 819.151529 310.278841 
L 819.123154 306.809904 
L 818.790324 303.429613 
L 817.727345 296.736351 
L 817.036623 293.407902 
L 816.218437 290.182673 
L 814.282526 284.445671 
L 813.122844 281.947406 
L 811.579428 279.004643 
L 809.735217 275.811602 
L 807.57033 272.323979 
L 802.839867 265.385064 
L 800.506773 262.078193 
L 798.198458 259.09132 
L 795.704211 256.604643 
L 793.177253 254.771898 
L 790.19912 252.873202 
L 783.762023 249.237926 
L 780.798574 247.134977 
L 774.19532 243.374176 
L 770.92602 241.546025 
L 767.227513 239.89967 
L 763.436715 238.368174 
L 755.844386 235.46336 
L 748.362648 232.458218 
L 744.380594 231.114456 
L 726.917443 226.179325 
L 718.495098 223.612484 
L 714.472096 222.382514 
L 701.95109 219.16905 
L 693.58774 217.015708 
L 685.024416 214.839726 
L 676.197738 212.699423 
L 667.776252 210.48928 
L 659.37009 208.511765 
L 646.80434 205.942507 
L 634.73017 203.521723 
L 626.859961 202.010008 
L 623.157924 201.36518 
L 611.634307 199.856353 
L 604.172117 199.153891 
L 590.271297 198.34902 
L 583.813442 198.468948 
L 577.590324 198.892732 
L 571.612871 199.934216 
L 568.736247 200.619148 
L 565.967226 201.41704 
L 563.17116 202.364465 
L 560.472793 203.123319 
L 555.67734 204.782398 
L 551.403906 206.796801 
L 549.511182 208.064022 
L 547.739871 209.405712 
L 546.035738 211.117962 
L 544.384854 212.965006 
L 541.234488 217.005605 
L 536.85424 224.261124 
L 535.507354 226.80707 
L 532.89954 232.467523 
L 530.437797 238.712942 
L 528.324053 245.103196 
L 526.613842 251.512276 
L 525.011836 258.323683 
L 522.28804 268.985282 
L 520.602517 275.890856 
L 519.216976 282.213713 
L 518.613923 285.274915 
L 516.706752 296.942766 
L 515.468128 302.820747 
L 512.586338 315.188827 
L 510.424708 322.888718 
L 509.199733 327.93826 
L 508.595632 332.238979 
L 508.677579 337.024509 
L 508.894001 338.665323 
L 509.742872 341.492737 
L 511.100576 343.870686 
L 512.685646 345.619874 
L 514.628783 346.822827 
L 515.779388 347.222254 
L 516.991624 347.516716 
L 518.28998 347.547198 
L 519.597605 347.415107 
L 520.853078 346.995612 
L 522.013799 346.428197 
L 523.134847 345.625563 
L 524.093128 344.662017 
L 524.931936 343.496723 
L 525.666714 342.266346 
L 528.035978 337.245478 
L 530.058773 333.203032 
L 537.066884 322.049867 
L 538.649669 319.832819 
L 543.732093 313.581098 
L 547.470078 309.361848 
L 551.535784 305.159131 
L 553.736951 303.18832 
L 556.062881 301.398797 
L 558.444126 299.885555 
L 560.859968 298.526437 
L 563.377172 297.287346 
L 565.991575 296.231434 
L 568.665124 295.315647 
L 574.152796 293.924646 
L 576.91598 293.441403 
L 579.64384 293.135839 
L 582.368539 292.956848 
L 585.031412 292.97341 
L 587.696174 293.146887 
L 590.324899 293.48055 
L 592.738225 293.96788 
L 597.486042 295.478971 
L 602.310393 297.479419 
L 604.617106 298.635254 
L 606.877497 299.901359 
L 608.932361 301.34631 
L 610.735985 302.942798 
L 612.142618 304.649031 
L 613.220409 306.531898 
L 616.413511 310.319296 
L 619.91125 314.377252 
L 621.55895 316.520727 
L 622.930432 318.717598 
L 624.094907 321.051249 
L 624.987995 323.45002 
L 625.544459 325.910143 
L 626.943727 330.881341 
L 627.928147 336.14975 
L 628.307368 341.484132 
L 628.159665 346.692324 
L 627.581853 351.763466 
L 625.247379 360.691034 
L 624.480603 362.190176 
L 623.934177 363.709376 
L 623.581681 365.715096 
L 623.810281 368.158973 
L 624.648499 370.748658 
L 625.787798 373.163913 
L 627.399587 375.661709 
L 629.133345 377.974414 
L 632.169096 381.269919 
L 633.103323 382.127562 
L 633.902673 383.340565 
L 634.43801 384.626532 
L 636.716962 388.416056 
L 637.657253 389.576832 
L 639.663209 391.446782 
L 640.642957 392.222924 
L 641.523969 392.716289 
L 642.447441 392.978607 
L 643.40938 393.015133 
L 644.446584 392.88076 
L 645.437023 392.496385 
L 646.466444 391.939991 
L 648.709579 389.979352 
L 650.706518 387.468201 
L 651.555644 386.030116 
L 655.008455 380.758298 
L 656.294136 378.739535 
L 662.325611 370.736174 
L 665.349308 366.999685 
L 668.724583 363.544944 
L 672.510887 360.206126 
L 676.458334 356.904897 
L 682.947209 352.105192 
L 685.192756 350.584969 
L 687.49084 349.256481 
L 692.138403 346.958439 
L 696.859186 345.046841 
L 701.852287 343.49056 
L 707.013368 342.416329 
L 709.616077 342.11992 
L 712.088661 342.062769 
L 717.229846 342.361112 
L 719.898165 342.684935 
L 722.47287 343.186437 
L 725.062282 343.805304 
L 730.068051 345.494003 
L 732.427416 346.621032 
L 734.718462 347.877186 
L 738.819138 350.711903 
L 740.591386 352.233034 
L 742.209992 353.800625 
L 743.368781 355.382404 
L 744.372678 357.0766 
L 750.438894 365.73274 
L 751.907805 368.195374 
L 753.201354 370.721672 
L 754.142251 373.155703 
L 754.749516 375.566536 
L 754.886272 378.098355 
L 755.296343 380.870398 
L 755.592608 383.726464 
L 755.670397 389.526316 
L 754.850939 395.2154 
L 754.115879 397.820068 
L 753.212872 400.37836 
L 751.608468 405.913343 
L 750.316792 411.509957 
L 748.823651 418.888797 
L 748.13574 421.205282 
L 747.261172 423.14299 
L 746.08732 424.891582 
L 744.932063 426.15802 
L 743.454792 427.312444 
L 741.655455 428.217807 
L 737.413901 429.342724 
L 735.083236 429.913458 
L 732.615092 430.373185 
L 730.162742 430.642773 
L 727.781388 430.644657 
L 725.455729 430.364725 
L 720.764657 429.02798 
L 716.006173 427.041342 
L 710.134177 425.040062 
L 697.532863 421.077539 
L 694.399108 419.841358 
L 691.276776 418.433269 
L 688.213453 416.87 
L 677.792745 412.111002 
L 670.81979 408.666357 
L 661.004882 403.236257 
L 644.029665 394.273357 
L 630.373535 387.097118 
L 623.45516 383.396906 
L 616.289797 379.677939 
L 605.209108 374.036427 
L 594.095201 368.898325 
L 590.119038 367.10016 
L 586.119975 365.423921 
L 578.478948 361.90603 
L 561.801229 353.247115 
L 539.988014 343.522129 
L 534.05468 340.541908 
L 497.092234 323.313142 
L 488.807116 318.892043 
L 486.413755 317.487471 
L 482.268503 314.571911 
L 478.375174 311.333683 
L 474.596072 307.746222 
L 471.663575 304.287093 
L 469.141178 300.637031 
L 468.216061 298.737199 
L 467.518994 296.81694 
L 466.884935 292.771928 
L 467.037083 288.484732 
L 468.134452 279.241717 
L 469.273014 274.344833 
L 470.901028 269.206554 
L 471.894881 266.535449 
L 473.82223 260.894296 
L 476.002414 255.370449 
L 478.538373 249.52279 
L 489.69286 224.632635 
L 493.92535 214.929455 
L 501.757779 197.662669 
L 504.823143 190.157084 
L 507.550164 182.256992 
L 508.766814 178.289455 
L 510.709355 170.710234 
L 512.456824 163.06004 
L 513.922868 155.44513 
L 515.144145 147.841774 
L 515.553095 144.135516 
L 515.941583 136.822358 
L 516.026745 129.668246 
L 515.851697 126.265119 
L 515.542727 122.733067 
L 514.565307 115.288822 
L 513.940064 111.48266 
L 512.32305 103.983624 
L 511.388878 100.497192 
L 510.36413 97.348298 
L 509.214546 94.565951 
L 506.690017 89.560578 
L 505.125915 87.154967 
L 503.321233 84.83131 
L 501.365458 82.526736 
L 497.14531 78.098094 
L 492.868337 74.138058 
L 490.914284 72.457494 
L 488.914215 71.128301 
L 486.439525 70.092701 
L 483.795084 69.288322 
L 478.520946 68.142281 
L 475.778701 67.958182 
L 472.965205 68.047866 
L 470.187783 68.475312 
L 467.604169 69.065472 
L 465.017835 69.933759 
L 462.139807 71.033201 
L 456.704939 73.44845 
L 452.019833 75.822504 
L 449.541706 77.466823 
L 447.102892 79.272625 
L 444.885694 81.388631 
L 442.82933 83.645018 
L 440.708731 86.17086 
L 438.657035 88.852168 
L 436.749031 91.633579 
L 434.981578 94.42389 
L 428.209325 106.339263 
L 424.946223 112.472341 
L 420.144381 121.841494 
L 418.617647 124.854853 
L 414.705894 133.234053 
L 410.910015 141.068133 
L 408.402502 146.113857 
L 407.067648 148.697019 
L 405.549708 151.26023 
L 400.53468 158.860125 
L 396.396354 164.937483 
L 391.789056 170.846696 
L 387.175492 176.094563 
L 385.011147 178.30404 
L 382.952569 180.057154 
L 374.210847 188.862215 
L 368.858834 194.124154 
L 366.376887 196.760133 
L 364.173916 199.394703 
L 362.277873 201.889682 
L 360.988536 204.025136 
L 360.087058 205.991761 
L 358.723439 208.350633 
L 355.66714 213.246072 
L 354.185558 215.711209 
L 351.991651 220.541963 
L 351.422835 223.041323 
L 351.097055 225.476609 
L 351.194136 227.841156 
L 351.049183 230.42877 
L 351.191561 232.931035 
L 351.557542 235.321782 
L 352.323714 237.509255 
L 353.487736 239.435398 
L 355.193188 241.047046 
L 357.168434 242.64719 
L 359.438723 244.130985 
L 361.90532 245.518739 
L 367.390801 248.251526 
L 373.493854 250.831745 
L 379.971261 253.016315 
L 405.47618 262.788486 
L 409.572981 264.199971 
L 420.958949 267.525883 
L 425.015738 268.732262 
L 446.551378 274.350414 
L 464.178359 278.651838 
L 472.86016 280.796548 
L 477.100828 281.952773 
L 525.908244 296.877398 
L 563.886322 307.659049 
L 573.078741 310.406255 
L 586.763485 314.111907 
L 614.579287 321.405096 
L 619.165802 322.550355 
L 628.488403 325.123537 
L 637.16597 327.658868 
L 645.948606 330.05282 
L 659.706069 333.503208 
L 669.208104 336.067453 
L 677.783608 338.750923 
L 686.209234 341.412459 
L 690.389576 342.683371 
L 713.778453 349.196784 
L 740.782837 357.308453 
L 749.955477 359.888077 
L 768.287183 364.849006 
L 782.513762 369.06948 
L 792.119598 371.901004 
L 839.383257 384.783143 
L 867.583948 393.242425 
L 876.535274 395.773761 
L 880.765965 397.129295 
L 889.79655 400.331491 
L 903.484398 405.330647 
L 907.769997 406.778734 
L 915.085835 408.992789 
L 927.220192 413.121522 
L 935.250532 415.642713 
L 939.178778 416.599255 
L 942.929132 417.291874 
L 946.358255 417.620644 
L 956.217117 417.899238 
L 962.487618 417.928977 
L 965.260635 417.758493 
L 967.991512 417.407887 
L 970.40856 416.811413 
L 972.532805 415.968595 
L 974.172877 414.861407 
L 976.747642 412.435649 
L 977.89457 411.213957 
L 979.649556 408.633686 
L 981.872153 404.661861 
L 982.553627 403.358434 
L 985.271332 396.854747 
L 985.792027 395.854898 
L 988.811159 391.456798 
L 989.567861 389.163542 
L 989.639746 389.218233 
L 989.39755 389.095232 
L 989.425413 389.043136 
L 989.496797 388.939561 
L 989.419298 388.346084 
L 989.561174 388.151136 
L 989.615895 387.634988 
L 989.52114 388.035968 
L 989.298403 387.94735 
L 989.3967 387.929602 
L 989.38514 387.870479 
L 989.478396 387.863212 
L 989.434649 387.656552 
L 989.354121 387.463968 
L 989.354121 387.463968 
" clip-path="url(#pff18be900f)" style="fill: none; stroke: #55a868; stroke-opacity: 0.74902; stroke-width: 1.3; stroke-linecap: round"/>
   </g>
   <g id="patch_3">
    <path d="M 290.282097 588.888 
L 290.282097 43.152 
" style="fill: none; stroke: #cccccc; stroke-width: 1.25; stroke-linejoin: miter; stroke-linecap: square"/>
   </g>
   <g id="patch_4">
    <path d="M 1022.997903 588.888 
L 1022.997903 43.152 
" style="fill: none; stroke: #cccccc; stroke-width: 1.25; stroke-linejoin: miter; stroke-linecap: square"/>
   </g>
   <g id="patch_5">
    <path d="M 290.282097 588.888 
L 1022.997903 588.888 
" style="fill: none; stroke: #cccccc; stroke-width: 1.25; stroke-linejoin: miter; stroke-linecap: square"/>
   </g>
   <g id="patch_6">
    <path d="M 290.282097 43.152 
L 1022.997903 43.152 
" style="fill: none; stroke: #cccccc; stroke-width: 1.25; stroke-linejoin: miter; stroke-linecap: square"/>
   </g>
   <g id="text_15">
    <!-- units-scooter -->
    <g style="fill: #262626" transform="translate(589.219594 37.152) scale(0.204 -0.204)">
     <defs>
      <path id="DejaVuSerif-75" d="M 2266 3322 
L 3341 3322 
L 3341 331 
L 3884 331 
L 3884 0 
L 2766 0 
L 2766 588 
Q 2606 256 2353 82 
Q 2100 -91 1766 -91 
Q 1213 -91 952 223 
Q 691 538 691 1209 
L 691 2988 
L 172 2988 
L 172 3322 
L 1269 3322 
L 1269 1388 
Q 1269 781 1417 556 
Q 1566 331 1947 331 
Q 2347 331 2556 625 
Q 2766 919 2766 1478 
L 2766 2988 
L 2266 2988 
L 2266 3322 
z
" transform="scale(0.015625)"/>
      <path id="DejaVuSerif-6e" d="M 263 0 
L 263 331 
L 781 331 
L 781 2988 
L 231 2988 
L 231 3322 
L 1356 3322 
L 1356 2731 
Q 1516 3069 1770 3241 
Q 2025 3413 2363 3413 
Q 2913 3413 3172 3097 
Q 3431 2781 3431 2113 
L 3431 331 
L 3944 331 
L 3944 0 
L 2356 0 
L 2356 331 
L 2853 331 
L 2853 1931 
Q 2853 2541 2703 2767 
Q 2553 2994 2175 2994 
Q 1775 2994 1565 2701 
Q 1356 2409 1356 1850 
L 1356 331 
L 1856 331 
L 1856 0 
L 263 0 
z
" transform="scale(0.015625)"/>
      <path id="DejaVuSerif-69" d="M 622 4353 
Q 622 4497 726 4603 
Q 831 4709 978 4709 
Q 1122 4709 1226 4603 
Q 1331 4497 1331 4353 
Q 1331 4206 1228 4103 
Q 1125 4000 978 4000 
Q 831 4000 726 4103 
Q 622 4206 622 4353 
z
M 1356 331 
L 1900 331 
L 1900 0 
L 231 0 
L 231 331 
L 781 331 
L 781 2988 
L 231 2988 
L 231 3322 
L 1356 3322 
L 1356 331 
z
" transform="scale(0.015625)"/>
      <path id="DejaVuSerif-74" d="M 691 2988 
L 184 2988 
L 184 3322 
L 691 3322 
L 691 4353 
L 1269 4353 
L 1269 3322 
L 2350 3322 
L 2350 2988 
L 1269 2988 
L 1269 878 
Q 1269 456 1350 337 
Q 1431 219 1650 219 
Q 1875 219 1978 351 
Q 2081 484 2088 781 
L 2522 781 
Q 2497 328 2275 118 
Q 2053 -91 1600 -91 
Q 1103 -91 897 129 
Q 691 350 691 878 
L 691 2988 
z
" transform="scale(0.015625)"/>
      <path id="DejaVuSerif-73" d="M 359 184 
L 359 959 
L 691 959 
Q 703 588 923 403 
Q 1144 219 1575 219 
Q 1963 219 2166 364 
Q 2369 509 2369 788 
Q 2369 1006 2220 1140 
Q 2072 1275 1594 1428 
L 1178 1569 
Q 750 1706 558 1912 
Q 366 2119 366 2438 
Q 366 2894 700 3153 
Q 1034 3413 1625 3413 
Q 1888 3413 2178 3344 
Q 2469 3275 2778 3144 
L 2778 2419 
L 2447 2419 
Q 2434 2741 2221 2922 
Q 2009 3103 1644 3103 
Q 1281 3103 1095 2975 
Q 909 2847 909 2591 
Q 909 2381 1050 2254 
Q 1191 2128 1613 1997 
L 2069 1856 
Q 2541 1709 2748 1489 
Q 2956 1269 2956 922 
Q 2956 450 2595 179 
Q 2234 -91 1600 -91 
Q 1278 -91 972 -22 
Q 666 47 359 184 
z
" transform="scale(0.015625)"/>
      <path id="DejaVuSerif-2d" d="M 281 1959 
L 1881 1959 
L 1881 1472 
L 281 1472 
L 281 1959 
z
" transform="scale(0.015625)"/>
      <path id="DejaVuSerif-63" d="M 3291 997 
Q 3169 466 2822 187 
Q 2475 -91 1925 -91 
Q 1200 -91 759 389 
Q 319 869 319 1663 
Q 319 2459 759 2936 
Q 1200 3413 1925 3413 
Q 2241 3413 2553 3339 
Q 2866 3266 3181 3116 
L 3181 2266 
L 2847 2266 
Q 2781 2703 2561 2903 
Q 2341 3103 1931 3103 
Q 1466 3103 1228 2742 
Q 991 2381 991 1663 
Q 991 944 1227 581 
Q 1463 219 1931 219 
Q 2303 219 2525 412 
Q 2747 606 2828 997 
L 3291 997 
z
" transform="scale(0.015625)"/>
      <path id="DejaVuSerif-6f" d="M 1925 219 
Q 2388 219 2623 584 
Q 2859 950 2859 1663 
Q 2859 2375 2623 2739 
Q 2388 3103 1925 3103 
Q 1463 3103 1227 2739 
Q 991 2375 991 1663 
Q 991 950 1228 584 
Q 1466 219 1925 219 
z
M 1925 -91 
Q 1200 -91 759 389 
Q 319 869 319 1663 
Q 319 2456 758 2934 
Q 1197 3413 1925 3413 
Q 2653 3413 3092 2934 
Q 3531 2456 3531 1663 
Q 3531 869 3092 389 
Q 2653 -91 1925 -91 
z
" transform="scale(0.015625)"/>
      <path id="DejaVuSerif-65" d="M 3469 1600 
L 991 1600 
L 991 1575 
Q 991 903 1244 561 
Q 1497 219 1991 219 
Q 2369 219 2611 417 
Q 2853 616 2950 1006 
L 3413 1006 
Q 3275 459 2904 184 
Q 2534 -91 1931 -91 
Q 1203 -91 761 389 
Q 319 869 319 1663 
Q 319 2450 753 2931 
Q 1188 3413 1894 3413 
Q 2647 3413 3050 2948 
Q 3453 2484 3469 1600 
z
M 2791 1931 
Q 2772 2513 2545 2808 
Q 2319 3103 1894 3103 
Q 1497 3103 1269 2806 
Q 1041 2509 991 1931 
L 2791 1931 
z
" transform="scale(0.015625)"/>
      <path id="DejaVuSerif-72" d="M 3059 3328 
L 3059 2497 
L 2728 2497 
Q 2713 2744 2591 2866 
Q 2469 2988 2234 2988 
Q 1809 2988 1582 2694 
Q 1356 2400 1356 1850 
L 1356 331 
L 2022 331 
L 2022 0 
L 263 0 
L 263 331 
L 781 331 
L 781 2994 
L 231 2994 
L 231 3322 
L 1356 3322 
L 1356 2731 
Q 1525 3078 1790 3245 
Q 2056 3413 2438 3413 
Q 2578 3413 2733 3391 
Q 2888 3369 3059 3328 
z
" transform="scale(0.015625)"/>
     </defs>
     <use xlink:href="#DejaVuSerif-75"/>
     <use xlink:href="#DejaVuSerif-6e" x="64.404297"/>
     <use xlink:href="#DejaVuSerif-69" x="128.808594"/>
     <use xlink:href="#DejaVuSerif-74" x="160.791016"/>
     <use xlink:href="#DejaVuSerif-73" x="200.976562"/>
     <use xlink:href="#DejaVuSerif-2d" x="252.294922"/>
     <use xlink:href="#DejaVuSerif-73" x="286.083984"/>
     <use xlink:href="#DejaVuSerif-63" x="337.402344"/>
     <use xlink:href="#DejaVuSerif-6f" x="393.408203"/>
     <use xlink:href="#DejaVuSerif-6f" x="453.613281"/>
     <use xlink:href="#DejaVuSerif-74" x="513.818359"/>
     <use xlink:href="#DejaVuSerif-65" x="554.003906"/>
     <use xlink:href="#DejaVuSerif-72" x="613.183594"/>
    </g>
   </g>
   <g id="legend_1">
    <g id="patch_7">
     <path d="M 803.465747 141.762359 
L 1009.907903 141.762359 
Q 1013.647903 141.762359 1013.647903 138.022359 
L 1013.647903 56.242 
Q 1013.647903 52.502 1009.907903 52.502 
L 803.465747 52.502 
Q 799.725747 52.502 799.725747 56.242 
L 799.725747 138.022359 
Q 799.725747 141.762359 803.465747 141.762359 
z
" style="fill: #ffffff; opacity: 0.8; stroke: #cccccc; stroke-linejoin: miter"/>
    </g>
    <g id="line2d_16">
     <path d="M 807.205747 67.646078 
L 825.905747 67.646078 
L 844.605747 67.646078 
" style="fill: none; stroke: #000000; stroke-opacity: 0.501961; stroke-width: 1.3; stroke-linecap: round"/>
    </g>
    <g id="text_16">
     <!-- gt -->
     <g style="fill: #262626" transform="translate(859.565747 74.191078) scale(0.187 -0.187)">
      <defs>
       <path id="DejaVuSerif-67" d="M 3359 2988 
L 3359 72 
Q 3359 -644 2965 -1033 
Q 2572 -1422 1844 -1422 
Q 1516 -1422 1216 -1362 
Q 916 -1303 641 -1184 
L 641 -488 
L 941 -488 
Q 997 -813 1206 -963 
Q 1416 -1113 1806 -1113 
Q 2313 -1113 2548 -827 
Q 2784 -541 2784 72 
L 2784 519 
Q 2616 206 2355 57 
Q 2094 -91 1709 -91 
Q 1097 -91 708 395 
Q 319 881 319 1663 
Q 319 2444 706 2928 
Q 1094 3413 1709 3413 
Q 2094 3413 2355 3264 
Q 2616 3116 2784 2803 
L 2784 3322 
L 3909 3322 
L 3909 2988 
L 3359 2988 
z
M 2784 1825 
Q 2784 2422 2554 2737 
Q 2325 3053 1888 3053 
Q 1444 3053 1217 2703 
Q 991 2353 991 1663 
Q 991 975 1217 622 
Q 1444 269 1888 269 
Q 2325 269 2554 583 
Q 2784 897 2784 1497 
L 2784 1825 
z
" transform="scale(0.015625)"/>
      </defs>
      <use xlink:href="#DejaVuSerif-67"/>
      <use xlink:href="#DejaVuSerif-74" x="64.013672"/>
     </g>
    </g>
    <g id="line2d_17">
     <path d="M 807.205747 95.360062 
L 825.905747 95.360062 
L 844.605747 95.360062 
" style="fill: none; stroke: #4c72b0; stroke-opacity: 0.74902; stroke-width: 1.3; stroke-linecap: round"/>
    </g>
    <g id="text_17">
     <!-- DH-PTAM_CPU -->
     <g style="fill: #262626" transform="translate(859.565747 101.905062) scale(0.187 -0.187)">
      <defs>
       <path id="DejaVuSerif-44" d="M 1581 331 
L 2163 331 
Q 3072 331 3558 850 
Q 4044 1369 4044 2338 
Q 4044 3306 3559 3818 
Q 3075 4331 2163 4331 
L 1581 4331 
L 1581 331 
z
M 353 0 
L 353 331 
L 947 331 
L 947 4331 
L 353 4331 
L 353 4666 
L 2209 4666 
Q 3416 4666 4089 4050 
Q 4763 3434 4763 2338 
Q 4763 1238 4088 619 
Q 3413 0 2209 0 
L 353 0 
z
" transform="scale(0.015625)"/>
       <path id="DejaVuSerif-48" d="M 353 0 
L 353 331 
L 947 331 
L 947 4331 
L 353 4331 
L 353 4666 
L 2175 4666 
L 2175 4331 
L 1581 4331 
L 1581 2719 
L 4000 2719 
L 4000 4331 
L 3406 4331 
L 3406 4666 
L 5228 4666 
L 5228 4331 
L 4634 4331 
L 4634 331 
L 5228 331 
L 5228 0 
L 3406 0 
L 3406 331 
L 4000 331 
L 4000 2338 
L 1581 2338 
L 1581 331 
L 2175 331 
L 2175 0 
L 353 0 
z
" transform="scale(0.015625)"/>
       <path id="DejaVuSerif-50" d="M 1581 2375 
L 2406 2375 
Q 2872 2375 3115 2626 
Q 3359 2878 3359 3353 
Q 3359 3831 3115 4081 
Q 2872 4331 2406 4331 
L 1581 4331 
L 1581 2375 
z
M 353 0 
L 353 331 
L 947 331 
L 947 4331 
L 353 4331 
L 353 4666 
L 2559 4666 
Q 3259 4666 3668 4311 
Q 4078 3956 4078 3353 
Q 4078 2753 3668 2397 
Q 3259 2041 2559 2041 
L 1581 2041 
L 1581 331 
L 2303 331 
L 2303 0 
L 353 0 
z
" transform="scale(0.015625)"/>
       <path id="DejaVuSerif-54" d="M 1222 0 
L 1222 331 
L 1819 331 
L 1819 4294 
L 447 4294 
L 447 3566 
L 63 3566 
L 63 4666 
L 4206 4666 
L 4206 3566 
L 3822 3566 
L 3822 4294 
L 2450 4294 
L 2450 331 
L 3047 331 
L 3047 0 
L 1222 0 
z
" transform="scale(0.015625)"/>
       <path id="DejaVuSerif-41" d="M 1281 1691 
L 2994 1691 
L 2138 3909 
L 1281 1691 
z
M -38 0 
L -38 331 
L 372 331 
L 2034 4666 
L 2559 4666 
L 4225 331 
L 4684 331 
L 4684 0 
L 2988 0 
L 2988 331 
L 3506 331 
L 3116 1356 
L 1153 1356 
L 763 331 
L 1275 331 
L 1275 0 
L -38 0 
z
" transform="scale(0.015625)"/>
       <path id="DejaVuSerif-4d" d="M 353 0 
L 353 331 
L 947 331 
L 947 4331 
L 319 4331 
L 319 4666 
L 1678 4666 
L 3316 1344 
L 4953 4666 
L 6228 4666 
L 6228 4331 
L 5606 4331 
L 5606 331 
L 6203 331 
L 6203 0 
L 4378 0 
L 4378 331 
L 4972 331 
L 4972 3938 
L 3372 684 
L 2931 684 
L 1331 3938 
L 1331 331 
L 1925 331 
L 1925 0 
L 353 0 
z
" transform="scale(0.015625)"/>
       <path id="DejaVuSerif-5f" d="M 3200 -1259 
L 3200 -1509 
L 0 -1509 
L 0 -1259 
L 3200 -1259 
z
" transform="scale(0.015625)"/>
       <path id="DejaVuSerif-43" d="M 4513 1234 
Q 4306 581 3820 245 
Q 3334 -91 2591 -91 
Q 2134 -91 1743 65 
Q 1353 222 1050 525 
Q 700 875 529 1320 
Q 359 1766 359 2328 
Q 359 3416 987 4083 
Q 1616 4750 2644 4750 
Q 3025 4750 3456 4650 
Q 3888 4550 4384 4347 
L 4384 3272 
L 4031 3272 
Q 3916 3859 3567 4137 
Q 3219 4416 2591 4416 
Q 1844 4416 1459 3886 
Q 1075 3356 1075 2328 
Q 1075 1303 1459 773 
Q 1844 244 2591 244 
Q 3113 244 3450 492 
Q 3788 741 3938 1234 
L 4513 1234 
z
" transform="scale(0.015625)"/>
       <path id="DejaVuSerif-55" d="M 897 4331 
L 300 4331 
L 300 4666 
L 2125 4666 
L 2125 4331 
L 1528 4331 
L 1528 1919 
Q 1528 1025 1820 672 
Q 2113 319 2828 319 
Q 3544 319 3836 672 
Q 4128 1025 4128 1919 
L 4128 4331 
L 3531 4331 
L 3531 4666 
L 5106 4666 
L 5106 4331 
L 4513 4331 
L 4513 1856 
Q 4513 791 4103 350 
Q 3694 -91 2713 -91 
Q 1731 -91 1314 353 
Q 897 797 897 1856 
L 897 4331 
z
" transform="scale(0.015625)"/>
      </defs>
      <use xlink:href="#DejaVuSerif-44"/>
      <use xlink:href="#DejaVuSerif-48" x="80.175781"/>
      <use xlink:href="#DejaVuSerif-2d" x="167.382812"/>
      <use xlink:href="#DejaVuSerif-50" x="201.171875"/>
      <use xlink:href="#DejaVuSerif-54" x="268.457031"/>
      <use xlink:href="#DejaVuSerif-41" x="329.65625"/>
      <use xlink:href="#DejaVuSerif-4d" x="401.873047"/>
      <use xlink:href="#DejaVuSerif-5f" x="504.265625"/>
      <use xlink:href="#DejaVuSerif-43" x="554.265625"/>
      <use xlink:href="#DejaVuSerif-50" x="630.779297"/>
      <use xlink:href="#DejaVuSerif-55" x="696.314453"/>
     </g>
    </g>
    <g id="line2d_18">
     <path d="M 807.205747 123.32825 
L 825.905747 123.32825 
L 844.605747 123.32825 
" style="fill: none; stroke: #55a868; stroke-opacity: 0.74902; stroke-width: 1.3; stroke-linecap: round"/>
    </g>
    <g id="text_18">
     <!-- DH-PTAM_GPU -->
     <g style="fill: #262626" transform="translate(859.565747 129.87325) scale(0.187 -0.187)">
      <defs>
       <path id="DejaVuSerif-47" d="M 4097 3272 
Q 3988 3856 3641 4136 
Q 3294 4416 2675 4416 
Q 1869 4416 1472 3897 
Q 1075 3378 1075 2328 
Q 1075 1300 1484 772 
Q 1894 244 2688 244 
Q 3041 244 3362 331 
Q 3684 419 3975 594 
L 3975 1797 
L 3097 1797 
L 3097 2131 
L 4609 2131 
L 4609 391 
Q 4194 150 3714 29 
Q 3234 -91 2688 -91 
Q 1631 -91 995 570 
Q 359 1231 359 2328 
Q 359 3434 996 4092 
Q 1634 4750 2713 4750 
Q 3113 4750 3539 4658 
Q 3966 4566 4447 4378 
L 4447 3272 
L 4097 3272 
z
" transform="scale(0.015625)"/>
      </defs>
      <use xlink:href="#DejaVuSerif-44"/>
      <use xlink:href="#DejaVuSerif-48" x="80.175781"/>
      <use xlink:href="#DejaVuSerif-2d" x="167.382812"/>
      <use xlink:href="#DejaVuSerif-50" x="201.171875"/>
      <use xlink:href="#DejaVuSerif-54" x="268.457031"/>
      <use xlink:href="#DejaVuSerif-41" x="329.65625"/>
      <use xlink:href="#DejaVuSerif-4d" x="401.873047"/>
      <use xlink:href="#DejaVuSerif-5f" x="504.265625"/>
      <use xlink:href="#DejaVuSerif-47" x="554.265625"/>
      <use xlink:href="#DejaVuSerif-50" x="634.148438"/>
      <use xlink:href="#DejaVuSerif-55" x="699.683594"/>
     </g>
    </g>
   </g>
  </g>
 </g>
 <defs>
  <clipPath id="pff18be900f">
   <rect x="290.282097" y="43.152" width="732.715807" height="545.736"/>
  </clipPath>
 </defs>
</svg>
