<?xml version="1.0" encoding="utf-8" standalone="no"?>
<!DOCTYPE svg PUBLIC "-//W3C//DTD SVG 1.1//EN"
  "http://www.w3.org/Graphics/SVG/1.1/DTD/svg11.dtd">
<svg xmlns:xlink="http://www.w3.org/1999/xlink" width="1313.28pt" height="663.84pt" viewBox="0 0 1313.28 663.84" xmlns="http://www.w3.org/2000/svg" version="1.1">
 <metadata>
  <rdf:RDF xmlns:dc="http://purl.org/dc/elements/1.1/" xmlns:cc="http://creativecommons.org/ns#" xmlns:rdf="http://www.w3.org/1999/02/22-rdf-syntax-ns#">
   <cc:Work>
    <dc:type rdf:resource="http://purl.org/dc/dcmitype/StillImage"/>
    <dc:date>2023-03-02T11:08:50.990689</dc:date>
    <dc:format>image/svg+xml</dc:format>
    <dc:creator>
     <cc:Agent>
      <dc:title>Matplotlib v3.7.0, https://matplotlib.org/</dc:title>
     </cc:Agent>
    </dc:creator>
   </cc:Work>
  </rdf:RDF>
 </metadata>
 <defs>
  <style type="text/css">*{stroke-linejoin: round; stroke-linecap: butt}</style>
 </defs>
 <g id="figure_1">
  <g id="patch_1">
   <path d="M 0 663.84 
L 1313.28 663.84 
L 1313.28 0 
L 0 0 
z
" style="fill: #ffffff"/>
  </g>
  <g id="axes_1">
   <g id="patch_2">
    <path d="M 536.691367 588.888 
L 776.588633 588.888 
L 776.588633 43.152 
L 536.691367 43.152 
z
" style="fill: #ffffff"/>
   </g>
   <g id="matplotlib.axis_1">
    <g id="xtick_1">
     <g id="line2d_1">
      <path d="M 539.341933 588.888 
L 539.341933 43.152 
" clip-path="url(#pd62f8a371b)" style="fill: none; stroke: #cccccc; stroke-linecap: round"/>
     </g>
     <g id="text_1">
      <!-- −30 -->
      <g style="fill: #262626" transform="translate(519.60905 612.597078) scale(0.187 -0.187)">
       <defs>
        <path id="DejaVuSerif-2212" d="M 678 2259 
L 4684 2259 
L 4684 1753 
L 678 1753 
L 678 2259 
z
" transform="scale(0.015625)"/>
        <path id="DejaVuSerif-33" d="M 622 4469 
Q 988 4606 1323 4678 
Q 1659 4750 1953 4750 
Q 2638 4750 3022 4454 
Q 3406 4159 3406 3634 
Q 3406 3213 3140 2930 
Q 2875 2647 2388 2547 
Q 2963 2466 3280 2130 
Q 3597 1794 3597 1259 
Q 3597 606 3158 257 
Q 2719 -91 1894 -91 
Q 1528 -91 1179 -12 
Q 831 66 488 225 
L 488 1131 
L 838 1131 
Q 869 681 1141 450 
Q 1413 219 1906 219 
Q 2384 219 2661 495 
Q 2938 772 2938 1253 
Q 2938 1803 2653 2086 
Q 2369 2369 1819 2369 
L 1522 2369 
L 1522 2688 
L 1678 2688 
Q 2225 2688 2498 2914 
Q 2772 3141 2772 3597 
Q 2772 4006 2547 4223 
Q 2322 4441 1900 4441 
Q 1478 4441 1245 4241 
Q 1013 4041 972 3647 
L 622 3647 
L 622 4469 
z
" transform="scale(0.015625)"/>
        <path id="DejaVuSerif-30" d="M 2034 219 
Q 2513 219 2750 744 
Q 2988 1269 2988 2328 
Q 2988 3391 2750 3916 
Q 2513 4441 2034 4441 
Q 1556 4441 1318 3916 
Q 1081 3391 1081 2328 
Q 1081 1269 1318 744 
Q 1556 219 2034 219 
z
M 2034 -91 
Q 1275 -91 848 546 
Q 422 1184 422 2328 
Q 422 3475 848 4112 
Q 1275 4750 2034 4750 
Q 2797 4750 3222 4112 
Q 3647 3475 3647 2328 
Q 3647 1184 3222 546 
Q 2797 -91 2034 -91 
z
" transform="scale(0.015625)"/>
       </defs>
       <use xlink:href="#DejaVuSerif-2212"/>
       <use xlink:href="#DejaVuSerif-33" x="83.789062"/>
       <use xlink:href="#DejaVuSerif-30" x="147.412109"/>
      </g>
     </g>
    </g>
    <g id="xtick_2">
     <g id="line2d_2">
      <path d="M 602.656895 588.888 
L 602.656895 43.152 
" clip-path="url(#pd62f8a371b)" style="fill: none; stroke: #cccccc; stroke-linecap: round"/>
     </g>
     <g id="text_2">
      <!-- −20 -->
      <g style="fill: #262626" transform="translate(582.924012 612.597078) scale(0.187 -0.187)">
       <defs>
        <path id="DejaVuSerif-32" d="M 819 3553 
L 469 3553 
L 469 4384 
Q 803 4563 1142 4656 
Q 1481 4750 1806 4750 
Q 2534 4750 2956 4397 
Q 3378 4044 3378 3438 
Q 3378 2753 2422 1800 
Q 2347 1728 2309 1691 
L 1131 513 
L 3078 513 
L 3078 1088 
L 3444 1088 
L 3444 0 
L 434 0 
L 434 341 
L 1850 1753 
Q 2319 2222 2519 2614 
Q 2719 3006 2719 3438 
Q 2719 3909 2473 4175 
Q 2228 4441 1797 4441 
Q 1350 4441 1106 4219 
Q 863 3997 819 3553 
z
" transform="scale(0.015625)"/>
       </defs>
       <use xlink:href="#DejaVuSerif-2212"/>
       <use xlink:href="#DejaVuSerif-32" x="83.789062"/>
       <use xlink:href="#DejaVuSerif-30" x="147.412109"/>
      </g>
     </g>
    </g>
    <g id="xtick_3">
     <g id="line2d_3">
      <path d="M 665.971858 588.888 
L 665.971858 43.152 
" clip-path="url(#pd62f8a371b)" style="fill: none; stroke: #cccccc; stroke-linecap: round"/>
     </g>
     <g id="text_3">
      <!-- −10 -->
      <g style="fill: #262626" transform="translate(646.238975 612.597078) scale(0.187 -0.187)">
       <defs>
        <path id="DejaVuSerif-31" d="M 909 0 
L 909 331 
L 1722 331 
L 1722 4213 
L 781 3603 
L 781 4013 
L 1919 4750 
L 2350 4750 
L 2350 331 
L 3163 331 
L 3163 0 
L 909 0 
z
" transform="scale(0.015625)"/>
       </defs>
       <use xlink:href="#DejaVuSerif-2212"/>
       <use xlink:href="#DejaVuSerif-31" x="83.789062"/>
       <use xlink:href="#DejaVuSerif-30" x="147.412109"/>
      </g>
     </g>
    </g>
    <g id="xtick_4">
     <g id="line2d_4">
      <path d="M 729.28682 588.888 
L 729.28682 43.152 
" clip-path="url(#pd62f8a371b)" style="fill: none; stroke: #cccccc; stroke-linecap: round"/>
     </g>
     <g id="text_4">
      <!-- 0 -->
      <g style="fill: #262626" transform="translate(723.337883 612.597078) scale(0.187 -0.187)">
       <use xlink:href="#DejaVuSerif-30"/>
      </g>
     </g>
    </g>
    <g id="text_5">
     <!-- $x$ (m) -->
     <g style="fill: #262626" transform="translate(629.712 635.986906) scale(0.204 -0.204)">
      <defs>
       <path id="DejaVuSans-Oblique-78" d="M 3841 3500 
L 2234 1784 
L 3219 0 
L 2559 0 
L 1819 1388 
L 531 0 
L -166 0 
L 1556 1844 
L 641 3500 
L 1300 3500 
L 1972 2234 
L 3144 3500 
L 3841 3500 
z
" transform="scale(0.015625)"/>
       <path id="DejaVuSerif-20" transform="scale(0.015625)"/>
       <path id="DejaVuSerif-28" d="M 2041 -997 
Q 1281 -656 893 83 
Q 506 822 506 1931 
Q 506 3044 893 3783 
Q 1281 4522 2041 4863 
L 2041 4556 
Q 1559 4225 1350 3623 
Q 1141 3022 1141 1931 
Q 1141 844 1350 242 
Q 1559 -359 2041 -691 
L 2041 -997 
z
" transform="scale(0.015625)"/>
       <path id="DejaVuSerif-6d" d="M 3316 2675 
Q 3481 3041 3739 3227 
Q 3997 3413 4341 3413 
Q 4863 3413 5119 3089 
Q 5375 2766 5375 2113 
L 5375 331 
L 5894 331 
L 5894 0 
L 4300 0 
L 4300 331 
L 4800 331 
L 4800 2047 
Q 4800 2556 4650 2772 
Q 4500 2988 4153 2988 
Q 3769 2988 3567 2697 
Q 3366 2406 3366 1850 
L 3366 331 
L 3866 331 
L 3866 0 
L 2291 0 
L 2291 331 
L 2791 331 
L 2791 2069 
Q 2791 2566 2641 2777 
Q 2491 2988 2144 2988 
Q 1759 2988 1557 2697 
Q 1356 2406 1356 1850 
L 1356 331 
L 1856 331 
L 1856 0 
L 263 0 
L 263 331 
L 781 331 
L 781 2994 
L 231 2994 
L 231 3322 
L 1356 3322 
L 1356 2731 
Q 1516 3063 1762 3238 
Q 2009 3413 2322 3413 
Q 2709 3413 2968 3220 
Q 3228 3028 3316 2675 
z
" transform="scale(0.015625)"/>
       <path id="DejaVuSerif-29" d="M 453 -997 
L 453 -691 
Q 934 -359 1145 242 
Q 1356 844 1356 1931 
Q 1356 3022 1145 3623 
Q 934 4225 453 4556 
L 453 4863 
Q 1216 4522 1603 3783 
Q 1991 3044 1991 1931 
Q 1991 822 1603 83 
Q 1216 -656 453 -997 
z
" transform="scale(0.015625)"/>
      </defs>
      <use xlink:href="#DejaVuSans-Oblique-78" transform="translate(0 0.015625)"/>
      <use xlink:href="#DejaVuSerif-20" transform="translate(59.179688 0.015625)"/>
      <use xlink:href="#DejaVuSerif-28" transform="translate(90.966797 0.015625)"/>
      <use xlink:href="#DejaVuSerif-6d" transform="translate(129.980469 0.015625)"/>
      <use xlink:href="#DejaVuSerif-29" transform="translate(224.804688 0.015625)"/>
     </g>
    </g>
   </g>
   <g id="matplotlib.axis_2">
    <g id="ytick_1">
     <g id="line2d_5">
      <path d="M 536.691367 577.811981 
L 776.588633 577.811981 
" clip-path="url(#pd62f8a371b)" style="fill: none; stroke: #cccccc; stroke-linecap: round"/>
     </g>
     <g id="text_6">
      <!-- −20 -->
      <g style="fill: #262626" transform="translate(487.725602 584.91652) scale(0.187 -0.187)">
       <use xlink:href="#DejaVuSerif-2212"/>
       <use xlink:href="#DejaVuSerif-32" x="83.789062"/>
       <use xlink:href="#DejaVuSerif-30" x="147.412109"/>
      </g>
     </g>
    </g>
    <g id="ytick_2">
     <g id="line2d_6">
      <path d="M 536.691367 514.497018 
L 776.588633 514.497018 
" clip-path="url(#pd62f8a371b)" style="fill: none; stroke: #cccccc; stroke-linecap: round"/>
     </g>
     <g id="text_7">
      <!-- −10 -->
      <g style="fill: #262626" transform="translate(487.725602 521.601557) scale(0.187 -0.187)">
       <use xlink:href="#DejaVuSerif-2212"/>
       <use xlink:href="#DejaVuSerif-31" x="83.789062"/>
       <use xlink:href="#DejaVuSerif-30" x="147.412109"/>
      </g>
     </g>
    </g>
    <g id="ytick_3">
     <g id="line2d_7">
      <path d="M 536.691367 451.182056 
L 776.588633 451.182056 
" clip-path="url(#pd62f8a371b)" style="fill: none; stroke: #cccccc; stroke-linecap: round"/>
     </g>
     <g id="text_8">
      <!-- 0 -->
      <g style="fill: #262626" transform="translate(515.293492 458.286595) scale(0.187 -0.187)">
       <use xlink:href="#DejaVuSerif-30"/>
      </g>
     </g>
    </g>
    <g id="ytick_4">
     <g id="line2d_8">
      <path d="M 536.691367 387.867093 
L 776.588633 387.867093 
" clip-path="url(#pd62f8a371b)" style="fill: none; stroke: #cccccc; stroke-linecap: round"/>
     </g>
     <g id="text_9">
      <!-- 10 -->
      <g style="fill: #262626" transform="translate(503.395617 394.971632) scale(0.187 -0.187)">
       <use xlink:href="#DejaVuSerif-31"/>
       <use xlink:href="#DejaVuSerif-30" x="63.623047"/>
      </g>
     </g>
    </g>
    <g id="ytick_5">
     <g id="line2d_9">
      <path d="M 536.691367 324.552131 
L 776.588633 324.552131 
" clip-path="url(#pd62f8a371b)" style="fill: none; stroke: #cccccc; stroke-linecap: round"/>
     </g>
     <g id="text_10">
      <!-- 20 -->
      <g style="fill: #262626" transform="translate(503.395617 331.65667) scale(0.187 -0.187)">
       <use xlink:href="#DejaVuSerif-32"/>
       <use xlink:href="#DejaVuSerif-30" x="63.623047"/>
      </g>
     </g>
    </g>
    <g id="ytick_6">
     <g id="line2d_10">
      <path d="M 536.691367 261.237168 
L 776.588633 261.237168 
" clip-path="url(#pd62f8a371b)" style="fill: none; stroke: #cccccc; stroke-linecap: round"/>
     </g>
     <g id="text_11">
      <!-- 30 -->
      <g style="fill: #262626" transform="translate(503.395617 268.341707) scale(0.187 -0.187)">
       <use xlink:href="#DejaVuSerif-33"/>
       <use xlink:href="#DejaVuSerif-30" x="63.623047"/>
      </g>
     </g>
    </g>
    <g id="ytick_7">
     <g id="line2d_11">
      <path d="M 536.691367 197.922206 
L 776.588633 197.922206 
" clip-path="url(#pd62f8a371b)" style="fill: none; stroke: #cccccc; stroke-linecap: round"/>
     </g>
     <g id="text_12">
      <!-- 40 -->
      <g style="fill: #262626" transform="translate(503.395617 205.026745) scale(0.187 -0.187)">
       <defs>
        <path id="DejaVuSerif-34" d="M 2234 1581 
L 2234 4063 
L 641 1581 
L 2234 1581 
z
M 3609 0 
L 1484 0 
L 1484 331 
L 2234 331 
L 2234 1247 
L 197 1247 
L 197 1588 
L 2241 4750 
L 2859 4750 
L 2859 1581 
L 3750 1581 
L 3750 1247 
L 2859 1247 
L 2859 331 
L 3609 331 
L 3609 0 
z
" transform="scale(0.015625)"/>
       </defs>
       <use xlink:href="#DejaVuSerif-34"/>
       <use xlink:href="#DejaVuSerif-30" x="63.623047"/>
      </g>
     </g>
    </g>
    <g id="ytick_8">
     <g id="line2d_12">
      <path d="M 536.691367 134.607243 
L 776.588633 134.607243 
" clip-path="url(#pd62f8a371b)" style="fill: none; stroke: #cccccc; stroke-linecap: round"/>
     </g>
     <g id="text_13">
      <!-- 50 -->
      <g style="fill: #262626" transform="translate(503.395617 141.711782) scale(0.187 -0.187)">
       <defs>
        <path id="DejaVuSerif-35" d="M 3219 4666 
L 3219 4153 
L 1081 4153 
L 1081 2816 
Q 1244 2928 1461 2984 
Q 1678 3041 1947 3041 
Q 2703 3041 3140 2622 
Q 3578 2203 3578 1478 
Q 3578 738 3136 323 
Q 2694 -91 1894 -91 
Q 1572 -91 1234 -12 
Q 897 66 544 225 
L 544 1131 
L 897 1131 
Q 925 688 1179 453 
Q 1434 219 1894 219 
Q 2388 219 2653 544 
Q 2919 869 2919 1478 
Q 2919 2084 2655 2407 
Q 2391 2731 1894 2731 
Q 1613 2731 1398 2631 
Q 1184 2531 1019 2322 
L 750 2322 
L 750 4666 
L 3219 4666 
z
" transform="scale(0.015625)"/>
       </defs>
       <use xlink:href="#DejaVuSerif-35"/>
       <use xlink:href="#DejaVuSerif-30" x="63.623047"/>
      </g>
     </g>
    </g>
    <g id="ytick_9">
     <g id="line2d_13">
      <path d="M 536.691367 71.292281 
L 776.588633 71.292281 
" clip-path="url(#pd62f8a371b)" style="fill: none; stroke: #cccccc; stroke-linecap: round"/>
     </g>
     <g id="text_14">
      <!-- 60 -->
      <g style="fill: #262626" transform="translate(503.395617 78.39682) scale(0.187 -0.187)">
       <defs>
        <path id="DejaVuSerif-36" d="M 2094 219 
Q 2534 219 2771 542 
Q 3009 866 3009 1472 
Q 3009 2078 2771 2401 
Q 2534 2725 2094 2725 
Q 1647 2725 1412 2412 
Q 1178 2100 1178 1509 
Q 1178 888 1415 553 
Q 1653 219 2094 219 
z
M 1075 2569 
Q 1288 2803 1556 2918 
Q 1825 3034 2163 3034 
Q 2859 3034 3264 2615 
Q 3669 2197 3669 1472 
Q 3669 763 3233 336 
Q 2797 -91 2069 -91 
Q 1278 -91 853 498 
Q 428 1088 428 2181 
Q 428 3406 931 4078 
Q 1434 4750 2350 4750 
Q 2597 4750 2869 4703 
Q 3141 4656 3425 4563 
L 3425 3794 
L 3072 3794 
Q 3034 4109 2831 4275 
Q 2628 4441 2284 4441 
Q 1678 4441 1381 3981 
Q 1084 3522 1075 2569 
z
" transform="scale(0.015625)"/>
       </defs>
       <use xlink:href="#DejaVuSerif-36"/>
       <use xlink:href="#DejaVuSerif-30" x="63.623047"/>
      </g>
     </g>
    </g>
    <g id="text_15">
     <!-- $y$ (m) -->
     <g style="fill: #262626" transform="translate(479.441602 342.948) rotate(-90) scale(0.204 -0.204)">
      <defs>
       <path id="DejaVuSans-Oblique-79" d="M 1588 -325 
Q 1188 -997 936 -1164 
Q 684 -1331 294 -1331 
L -159 -1331 
L -63 -850 
L 269 -850 
Q 509 -850 678 -719 
Q 847 -588 1056 -206 
L 1234 128 
L 459 3500 
L 1069 3500 
L 1650 819 
L 3256 3500 
L 3859 3500 
L 1588 -325 
z
" transform="scale(0.015625)"/>
      </defs>
      <use xlink:href="#DejaVuSans-Oblique-79" transform="translate(0 0.015625)"/>
      <use xlink:href="#DejaVuSerif-20" transform="translate(59.179688 0.015625)"/>
      <use xlink:href="#DejaVuSerif-28" transform="translate(90.966797 0.015625)"/>
      <use xlink:href="#DejaVuSerif-6d" transform="translate(129.980469 0.015625)"/>
      <use xlink:href="#DejaVuSerif-29" transform="translate(224.804688 0.015625)"/>
     </g>
    </g>
   </g>
   <g id="line2d_14">
    <path d="M 566.48421 124.850941 
L 566.4998 124.80719 
L 566.498873 124.809571 
L 567.045865 124.824455 
L 567.640365 124.819164 
L 568.069107 124.703386 
L 568.557645 124.694893 
L 569.131585 124.524176 
L 570.475148 124.38318 
L 573.826734 123.918297 
L 575.812193 123.653726 
L 576.959257 123.742632 
L 579.244918 123.405617 
L 581.725875 122.971112 
L 584.156762 122.536748 
L 588.022057 121.960236 
L 589.353604 121.837503 
L 593.441315 121.130376 
L 596.243171 120.768472 
L 597.639124 120.389963 
L 601.9365 119.630012 
L 603.364757 119.466882 
L 606.39436 118.856409 
L 608.969277 118.321869 
L 616.949273 116.730175 
L 618.522862 116.321646 
L 635.416627 113.24188 
L 639.853133 112.749599 
L 642.738899 112.628536 
L 644.157298 112.700285 
L 646.755901 113.150901 
L 649.426837 113.951969 
L 651.878271 115.030167 
L 654.020706 116.332142 
L 655.73218 117.790449 
L 656.490163 118.730795 
L 657.757449 120.875166 
L 658.386546 121.981795 
L 659.478206 124.517135 
L 660.320908 127.226914 
L 661.04879 130.133424 
L 662.066169 134.776303 
L 663.082775 139.485246 
L 665.577581 153.223385 
L 669.486187 172.060852 
L 670.619351 178.169365 
L 673.277453 190.68129 
L 674.433266 197.380542 
L 674.684634 199.668013 
L 675.39022 204.157703 
L 675.745551 206.458006 
L 677.993716 217.84322 
L 679.061903 224.705004 
L 681.532817 236.527263 
L 681.898097 238.811763 
L 682.981783 243.372318 
L 685.582806 254.388089 
L 686.793657 258.730163 
L 687.999464 263.459757 
L 689.321342 269.797179 
L 691.060382 276.263695 
L 694.446557 291.105204 
L 697.282074 303.344704 
L 699.078136 311.478605 
L 700.485629 317.66419 
L 703.74763 334.998446 
L 704.303895 336.791706 
L 704.660946 338.684168 
L 704.940744 342.254777 
L 704.939912 343.94052 
L 705.186854 345.188078 
L 705.305231 346.846612 
L 704.955399 350.745018 
L 704.032323 355.387726 
L 703.538045 357.000971 
L 702.246433 359.846165 
L 700.631576 362.570164 
L 699.702038 363.69683 
L 698.583207 364.531097 
L 696.48173 366.685898 
L 692.557638 369.404263 
L 691.146074 370.197105 
L 686.589712 371.829964 
L 679.961418 373.57364 
L 676.525003 374.259408 
L 662.54915 376.932634 
L 655.202883 377.794459 
L 651.589638 378.638969 
L 649.779033 378.908138 
L 648.027846 379.45837 
L 640.664448 380.842515 
L 638.694627 381.113237 
L 631.303165 382.619886 
L 627.663542 383.429467 
L 622.669841 384.716504 
L 619.540276 385.804594 
L 615.386749 387.771606 
L 613.999726 388.620612 
L 612.707611 389.56336 
L 610.540651 391.554118 
L 607.578762 395.470524 
L 606.353929 397.786201 
L 605.888838 398.984916 
L 605.510771 400.407612 
L 605.117885 403.273011 
L 604.95669 407.644506 
L 605.010836 410.516089 
L 605.406652 413.675742 
L 607.292662 424.422832 
L 609.318593 433.471909 
L 611.711971 442.726164 
L 613.351 448.796961 
L 614.258534 452.939333 
L 614.785786 454.861793 
L 616.12942 460.925456 
L 617.073981 465.099217 
L 617.905056 469.186718 
L 621.711282 491.307302 
L 622.214345 495.175697 
L 622.619452 496.755488 
L 623.949627 505.564103 
L 624.721777 508.637337 
L 625.180937 510.110069 
L 625.730125 511.356217 
L 627.937059 514.877275 
L 628.752412 515.925338 
L 629.628736 516.777556 
L 630.58516 517.479766 
L 631.39721 518.296304 
L 633.491204 519.42152 
L 634.578023 519.868109 
L 638.407433 520.768107 
L 641.048269 520.75103 
L 651.678156 519.117111 
L 663.957044 516.817506 
L 665.699911 516.42264 
L 673.524874 515.206943 
L 683.507607 513.220637 
L 691.567511 511.418577 
L 712.013313 506.477457 
L 718.684008 504.346224 
L 721.639017 503.091319 
L 725.956482 500.928305 
L 728.561527 499.306184 
L 730.858273 497.523494 
L 732.759438 495.534103 
L 734.884201 492.773459 
L 736.225021 490.616595 
L 738.416238 486.701028 
L 739.155315 484.852248 
L 740.068949 483.20642 
L 742.111318 479.389589 
L 742.398404 477.769509 
L 743.303369 476.147799 
L 743.303369 476.147799 
" clip-path="url(#pd62f8a371b)" style="fill: none; stroke: #000000; stroke-opacity: 0.501961; stroke-width: 1.3; stroke-linecap: round"/>
   </g>
   <g id="line2d_15">
    <path d="M 548.719833 87.815556 
L 548.728501 87.825149 
L 548.817362 87.809093 
L 553.046415 86.886906 
L 556.812354 86.214549 
L 564.000745 85.078914 
L 580.119223 82.456544 
L 596.753016 78.844676 
L 604.698439 76.826945 
L 615.192557 74.268638 
L 621.655687 73.387012 
L 625.125059 72.562772 
L 632.174883 70.890925 
L 633.759297 70.806133 
L 635.224816 70.877845 
L 637.857832 71.458671 
L 640.200692 72.417586 
L 642.477681 73.552061 
L 646.354849 75.379079 
L 647.614489 76.072378 
L 648.682955 76.92967 
L 649.625102 77.859523 
L 650.361783 78.934987 
L 652.087959 82.479105 
L 653.054341 85.102567 
L 655.259439 92.651044 
L 656.630991 96.630762 
L 657.973823 100.971627 
L 659.050815 105.178886 
L 660.720786 112.604927 
L 667.867506 139.511246 
L 669.652458 146.340904 
L 672.204774 156.137077 
L 674.742535 166.946962 
L 676.354643 174.457234 
L 678.956189 185.400986 
L 680.756159 193.273911 
L 681.860066 198.220541 
L 683.733619 205.897458 
L 689.838111 228.526397 
L 692.606292 238.539852 
L 697.027633 253.084995 
L 699.400521 260.681 
L 702.060245 269.985161 
L 709.954099 298.726574 
L 712.57416 308.157912 
L 715.373312 319.516741 
L 717.759698 329.17131 
L 719.11245 335.26714 
L 720.361322 341.239533 
L 721.03754 344.915127 
L 721.599003 349.276359 
L 721.76375 351.62063 
L 721.767375 353.966948 
L 721.655108 356.172652 
L 721.352878 358.221332 
L 720.916262 360.049994 
L 720.275053 361.543859 
L 717.71294 365.060997 
L 716.707804 366.13824 
L 714.523964 367.981008 
L 710.287788 371.677005 
L 708.685346 372.885988 
L 707.015331 373.97034 
L 705.326875 374.869199 
L 703.693268 375.495876 
L 697.267907 376.674323 
L 686.760632 378.262296 
L 682.987437 378.914618 
L 678.225916 379.838959 
L 662.189916 382.597197 
L 658.16701 383.53107 
L 655.932537 383.869844 
L 640.841857 385.32342 
L 636.88648 386.118385 
L 631.217314 387.503037 
L 623.678836 389.79366 
L 621.733675 390.524165 
L 619.941458 391.395617 
L 618.321755 392.383996 
L 616.890966 393.48318 
L 615.769411 394.60897 
L 614.043434 396.939621 
L 612.82402 399.122202 
L 607.025159 406.312676 
L 606.024264 407.998388 
L 605.25529 409.672985 
L 604.935866 411.318896 
L 604.97671 412.932463 
L 604.767195 416.475299 
L 604.76272 418.27651 
L 604.882865 419.946382 
L 604.908766 424.166774 
L 604.672418 434.291779 
L 604.845088 439.319721 
L 605.932727 450.826325 
L 607.342063 466.816487 
L 608.668501 478.783409 
L 610.65179 491.593078 
L 611.24805 497.478178 
L 611.745732 511.872014 
L 612.414014 525.745479 
L 613.143408 536.733988 
L 613.729192 545.228662 
L 614.285756 548.710081 
L 614.680628 550.264768 
L 615.212137 551.802908 
L 615.941151 553.227492 
L 616.777007 554.574122 
L 618.754997 557.088309 
L 620.896135 559.131477 
L 623.080988 560.547724 
L 625.4682 561.590458 
L 628.119814 562.179758 
L 630.948706 562.477198 
L 634.086219 562.477509 
L 639.434248 562.051586 
L 643.235002 561.62545 
L 648.279012 561.423977 
L 656.678586 561.256883 
L 661.656897 560.944086 
L 671.55721 559.602634 
L 683.495746 558.427401 
L 702.176251 555.9907 
L 717.302008 553.281734 
L 722.331762 552.291465 
L 726.923864 551.143072 
L 728.850931 550.521285 
L 732.068205 549.117872 
L 733.670845 548.337488 
L 736.550913 546.510662 
L 740.398388 543.177825 
L 744.69542 539.521629 
L 746.011878 538.286846 
L 747.198453 537.017761 
L 748.21199 535.743542 
L 751.108924 530.77458 
L 753.50518 526.739318 
L 755.284608 523.738195 
L 757.204972 520.011184 
L 757.598695 519.436048 
L 757.745773 519.068135 
L 757.813829 519.018729 
L 757.813829 519.018729 
" clip-path="url(#pd62f8a371b)" style="fill: none; stroke: #4c72b0; stroke-opacity: 0.74902; stroke-width: 1.3; stroke-linecap: round"/>
   </g>
   <g id="line2d_16">
    <path d="M 547.595789 91.699514 
L 547.770004 91.681677 
L 548.387559 91.477369 
L 554.84061 89.805906 
L 568.0748 86.866642 
L 583.929203 82.89897 
L 606.976355 75.919088 
L 616.019622 72.964308 
L 619.427248 72.108388 
L 634.09775 68.712051 
L 637.247722 68.202381 
L 638.937032 67.964857 
L 641.950894 67.976045 
L 645.102377 68.253858 
L 648.156266 68.842571 
L 649.520502 69.320618 
L 650.764086 69.941299 
L 651.916254 70.679028 
L 652.869141 71.545546 
L 654.495916 73.52094 
L 655.858617 75.749252 
L 656.997657 78.451992 
L 658.036907 81.498147 
L 659.334446 86.345353 
L 662.848012 101.255598 
L 664.189111 107.435892 
L 670.06573 131.842557 
L 672.656486 143.828215 
L 676.897046 164.431712 
L 679.282186 177.687578 
L 681.92514 191.632456 
L 684.046889 202.62747 
L 686.578799 213.839132 
L 691.339364 233.431785 
L 694.790956 246.733227 
L 702.278603 275.676946 
L 704.180263 283.338102 
L 706.059793 290.78026 
L 707.256649 295.745514 
L 709.186755 303.186605 
L 710.964536 310.494314 
L 713.604124 322.667267 
L 714.689978 327.311097 
L 715.535271 331.845718 
L 718.212828 348.593657 
L 718.181992 350.554361 
L 717.98669 352.538814 
L 717.65728 354.492288 
L 716.656965 358.193369 
L 715.302899 361.335553 
L 714.558193 362.778453 
L 713.661491 364.26426 
L 712.624199 365.660769 
L 710.259117 368.299187 
L 707.596076 370.552523 
L 706.155995 371.463011 
L 701.536355 373.68496 
L 697.928835 375.133912 
L 694.078705 376.393049 
L 690.15902 377.408587 
L 686.328094 378.038596 
L 682.324007 378.878804 
L 672.076217 381.641068 
L 670.007683 382.023599 
L 654.893961 383.979447 
L 645.922855 385.526389 
L 630.195717 388.008173 
L 626.072946 388.969232 
L 621.945135 390.072632 
L 619.929282 390.638302 
L 616.005814 392.036102 
L 614.189573 392.850963 
L 612.543498 393.745215 
L 609.434058 395.774666 
L 606.462014 397.892879 
L 603.927322 400.018548 
L 601.788522 402.247288 
L 600.944387 403.480935 
L 599.481673 406.271932 
L 598.86833 407.863527 
L 598.34571 409.541191 
L 598.005198 411.284044 
L 597.591475 414.923267 
L 597.481678 418.520832 
L 597.511744 424.668049 
L 597.827867 431.332439 
L 598.367317 437.772273 
L 598.846682 442.454458 
L 599.956098 450.040575 
L 606.708771 490.573704 
L 607.336645 495.87822 
L 607.727658 500.575042 
L 609.565489 518.873849 
L 610.462927 528.614723 
L 611.887434 542.72589 
L 612.465971 546.749211 
L 613.308076 550.392751 
L 613.866513 552.079144 
L 614.539816 553.592965 
L 615.29892 554.969093 
L 616.179755 556.255313 
L 617.163236 557.466541 
L 619.348613 559.643979 
L 621.637567 561.333982 
L 624.190915 562.680662 
L 625.531563 563.157274 
L 626.988529 563.553752 
L 630.180737 563.977003 
L 633.757832 564.081818 
L 639.634459 563.673411 
L 648.025738 562.81804 
L 668.909421 560.463754 
L 693.892177 557.24673 
L 712.241231 554.424347 
L 721.641764 552.903933 
L 725.956917 552.091608 
L 730.199326 551.039675 
L 734.415161 549.718946 
L 738.410834 548.125273 
L 741.775893 546.457309 
L 744.941706 544.50355 
L 747.714244 542.357173 
L 748.999408 541.260644 
L 751.851157 538.239338 
L 754.594919 534.76338 
L 757.913576 529.982683 
L 763.868083 519.461421 
L 765.078236 516.724518 
L 765.562392 515.921698 
L 765.684211 515.576136 
L 765.684211 515.576136 
" clip-path="url(#pd62f8a371b)" style="fill: none; stroke: #55a868; stroke-opacity: 0.74902; stroke-width: 1.3; stroke-linecap: round"/>
   </g>
   <g id="patch_3">
    <path d="M 536.691367 588.888 
L 536.691367 43.152 
" style="fill: none; stroke: #cccccc; stroke-width: 1.25; stroke-linejoin: miter; stroke-linecap: square"/>
   </g>
   <g id="patch_4">
    <path d="M 776.588633 588.888 
L 776.588633 43.152 
" style="fill: none; stroke: #cccccc; stroke-width: 1.25; stroke-linejoin: miter; stroke-linecap: square"/>
   </g>
   <g id="patch_5">
    <path d="M 536.691367 588.888 
L 776.588633 588.888 
" style="fill: none; stroke: #cccccc; stroke-width: 1.25; stroke-linejoin: miter; stroke-linecap: square"/>
   </g>
   <g id="patch_6">
    <path d="M 536.691367 43.152 
L 776.588633 43.152 
" style="fill: none; stroke: #cccccc; stroke-width: 1.25; stroke-linejoin: miter; stroke-linecap: square"/>
   </g>
   <g id="text_16">
    <!-- school-scooter -->
    <g style="fill: #262626" transform="translate(581.894719 37.152) scale(0.204 -0.204)">
     <defs>
      <path id="DejaVuSerif-73" d="M 359 184 
L 359 959 
L 691 959 
Q 703 588 923 403 
Q 1144 219 1575 219 
Q 1963 219 2166 364 
Q 2369 509 2369 788 
Q 2369 1006 2220 1140 
Q 2072 1275 1594 1428 
L 1178 1569 
Q 750 1706 558 1912 
Q 366 2119 366 2438 
Q 366 2894 700 3153 
Q 1034 3413 1625 3413 
Q 1888 3413 2178 3344 
Q 2469 3275 2778 3144 
L 2778 2419 
L 2447 2419 
Q 2434 2741 2221 2922 
Q 2009 3103 1644 3103 
Q 1281 3103 1095 2975 
Q 909 2847 909 2591 
Q 909 2381 1050 2254 
Q 1191 2128 1613 1997 
L 2069 1856 
Q 2541 1709 2748 1489 
Q 2956 1269 2956 922 
Q 2956 450 2595 179 
Q 2234 -91 1600 -91 
Q 1278 -91 972 -22 
Q 666 47 359 184 
z
" transform="scale(0.015625)"/>
      <path id="DejaVuSerif-63" d="M 3291 997 
Q 3169 466 2822 187 
Q 2475 -91 1925 -91 
Q 1200 -91 759 389 
Q 319 869 319 1663 
Q 319 2459 759 2936 
Q 1200 3413 1925 3413 
Q 2241 3413 2553 3339 
Q 2866 3266 3181 3116 
L 3181 2266 
L 2847 2266 
Q 2781 2703 2561 2903 
Q 2341 3103 1931 3103 
Q 1466 3103 1228 2742 
Q 991 2381 991 1663 
Q 991 944 1227 581 
Q 1463 219 1931 219 
Q 2303 219 2525 412 
Q 2747 606 2828 997 
L 3291 997 
z
" transform="scale(0.015625)"/>
      <path id="DejaVuSerif-68" d="M 263 0 
L 263 331 
L 781 331 
L 781 4531 
L 231 4531 
L 231 4863 
L 1356 4863 
L 1356 2731 
Q 1516 3069 1770 3241 
Q 2025 3413 2363 3413 
Q 2913 3413 3172 3097 
Q 3431 2781 3431 2113 
L 3431 331 
L 3944 331 
L 3944 0 
L 2356 0 
L 2356 331 
L 2853 331 
L 2853 1931 
Q 2853 2541 2704 2764 
Q 2556 2988 2175 2988 
Q 1775 2988 1565 2697 
Q 1356 2406 1356 1850 
L 1356 331 
L 1856 331 
L 1856 0 
L 263 0 
z
" transform="scale(0.015625)"/>
      <path id="DejaVuSerif-6f" d="M 1925 219 
Q 2388 219 2623 584 
Q 2859 950 2859 1663 
Q 2859 2375 2623 2739 
Q 2388 3103 1925 3103 
Q 1463 3103 1227 2739 
Q 991 2375 991 1663 
Q 991 950 1228 584 
Q 1466 219 1925 219 
z
M 1925 -91 
Q 1200 -91 759 389 
Q 319 869 319 1663 
Q 319 2456 758 2934 
Q 1197 3413 1925 3413 
Q 2653 3413 3092 2934 
Q 3531 2456 3531 1663 
Q 3531 869 3092 389 
Q 2653 -91 1925 -91 
z
" transform="scale(0.015625)"/>
      <path id="DejaVuSerif-6c" d="M 1313 331 
L 1856 331 
L 1856 0 
L 184 0 
L 184 331 
L 738 331 
L 738 4531 
L 184 4531 
L 184 4863 
L 1313 4863 
L 1313 331 
z
" transform="scale(0.015625)"/>
      <path id="DejaVuSerif-2d" d="M 281 1959 
L 1881 1959 
L 1881 1472 
L 281 1472 
L 281 1959 
z
" transform="scale(0.015625)"/>
      <path id="DejaVuSerif-74" d="M 691 2988 
L 184 2988 
L 184 3322 
L 691 3322 
L 691 4353 
L 1269 4353 
L 1269 3322 
L 2350 3322 
L 2350 2988 
L 1269 2988 
L 1269 878 
Q 1269 456 1350 337 
Q 1431 219 1650 219 
Q 1875 219 1978 351 
Q 2081 484 2088 781 
L 2522 781 
Q 2497 328 2275 118 
Q 2053 -91 1600 -91 
Q 1103 -91 897 129 
Q 691 350 691 878 
L 691 2988 
z
" transform="scale(0.015625)"/>
      <path id="DejaVuSerif-65" d="M 3469 1600 
L 991 1600 
L 991 1575 
Q 991 903 1244 561 
Q 1497 219 1991 219 
Q 2369 219 2611 417 
Q 2853 616 2950 1006 
L 3413 1006 
Q 3275 459 2904 184 
Q 2534 -91 1931 -91 
Q 1203 -91 761 389 
Q 319 869 319 1663 
Q 319 2450 753 2931 
Q 1188 3413 1894 3413 
Q 2647 3413 3050 2948 
Q 3453 2484 3469 1600 
z
M 2791 1931 
Q 2772 2513 2545 2808 
Q 2319 3103 1894 3103 
Q 1497 3103 1269 2806 
Q 1041 2509 991 1931 
L 2791 1931 
z
" transform="scale(0.015625)"/>
      <path id="DejaVuSerif-72" d="M 3059 3328 
L 3059 2497 
L 2728 2497 
Q 2713 2744 2591 2866 
Q 2469 2988 2234 2988 
Q 1809 2988 1582 2694 
Q 1356 2400 1356 1850 
L 1356 331 
L 2022 331 
L 2022 0 
L 263 0 
L 263 331 
L 781 331 
L 781 2994 
L 231 2994 
L 231 3322 
L 1356 3322 
L 1356 2731 
Q 1525 3078 1790 3245 
Q 2056 3413 2438 3413 
Q 2578 3413 2733 3391 
Q 2888 3369 3059 3328 
z
" transform="scale(0.015625)"/>
     </defs>
     <use xlink:href="#DejaVuSerif-73"/>
     <use xlink:href="#DejaVuSerif-63" x="51.318359"/>
     <use xlink:href="#DejaVuSerif-68" x="107.324219"/>
     <use xlink:href="#DejaVuSerif-6f" x="171.728516"/>
     <use xlink:href="#DejaVuSerif-6f" x="231.933594"/>
     <use xlink:href="#DejaVuSerif-6c" x="292.138672"/>
     <use xlink:href="#DejaVuSerif-2d" x="324.121094"/>
     <use xlink:href="#DejaVuSerif-73" x="357.910156"/>
     <use xlink:href="#DejaVuSerif-63" x="409.228516"/>
     <use xlink:href="#DejaVuSerif-6f" x="465.234375"/>
     <use xlink:href="#DejaVuSerif-6f" x="525.439453"/>
     <use xlink:href="#DejaVuSerif-74" x="585.644531"/>
     <use xlink:href="#DejaVuSerif-65" x="625.830078"/>
     <use xlink:href="#DejaVuSerif-72" x="685.009766"/>
    </g>
   </g>
   <g id="legend_1">
    <g id="patch_7">
     <path d="M 557.056476 360.65018 
L 763.498633 360.65018 
Q 767.238633 360.65018 767.238633 356.91018 
L 767.238633 275.12982 
Q 767.238633 271.38982 763.498633 271.38982 
L 557.056476 271.38982 
Q 553.316476 271.38982 553.316476 275.12982 
L 553.316476 356.91018 
Q 553.316476 360.65018 557.056476 360.65018 
z
" style="fill: #ffffff; opacity: 0.8; stroke: #cccccc; stroke-linejoin: miter"/>
    </g>
    <g id="line2d_17">
     <path d="M 560.796476 286.533898 
L 579.496476 286.533898 
L 598.196476 286.533898 
" style="fill: none; stroke: #000000; stroke-opacity: 0.501961; stroke-width: 1.3; stroke-linecap: round"/>
    </g>
    <g id="text_17">
     <!-- gt -->
     <g style="fill: #262626" transform="translate(613.156476 293.078898) scale(0.187 -0.187)">
      <defs>
       <path id="DejaVuSerif-67" d="M 3359 2988 
L 3359 72 
Q 3359 -644 2965 -1033 
Q 2572 -1422 1844 -1422 
Q 1516 -1422 1216 -1362 
Q 916 -1303 641 -1184 
L 641 -488 
L 941 -488 
Q 997 -813 1206 -963 
Q 1416 -1113 1806 -1113 
Q 2313 -1113 2548 -827 
Q 2784 -541 2784 72 
L 2784 519 
Q 2616 206 2355 57 
Q 2094 -91 1709 -91 
Q 1097 -91 708 395 
Q 319 881 319 1663 
Q 319 2444 706 2928 
Q 1094 3413 1709 3413 
Q 2094 3413 2355 3264 
Q 2616 3116 2784 2803 
L 2784 3322 
L 3909 3322 
L 3909 2988 
L 3359 2988 
z
M 2784 1825 
Q 2784 2422 2554 2737 
Q 2325 3053 1888 3053 
Q 1444 3053 1217 2703 
Q 991 2353 991 1663 
Q 991 975 1217 622 
Q 1444 269 1888 269 
Q 2325 269 2554 583 
Q 2784 897 2784 1497 
L 2784 1825 
z
" transform="scale(0.015625)"/>
      </defs>
      <use xlink:href="#DejaVuSerif-67"/>
      <use xlink:href="#DejaVuSerif-74" x="64.013672"/>
     </g>
    </g>
    <g id="line2d_18">
     <path d="M 560.796476 314.247883 
L 579.496476 314.247883 
L 598.196476 314.247883 
" style="fill: none; stroke: #4c72b0; stroke-opacity: 0.74902; stroke-width: 1.3; stroke-linecap: round"/>
    </g>
    <g id="text_18">
     <!-- DH-PTAM_CPU -->
     <g style="fill: #262626" transform="translate(613.156476 320.792883) scale(0.187 -0.187)">
      <defs>
       <path id="DejaVuSerif-44" d="M 1581 331 
L 2163 331 
Q 3072 331 3558 850 
Q 4044 1369 4044 2338 
Q 4044 3306 3559 3818 
Q 3075 4331 2163 4331 
L 1581 4331 
L 1581 331 
z
M 353 0 
L 353 331 
L 947 331 
L 947 4331 
L 353 4331 
L 353 4666 
L 2209 4666 
Q 3416 4666 4089 4050 
Q 4763 3434 4763 2338 
Q 4763 1238 4088 619 
Q 3413 0 2209 0 
L 353 0 
z
" transform="scale(0.015625)"/>
       <path id="DejaVuSerif-48" d="M 353 0 
L 353 331 
L 947 331 
L 947 4331 
L 353 4331 
L 353 4666 
L 2175 4666 
L 2175 4331 
L 1581 4331 
L 1581 2719 
L 4000 2719 
L 4000 4331 
L 3406 4331 
L 3406 4666 
L 5228 4666 
L 5228 4331 
L 4634 4331 
L 4634 331 
L 5228 331 
L 5228 0 
L 3406 0 
L 3406 331 
L 4000 331 
L 4000 2338 
L 1581 2338 
L 1581 331 
L 2175 331 
L 2175 0 
L 353 0 
z
" transform="scale(0.015625)"/>
       <path id="DejaVuSerif-50" d="M 1581 2375 
L 2406 2375 
Q 2872 2375 3115 2626 
Q 3359 2878 3359 3353 
Q 3359 3831 3115 4081 
Q 2872 4331 2406 4331 
L 1581 4331 
L 1581 2375 
z
M 353 0 
L 353 331 
L 947 331 
L 947 4331 
L 353 4331 
L 353 4666 
L 2559 4666 
Q 3259 4666 3668 4311 
Q 4078 3956 4078 3353 
Q 4078 2753 3668 2397 
Q 3259 2041 2559 2041 
L 1581 2041 
L 1581 331 
L 2303 331 
L 2303 0 
L 353 0 
z
" transform="scale(0.015625)"/>
       <path id="DejaVuSerif-54" d="M 1222 0 
L 1222 331 
L 1819 331 
L 1819 4294 
L 447 4294 
L 447 3566 
L 63 3566 
L 63 4666 
L 4206 4666 
L 4206 3566 
L 3822 3566 
L 3822 4294 
L 2450 4294 
L 2450 331 
L 3047 331 
L 3047 0 
L 1222 0 
z
" transform="scale(0.015625)"/>
       <path id="DejaVuSerif-41" d="M 1281 1691 
L 2994 1691 
L 2138 3909 
L 1281 1691 
z
M -38 0 
L -38 331 
L 372 331 
L 2034 4666 
L 2559 4666 
L 4225 331 
L 4684 331 
L 4684 0 
L 2988 0 
L 2988 331 
L 3506 331 
L 3116 1356 
L 1153 1356 
L 763 331 
L 1275 331 
L 1275 0 
L -38 0 
z
" transform="scale(0.015625)"/>
       <path id="DejaVuSerif-4d" d="M 353 0 
L 353 331 
L 947 331 
L 947 4331 
L 319 4331 
L 319 4666 
L 1678 4666 
L 3316 1344 
L 4953 4666 
L 6228 4666 
L 6228 4331 
L 5606 4331 
L 5606 331 
L 6203 331 
L 6203 0 
L 4378 0 
L 4378 331 
L 4972 331 
L 4972 3938 
L 3372 684 
L 2931 684 
L 1331 3938 
L 1331 331 
L 1925 331 
L 1925 0 
L 353 0 
z
" transform="scale(0.015625)"/>
       <path id="DejaVuSerif-5f" d="M 3200 -1259 
L 3200 -1509 
L 0 -1509 
L 0 -1259 
L 3200 -1259 
z
" transform="scale(0.015625)"/>
       <path id="DejaVuSerif-43" d="M 4513 1234 
Q 4306 581 3820 245 
Q 3334 -91 2591 -91 
Q 2134 -91 1743 65 
Q 1353 222 1050 525 
Q 700 875 529 1320 
Q 359 1766 359 2328 
Q 359 3416 987 4083 
Q 1616 4750 2644 4750 
Q 3025 4750 3456 4650 
Q 3888 4550 4384 4347 
L 4384 3272 
L 4031 3272 
Q 3916 3859 3567 4137 
Q 3219 4416 2591 4416 
Q 1844 4416 1459 3886 
Q 1075 3356 1075 2328 
Q 1075 1303 1459 773 
Q 1844 244 2591 244 
Q 3113 244 3450 492 
Q 3788 741 3938 1234 
L 4513 1234 
z
" transform="scale(0.015625)"/>
       <path id="DejaVuSerif-55" d="M 897 4331 
L 300 4331 
L 300 4666 
L 2125 4666 
L 2125 4331 
L 1528 4331 
L 1528 1919 
Q 1528 1025 1820 672 
Q 2113 319 2828 319 
Q 3544 319 3836 672 
Q 4128 1025 4128 1919 
L 4128 4331 
L 3531 4331 
L 3531 4666 
L 5106 4666 
L 5106 4331 
L 4513 4331 
L 4513 1856 
Q 4513 791 4103 350 
Q 3694 -91 2713 -91 
Q 1731 -91 1314 353 
Q 897 797 897 1856 
L 897 4331 
z
" transform="scale(0.015625)"/>
      </defs>
      <use xlink:href="#DejaVuSerif-44"/>
      <use xlink:href="#DejaVuSerif-48" x="80.175781"/>
      <use xlink:href="#DejaVuSerif-2d" x="167.382812"/>
      <use xlink:href="#DejaVuSerif-50" x="201.171875"/>
      <use xlink:href="#DejaVuSerif-54" x="268.457031"/>
      <use xlink:href="#DejaVuSerif-41" x="329.65625"/>
      <use xlink:href="#DejaVuSerif-4d" x="401.873047"/>
      <use xlink:href="#DejaVuSerif-5f" x="504.265625"/>
      <use xlink:href="#DejaVuSerif-43" x="554.265625"/>
      <use xlink:href="#DejaVuSerif-50" x="630.779297"/>
      <use xlink:href="#DejaVuSerif-55" x="696.314453"/>
     </g>
    </g>
    <g id="line2d_19">
     <path d="M 560.796476 342.21607 
L 579.496476 342.21607 
L 598.196476 342.21607 
" style="fill: none; stroke: #55a868; stroke-opacity: 0.74902; stroke-width: 1.3; stroke-linecap: round"/>
    </g>
    <g id="text_19">
     <!-- DH-PTAM_GPU -->
     <g style="fill: #262626" transform="translate(613.156476 348.76107) scale(0.187 -0.187)">
      <defs>
       <path id="DejaVuSerif-47" d="M 4097 3272 
Q 3988 3856 3641 4136 
Q 3294 4416 2675 4416 
Q 1869 4416 1472 3897 
Q 1075 3378 1075 2328 
Q 1075 1300 1484 772 
Q 1894 244 2688 244 
Q 3041 244 3362 331 
Q 3684 419 3975 594 
L 3975 1797 
L 3097 1797 
L 3097 2131 
L 4609 2131 
L 4609 391 
Q 4194 150 3714 29 
Q 3234 -91 2688 -91 
Q 1631 -91 995 570 
Q 359 1231 359 2328 
Q 359 3434 996 4092 
Q 1634 4750 2713 4750 
Q 3113 4750 3539 4658 
Q 3966 4566 4447 4378 
L 4447 3272 
L 4097 3272 
z
" transform="scale(0.015625)"/>
      </defs>
      <use xlink:href="#DejaVuSerif-44"/>
      <use xlink:href="#DejaVuSerif-48" x="80.175781"/>
      <use xlink:href="#DejaVuSerif-2d" x="167.382812"/>
      <use xlink:href="#DejaVuSerif-50" x="201.171875"/>
      <use xlink:href="#DejaVuSerif-54" x="268.457031"/>
      <use xlink:href="#DejaVuSerif-41" x="329.65625"/>
      <use xlink:href="#DejaVuSerif-4d" x="401.873047"/>
      <use xlink:href="#DejaVuSerif-5f" x="504.265625"/>
      <use xlink:href="#DejaVuSerif-47" x="554.265625"/>
      <use xlink:href="#DejaVuSerif-50" x="634.148438"/>
      <use xlink:href="#DejaVuSerif-55" x="699.683594"/>
     </g>
    </g>
   </g>
  </g>
 </g>
 <defs>
  <clipPath id="pd62f8a371b">
   <rect x="536.691367" y="43.152" width="239.897265" height="545.736"/>
  </clipPath>
 </defs>
</svg>
