<?xml version="1.0" encoding="utf-8" standalone="no"?>
<!DOCTYPE svg PUBLIC "-//W3C//DTD SVG 1.1//EN"
  "http://www.w3.org/Graphics/SVG/1.1/DTD/svg11.dtd">
<svg xmlns:xlink="http://www.w3.org/1999/xlink" width="1313.28pt" height="663.84pt" viewBox="0 0 1313.28 663.84" xmlns="http://www.w3.org/2000/svg" version="1.1">
 <metadata>
  <rdf:RDF xmlns:dc="http://purl.org/dc/elements/1.1/" xmlns:cc="http://creativecommons.org/ns#" xmlns:rdf="http://www.w3.org/1999/02/22-rdf-syntax-ns#">
   <cc:Work>
    <dc:type rdf:resource="http://purl.org/dc/dcmitype/StillImage"/>
    <dc:date>2023-03-02T11:04:42.169060</dc:date>
    <dc:format>image/svg+xml</dc:format>
    <dc:creator>
     <cc:Agent>
      <dc:title>Matplotlib v3.7.0, https://matplotlib.org/</dc:title>
     </cc:Agent>
    </dc:creator>
   </cc:Work>
  </rdf:RDF>
 </metadata>
 <defs>
  <style type="text/css">*{stroke-linejoin: round; stroke-linecap: butt}</style>
 </defs>
 <g id="figure_1">
  <g id="patch_1">
   <path d="M 0 663.84 
L 1313.28 663.84 
L 1313.28 0 
L 0 0 
z
" style="fill: #ffffff"/>
  </g>
  <g id="axes_1">
   <g id="patch_2">
    <path d="M 364.256656 588.888 
L 949.023344 588.888 
L 949.023344 43.152 
L 364.256656 43.152 
z
" style="fill: #ffffff"/>
   </g>
   <g id="matplotlib.axis_1">
    <g id="xtick_1">
     <g id="line2d_1">
      <path d="M 452.343007 588.888 
L 452.343007 43.152 
" clip-path="url(#p9ba34fc019)" style="fill: none; stroke: #cccccc; stroke-linecap: round"/>
     </g>
     <g id="text_1">
      <!-- 0 -->
      <g style="fill: #262626" transform="translate(446.39407 612.597078) scale(0.187 -0.187)">
       <defs>
        <path id="DejaVuSerif-30" d="M 2034 219 
Q 2513 219 2750 744 
Q 2988 1269 2988 2328 
Q 2988 3391 2750 3916 
Q 2513 4441 2034 4441 
Q 1556 4441 1318 3916 
Q 1081 3391 1081 2328 
Q 1081 1269 1318 744 
Q 1556 219 2034 219 
z
M 2034 -91 
Q 1275 -91 848 546 
Q 422 1184 422 2328 
Q 422 3475 848 4112 
Q 1275 4750 2034 4750 
Q 2797 4750 3222 4112 
Q 3647 3475 3647 2328 
Q 3647 1184 3222 546 
Q 2797 -91 2034 -91 
z
" transform="scale(0.015625)"/>
       </defs>
       <use xlink:href="#DejaVuSerif-30"/>
      </g>
     </g>
    </g>
    <g id="xtick_2">
     <g id="line2d_2">
      <path d="M 555.567016 588.888 
L 555.567016 43.152 
" clip-path="url(#p9ba34fc019)" style="fill: none; stroke: #cccccc; stroke-linecap: round"/>
     </g>
     <g id="text_2">
      <!-- 5 -->
      <g style="fill: #262626" transform="translate(549.618079 612.597078) scale(0.187 -0.187)">
       <defs>
        <path id="DejaVuSerif-35" d="M 3219 4666 
L 3219 4153 
L 1081 4153 
L 1081 2816 
Q 1244 2928 1461 2984 
Q 1678 3041 1947 3041 
Q 2703 3041 3140 2622 
Q 3578 2203 3578 1478 
Q 3578 738 3136 323 
Q 2694 -91 1894 -91 
Q 1572 -91 1234 -12 
Q 897 66 544 225 
L 544 1131 
L 897 1131 
Q 925 688 1179 453 
Q 1434 219 1894 219 
Q 2388 219 2653 544 
Q 2919 869 2919 1478 
Q 2919 2084 2655 2407 
Q 2391 2731 1894 2731 
Q 1613 2731 1398 2631 
Q 1184 2531 1019 2322 
L 750 2322 
L 750 4666 
L 3219 4666 
z
" transform="scale(0.015625)"/>
       </defs>
       <use xlink:href="#DejaVuSerif-35"/>
      </g>
     </g>
    </g>
    <g id="xtick_3">
     <g id="line2d_3">
      <path d="M 658.791025 588.888 
L 658.791025 43.152 
" clip-path="url(#p9ba34fc019)" style="fill: none; stroke: #cccccc; stroke-linecap: round"/>
     </g>
     <g id="text_3">
      <!-- 10 -->
      <g style="fill: #262626" transform="translate(646.89315 612.597078) scale(0.187 -0.187)">
       <defs>
        <path id="DejaVuSerif-31" d="M 909 0 
L 909 331 
L 1722 331 
L 1722 4213 
L 781 3603 
L 781 4013 
L 1919 4750 
L 2350 4750 
L 2350 331 
L 3163 331 
L 3163 0 
L 909 0 
z
" transform="scale(0.015625)"/>
       </defs>
       <use xlink:href="#DejaVuSerif-31"/>
       <use xlink:href="#DejaVuSerif-30" x="63.623047"/>
      </g>
     </g>
    </g>
    <g id="xtick_4">
     <g id="line2d_4">
      <path d="M 762.015034 588.888 
L 762.015034 43.152 
" clip-path="url(#p9ba34fc019)" style="fill: none; stroke: #cccccc; stroke-linecap: round"/>
     </g>
     <g id="text_4">
      <!-- 15 -->
      <g style="fill: #262626" transform="translate(750.117159 612.597078) scale(0.187 -0.187)">
       <use xlink:href="#DejaVuSerif-31"/>
       <use xlink:href="#DejaVuSerif-35" x="63.623047"/>
      </g>
     </g>
    </g>
    <g id="xtick_5">
     <g id="line2d_5">
      <path d="M 865.239042 588.888 
L 865.239042 43.152 
" clip-path="url(#p9ba34fc019)" style="fill: none; stroke: #cccccc; stroke-linecap: round"/>
     </g>
     <g id="text_5">
      <!-- 20 -->
      <g style="fill: #262626" transform="translate(853.341167 612.597078) scale(0.187 -0.187)">
       <defs>
        <path id="DejaVuSerif-32" d="M 819 3553 
L 469 3553 
L 469 4384 
Q 803 4563 1142 4656 
Q 1481 4750 1806 4750 
Q 2534 4750 2956 4397 
Q 3378 4044 3378 3438 
Q 3378 2753 2422 1800 
Q 2347 1728 2309 1691 
L 1131 513 
L 3078 513 
L 3078 1088 
L 3444 1088 
L 3444 0 
L 434 0 
L 434 341 
L 1850 1753 
Q 2319 2222 2519 2614 
Q 2719 3006 2719 3438 
Q 2719 3909 2473 4175 
Q 2228 4441 1797 4441 
Q 1350 4441 1106 4219 
Q 863 3997 819 3553 
z
" transform="scale(0.015625)"/>
       </defs>
       <use xlink:href="#DejaVuSerif-32"/>
       <use xlink:href="#DejaVuSerif-30" x="63.623047"/>
      </g>
     </g>
    </g>
    <g id="text_6">
     <!-- $x$ (m) -->
     <g style="fill: #262626" transform="translate(629.712 635.986906) scale(0.204 -0.204)">
      <defs>
       <path id="DejaVuSans-Oblique-78" d="M 3841 3500 
L 2234 1784 
L 3219 0 
L 2559 0 
L 1819 1388 
L 531 0 
L -166 0 
L 1556 1844 
L 641 3500 
L 1300 3500 
L 1972 2234 
L 3144 3500 
L 3841 3500 
z
" transform="scale(0.015625)"/>
       <path id="DejaVuSerif-20" transform="scale(0.015625)"/>
       <path id="DejaVuSerif-28" d="M 2041 -997 
Q 1281 -656 893 83 
Q 506 822 506 1931 
Q 506 3044 893 3783 
Q 1281 4522 2041 4863 
L 2041 4556 
Q 1559 4225 1350 3623 
Q 1141 3022 1141 1931 
Q 1141 844 1350 242 
Q 1559 -359 2041 -691 
L 2041 -997 
z
" transform="scale(0.015625)"/>
       <path id="DejaVuSerif-6d" d="M 3316 2675 
Q 3481 3041 3739 3227 
Q 3997 3413 4341 3413 
Q 4863 3413 5119 3089 
Q 5375 2766 5375 2113 
L 5375 331 
L 5894 331 
L 5894 0 
L 4300 0 
L 4300 331 
L 4800 331 
L 4800 2047 
Q 4800 2556 4650 2772 
Q 4500 2988 4153 2988 
Q 3769 2988 3567 2697 
Q 3366 2406 3366 1850 
L 3366 331 
L 3866 331 
L 3866 0 
L 2291 0 
L 2291 331 
L 2791 331 
L 2791 2069 
Q 2791 2566 2641 2777 
Q 2491 2988 2144 2988 
Q 1759 2988 1557 2697 
Q 1356 2406 1356 1850 
L 1356 331 
L 1856 331 
L 1856 0 
L 263 0 
L 263 331 
L 781 331 
L 781 2994 
L 231 2994 
L 231 3322 
L 1356 3322 
L 1356 2731 
Q 1516 3063 1762 3238 
Q 2009 3413 2322 3413 
Q 2709 3413 2968 3220 
Q 3228 3028 3316 2675 
z
" transform="scale(0.015625)"/>
       <path id="DejaVuSerif-29" d="M 453 -997 
L 453 -691 
Q 934 -359 1145 242 
Q 1356 844 1356 1931 
Q 1356 3022 1145 3623 
Q 934 4225 453 4556 
L 453 4863 
Q 1216 4522 1603 3783 
Q 1991 3044 1991 1931 
Q 1991 822 1603 83 
Q 1216 -656 453 -997 
z
" transform="scale(0.015625)"/>
      </defs>
      <use xlink:href="#DejaVuSans-Oblique-78" transform="translate(0 0.015625)"/>
      <use xlink:href="#DejaVuSerif-20" transform="translate(59.179688 0.015625)"/>
      <use xlink:href="#DejaVuSerif-28" transform="translate(90.966797 0.015625)"/>
      <use xlink:href="#DejaVuSerif-6d" transform="translate(129.980469 0.015625)"/>
      <use xlink:href="#DejaVuSerif-29" transform="translate(224.804688 0.015625)"/>
     </g>
    </g>
   </g>
   <g id="matplotlib.axis_2">
    <g id="ytick_1">
     <g id="line2d_6">
      <path d="M 364.256656 526.8375 
L 949.023344 526.8375 
" clip-path="url(#p9ba34fc019)" style="fill: none; stroke: #cccccc; stroke-linecap: round"/>
     </g>
     <g id="text_7">
      <!-- −20 -->
      <g style="fill: #262626" transform="translate(315.29089 533.942039) scale(0.187 -0.187)">
       <defs>
        <path id="DejaVuSerif-2212" d="M 678 2259 
L 4684 2259 
L 4684 1753 
L 678 1753 
L 678 2259 
z
" transform="scale(0.015625)"/>
       </defs>
       <use xlink:href="#DejaVuSerif-2212"/>
       <use xlink:href="#DejaVuSerif-32" x="83.789062"/>
       <use xlink:href="#DejaVuSerif-30" x="147.412109"/>
      </g>
     </g>
    </g>
    <g id="ytick_2">
     <g id="line2d_7">
      <path d="M 364.256656 423.613491 
L 949.023344 423.613491 
" clip-path="url(#p9ba34fc019)" style="fill: none; stroke: #cccccc; stroke-linecap: round"/>
     </g>
     <g id="text_8">
      <!-- −15 -->
      <g style="fill: #262626" transform="translate(315.29089 430.718031) scale(0.187 -0.187)">
       <use xlink:href="#DejaVuSerif-2212"/>
       <use xlink:href="#DejaVuSerif-31" x="83.789062"/>
       <use xlink:href="#DejaVuSerif-35" x="147.412109"/>
      </g>
     </g>
    </g>
    <g id="ytick_3">
     <g id="line2d_8">
      <path d="M 364.256656 320.389483 
L 949.023344 320.389483 
" clip-path="url(#p9ba34fc019)" style="fill: none; stroke: #cccccc; stroke-linecap: round"/>
     </g>
     <g id="text_9">
      <!-- −10 -->
      <g style="fill: #262626" transform="translate(315.29089 327.494022) scale(0.187 -0.187)">
       <use xlink:href="#DejaVuSerif-2212"/>
       <use xlink:href="#DejaVuSerif-31" x="83.789062"/>
       <use xlink:href="#DejaVuSerif-30" x="147.412109"/>
      </g>
     </g>
    </g>
    <g id="ytick_4">
     <g id="line2d_9">
      <path d="M 364.256656 217.165474 
L 949.023344 217.165474 
" clip-path="url(#p9ba34fc019)" style="fill: none; stroke: #cccccc; stroke-linecap: round"/>
     </g>
     <g id="text_10">
      <!-- −5 -->
      <g style="fill: #262626" transform="translate(327.188765 224.270013) scale(0.187 -0.187)">
       <use xlink:href="#DejaVuSerif-2212"/>
       <use xlink:href="#DejaVuSerif-35" x="83.789062"/>
      </g>
     </g>
    </g>
    <g id="ytick_5">
     <g id="line2d_10">
      <path d="M 364.256656 113.941465 
L 949.023344 113.941465 
" clip-path="url(#p9ba34fc019)" style="fill: none; stroke: #cccccc; stroke-linecap: round"/>
     </g>
     <g id="text_11">
      <!-- 0 -->
      <g style="fill: #262626" transform="translate(342.858781 121.046004) scale(0.187 -0.187)">
       <use xlink:href="#DejaVuSerif-30"/>
      </g>
     </g>
    </g>
    <g id="text_12">
     <!-- $y$ (m) -->
     <g style="fill: #262626" transform="translate(307.00689 342.948) rotate(-90) scale(0.204 -0.204)">
      <defs>
       <path id="DejaVuSans-Oblique-79" d="M 1588 -325 
Q 1188 -997 936 -1164 
Q 684 -1331 294 -1331 
L -159 -1331 
L -63 -850 
L 269 -850 
Q 509 -850 678 -719 
Q 847 -588 1056 -206 
L 1234 128 
L 459 3500 
L 1069 3500 
L 1650 819 
L 3256 3500 
L 3859 3500 
L 1588 -325 
z
" transform="scale(0.015625)"/>
      </defs>
      <use xlink:href="#DejaVuSans-Oblique-79" transform="translate(0 0.015625)"/>
      <use xlink:href="#DejaVuSerif-20" transform="translate(59.179688 0.015625)"/>
      <use xlink:href="#DejaVuSerif-28" transform="translate(90.966797 0.015625)"/>
      <use xlink:href="#DejaVuSerif-6d" transform="translate(129.980469 0.015625)"/>
      <use xlink:href="#DejaVuSerif-29" transform="translate(224.804688 0.015625)"/>
     </g>
    </g>
   </g>
   <g id="line2d_11">
    <path d="M 897.731878 454.998394 
L 896.410769 455.719065 
L 895.929079 456.680455 
L 895.592707 456.35517 
L 894.557653 456.861762 
L 894.037937 457.046489 
L 892.803181 457.189422 
L 891.393852 457.083694 
L 887.140569 456.626106 
L 883.619805 456.582868 
L 882.441217 456.809136 
L 880.132963 457.848546 
L 877.800714 458.80914 
L 874.201515 459.768383 
L 871.52054 460.248738 
L 870.410967 460.575686 
L 865.436571 463.0202 
L 864.432851 463.668387 
L 857.560152 470.531869 
L 855.090567 473.621346 
L 854.315516 474.797552 
L 853.016551 477.360604 
L 852.576349 478.227622 
L 851.021592 484.508359 
L 850.241489 488.691671 
L 849.795193 489.797472 
L 847.021595 498.996522 
L 846.681556 500.269061 
L 846.622225 501.760401 
L 846.286381 503.17748 
L 845.331455 505.830645 
L 843.532726 510.036796 
L 842.013255 512.621181 
L 838.909036 517.630028 
L 835.335475 522.080967 
L 834.258569 522.875794 
L 831.946552 524.186687 
L 827.789321 525.550205 
L 825.206286 525.991756 
L 822.190238 526.477809 
L 819.172723 526.72198 
L 815.971677 527.176882 
L 810.788937 526.939999 
L 807.793084 526.359047 
L 804.683763 525.929679 
L 798.250715 524.606924 
L 796.717425 524.259185 
L 793.424258 523.80461 
L 790.135325 523.081508 
L 786.988971 522.54476 
L 785.312667 522.567475 
L 783.628959 522.391924 
L 779.21832 522.355356 
L 776.466006 522.629208 
L 774.833655 522.774569 
L 773.211581 522.752119 
L 771.758139 522.865144 
L 768.482213 522.40922 
L 765.387797 522.118438 
L 763.939186 521.908187 
L 763.084528 521.670991 
L 759.881824 521.451541 
L 758.549666 521.512863 
L 754.352019 521.333975 
L 751.171546 521.949563 
L 747.845549 521.655844 
L 744.601437 521.110083 
L 741.501669 520.519401 
L 738.154134 520.115846 
L 732.984699 520.057956 
L 731.037974 520.183282 
L 727.651596 520.567722 
L 724.205578 520.288396 
L 721.106403 519.742142 
L 719.626967 519.372385 
L 716.718961 518.432772 
L 713.609602 517.687462 
L 710.334022 517.215967 
L 705.240793 516.653451 
L 701.856284 515.807278 
L 692.998072 513.220948 
L 688.188459 512.256617 
L 685.055822 511.998517 
L 683.446171 511.754878 
L 680.159047 510.910133 
L 676.899572 509.855266 
L 675.369751 509.252235 
L 673.734548 508.754317 
L 666.144171 507.604337 
L 664.614319 507.584883 
L 662.831207 507.340507 
L 657.662256 506.258355 
L 656.430998 505.864985 
L 652.874382 505.032345 
L 651.865844 504.873374 
L 647.875775 504.534066 
L 645.407325 504.524493 
L 643.905031 504.783944 
L 639.897634 504.673494 
L 632.838219 503.925203 
L 629.471883 503.250218 
L 627.808509 503.127986 
L 625.807366 502.755105 
L 623.907567 502.756647 
L 622.251061 503.090461 
L 618.428709 503.061952 
L 614.747503 502.76241 
L 612.360881 502.720653 
L 610.706232 502.333536 
L 608.577028 502.234254 
L 604.778327 501.631753 
L 598.959053 500.997401 
L 593.004662 500.906195 
L 590.802854 500.732231 
L 583.642457 500.569182 
L 580.982004 500.480588 
L 580.711824 500.614234 
L 578.085131 500.696601 
L 577.516613 500.892594 
L 574.522908 500.967866 
L 572.888363 501.136095 
L 571.673931 501.485311 
L 565.534033 501.708688 
L 553.053169 501.180675 
L 551.713832 501.437925 
L 549.664388 501.69317 
L 545.884944 502.426936 
L 544.242399 502.63409 
L 542.099916 502.625577 
L 538.406186 502.178391 
L 535.053338 501.624794 
L 532.917823 501.457958 
L 530.849584 501.480961 
L 529.186768 501.659587 
L 526.984324 501.77425 
L 525.237534 502.057426 
L 522.902192 502.291827 
L 522.259294 502.49332 
L 519.21807 502.454351 
L 512.051065 502.941288 
L 503.452858 502.58154 
L 497.469252 502.545013 
L 493.5402 501.930487 
L 489.774914 501.096425 
L 486.087655 500.156213 
L 480.457812 499.273262 
L 472.623389 498.726327 
L 470.669964 498.379143 
L 467.243271 497.39392 
L 453.447945 492.927549 
L 451.839518 492.196952 
L 448.755428 490.211841 
L 447.315301 489.165127 
L 445.940506 488.01143 
L 444.624214 486.731311 
L 443.343949 485.262681 
L 438.370867 480.199993 
L 437.217208 478.860495 
L 436.075995 477.842217 
L 435.08812 476.265342 
L 433.67755 472.87502 
L 433.146125 470.679418 
L 431.601801 461.149248 
L 431.159995 460.486694 
L 430.8541 457.988709 
L 430.465146 456.152314 
L 430.047062 455.202759 
L 429.579846 452.444685 
L 429.66056 450.306073 
L 429.623395 446.22958 
L 429.436158 444.320595 
L 429.452984 442.449014 
L 429.84801 440.736835 
L 429.407604 438.215444 
L 429.102206 435.65072 
L 428.278501 433.777965 
L 427.798234 432.016565 
L 427.698663 429.268119 
L 428.140012 426.465219 
L 427.986913 424.715619 
L 429.034187 418.958973 
L 429.511235 415.803349 
L 429.503727 413.827397 
L 428.87407 410.856104 
L 428.903779 408.302553 
L 429.2827 407.839848 
L 429.90274 402.780464 
L 430.482086 400.922703 
L 430.978428 398.597152 
L 431.590811 394.940489 
L 431.959692 391.787915 
L 431.610182 391.73383 
L 431.600949 386.245962 
L 432.045156 384.439803 
L 432.002293 382.664658 
L 432.392771 382.838064 
L 432.826935 378.548562 
L 433.46685 371.42894 
L 433.133807 371.320746 
L 433.48005 365.542364 
L 433.091729 360.961957 
L 433.46547 357.176269 
L 433.51487 355.268951 
L 434.036468 353.543632 
L 434.282028 352.030005 
L 434.594881 345.745443 
L 434.469571 345.339642 
L 434.365851 339.866987 
L 433.951218 338.747263 
L 434.3791 335.900522 
L 434.30519 334.133797 
L 434.561101 331.079486 
L 434.52564 329.529344 
L 435.062949 325.920287 
L 435.31939 325.989756 
L 435.693445 320.61032 
L 435.498974 317.810263 
L 435.608305 316.594273 
L 435.293008 315.788207 
L 435.791089 311.676669 
L 436.162845 310.217098 
L 436.869325 305.933223 
L 437.87156 304.171208 
L 438.365927 301.060608 
L 438.843789 296.7825 
L 438.526628 294.643538 
L 438.406886 291.087517 
L 439.939879 278.825577 
L 440.176688 275.772361 
L 440.639615 272.358441 
L 440.711202 270.289732 
L 440.252111 264.715811 
L 440.559322 262.233093 
L 442.132216 254.916576 
L 442.338252 252.845523 
L 442.22496 247.663103 
L 441.842611 243.797833 
L 441.966811 242.260247 
L 442.009945 239.638901 
L 442.502204 236.628878 
L 442.442063 234.790147 
L 442.444518 234.846003 
L 442.731398 231.940688 
L 442.987309 232.032101 
L 442.886852 231.46564 
L 443.468911 223.470549 
L 443.194698 219.694068 
L 443.249328 217.905654 
L 443.395935 216.145024 
L 443.344759 215.814559 
L 443.473353 210.564165 
L 443.948324 208.543867 
L 444.077306 203.938496 
L 443.852077 202.380202 
L 443.511218 197.623904 
L 442.916017 197.053126 
L 442.754887 195.054557 
L 442.857668 194.013415 
L 443.257303 191.725803 
L 443.350485 189.587434 
L 443.26591 188.031108 
L 442.992911 186.124347 
L 443.262665 182.255592 
L 443.159451 180.282574 
L 443.518562 178.282826 
L 443.118693 176.413679 
L 442.909661 174.216304 
L 443.183338 172.319538 
L 443.12348 170.26518 
L 443.201135 168.16021 
L 443.987645 164.927219 
L 444.839798 161.656121 
L 445.409985 160.011189 
L 445.786867 158.368007 
L 446.342892 156.50915 
L 446.717669 154.613434 
L 447.228386 152.703287 
L 447.615207 150.746662 
L 448.640972 147.036824 
L 449.784668 143.551621 
L 451.603258 136.8058 
L 452.319993 132.983557 
L 452.900054 129.086573 
L 453.379754 127.370746 
L 454.696621 123.909607 
L 456.087731 120.982653 
L 456.940666 119.66955 
L 460.003309 116.056056 
L 461.139193 114.88498 
L 463.715875 112.735582 
L 466.444895 110.710063 
L 467.919369 109.857073 
L 470.682204 108.600376 
L 475.110055 107.559512 
L 476.733455 107.3009 
L 479.484504 107.194568 
L 481.170868 106.960258 
L 483.547628 106.001387 
L 488.205824 105.230049 
L 491.708578 105.437161 
L 498.563282 106.267346 
L 503.276813 106.395 
L 507.081754 106.079657 
L 508.884099 105.964268 
L 509.943496 106.132337 
L 514.518201 107.150482 
L 520.052266 108.998663 
L 532.312535 110.268513 
L 534.876921 110.915395 
L 534.666366 111.382705 
L 540.285096 113.049264 
L 540.355319 113.672305 
L 542.131733 114.275767 
L 544.060223 114.690897 
L 547.72813 115.04208 
L 550.934115 115.122779 
L 551.853593 114.78678 
L 552.858629 114.957478 
L 559.711183 115.303759 
L 560.582809 115.423578 
L 562.211356 115.464247 
L 567.050855 116.220835 
L 568.004046 116.319851 
L 575.124444 116.028199 
L 575.925797 115.627194 
L 577.387462 115.273936 
L 579.350544 115.180353 
L 583.362837 115.361027 
L 583.333415 115.157256 
L 587.309907 115.895585 
L 586.567051 116.079122 
L 594.441278 116.930179 
L 596.76163 116.896951 
L 598.508196 116.385134 
L 602.830275 116.433487 
L 605.427528 116.606548 
L 606.401212 116.866158 
L 614.731285 118.054555 
L 614.380112 117.883965 
L 619.831071 117.79107 
L 619.949563 117.331218 
L 622.841 117.18066 
L 622.039163 117.154072 
L 628.130591 117.876281 
L 629.756597 118.18914 
L 634.900649 118.857324 
L 635.929162 119.207012 
L 639.082409 119.879418 
L 637.730038 119.927627 
L 641.973606 120.554982 
L 644.357208 120.872221 
L 648.672078 120.905614 
L 649.075661 121.023595 
L 657.9366 122.806816 
L 657.771058 123.184003 
L 660.830775 123.77064 
L 663.139527 124.502705 
L 666.156572 124.856382 
L 666.753901 124.601358 
L 666.575619 124.70036 
L 671.354783 124.660018 
L 672.957759 124.849198 
L 675.461268 125.602363 
L 683.191733 126.942158 
L 683.682155 127.246202 
L 683.342649 127.000098 
L 686.769539 127.497565 
L 687.223019 127.39537 
L 696.405973 127.754918 
L 698.926992 128.288121 
L 699.647296 128.614633 
L 703.547704 129.2611 
L 705.147968 129.732205 
L 703.445475 129.873822 
L 703.952188 130.212007 
L 709.037911 130.627916 
L 713.133411 130.850419 
L 716.762834 130.538016 
L 723.341382 130.572852 
L 724.952296 130.367922 
L 725.073992 130.594711 
L 730.192156 131.07615 
L 732.221532 131.100622 
L 733.769891 130.854121 
L 735.597963 131.065133 
L 738.18237 131.032888 
L 736.911626 130.165125 
L 739.57268 130.158248 
L 752.257083 132.107323 
L 754.758005 132.373329 
L 756.650861 132.414259 
L 761.101875 131.941342 
L 762.514945 132.12231 
L 766.788144 131.943428 
L 770.077561 132.47273 
L 772.266097 132.7274 
L 773.709505 133.035139 
L 777.705679 133.328913 
L 777.014544 133.141212 
L 779.981242 133.619359 
L 782.019505 133.260925 
L 783.764421 133.555999 
L 785.849553 133.219776 
L 787.677623 133.13947 
L 789.37635 133.516771 
L 793.023267 134.731133 
L 796.510662 135.956062 
L 800.069874 136.657417 
L 802.044858 136.848104 
L 807.906694 136.576583 
L 809.706108 136.691911 
L 825.235672 139.389465 
L 826.825628 139.61813 
L 828.825145 139.72857 
L 832.802938 139.834325 
L 835.149681 140.094261 
L 836.850998 140.571628 
L 839.099415 141.000526 
L 844.695676 142.407049 
L 846.474724 142.708642 
L 855.467638 143.150988 
L 857.496088 143.419764 
L 870.392343 147.033832 
L 873.852237 147.930195 
L 877.3169 148.813686 
L 879.025599 149.405774 
L 880.649477 150.214312 
L 884.82721 153.209254 
L 887.025151 155.591802 
L 889.00929 157.911131 
L 890.530243 160.532543 
L 891.179941 161.811585 
L 891.623928 163.05065 
L 891.835339 164.517787 
L 891.884874 166.020696 
L 891.517764 169.227759 
L 891.498832 173.498636 
L 891.776389 175.334758 
L 891.811853 176.43187 
L 891.278896 178.738549 
L 891.762586 181.13507 
L 891.307417 182.847641 
L 891.362538 184.409312 
L 890.180197 188.146068 
L 888.861885 190.992945 
L 887.989422 194.066594 
L 887.256956 197.301735 
L 886.319953 203.379093 
L 885.647115 206.31145 
L 885.289883 206.963722 
L 883.931576 212.331005 
L 883.802834 216.030827 
L 883.860435 219.593977 
L 884.039067 224.810496 
L 882.812886 234.154048 
L 882.821208 237.670202 
L 882.693522 241.340912 
L 883.129977 242.297173 
L 883.685453 244.368316 
L 883.616318 246.032203 
L 883.09989 249.741459 
L 882.592945 255.277098 
L 882.36462 259.071105 
L 882.723373 261.124965 
L 882.86488 262.997133 
L 883.308036 264.903185 
L 883.327822 266.578989 
L 882.732189 269.852614 
L 882.303642 271.713906 
L 882.075944 273.544086 
L 881.344896 277.304942 
L 881.295506 282.971417 
L 881.309426 286.914616 
L 881.182554 288.748669 
L 880.930735 290.461889 
L 880.488416 292.105328 
L 880.126224 295.521218 
L 879.412755 299.095125 
L 879.28073 301.073757 
L 878.898516 302.92527 
L 879.408319 304.957827 
L 879.499283 306.956567 
L 879.42744 308.821474 
L 879.128205 310.667358 
L 878.655242 312.542199 
L 878.311371 314.404352 
L 877.83044 316.258989 
L 876.614635 321.903362 
L 876.544764 323.804422 
L 876.217048 327.624005 
L 876.320211 329.55284 
L 876.224185 331.310873 
L 875.247048 334.889954 
L 874.98381 336.746084 
L 874.184743 340.535407 
L 873.736886 342.190346 
L 873.45612 344.091076 
L 873.003857 345.872594 
L 872.931114 347.615997 
L 872.67105 349.514139 
L 872.848116 351.354953 
L 872.824429 353.146052 
L 872.525991 354.874326 
L 872.021777 356.689737 
L 871.496203 359.300976 
L 871.117626 360.230454 
L 870.721539 362.01179 
L 870.182393 363.70777 
L 869.518004 367.51619 
L 869.45126 371.240186 
L 869.539649 373.038775 
L 869.329394 376.509994 
L 868.240803 381.708103 
L 867.781047 383.468058 
L 867.245439 385.052984 
L 866.898685 386.676606 
L 866.510021 390.625023 
L 866.078294 392.626216 
L 866.294777 394.537884 
L 866.327061 396.513928 
L 866.180943 398.474726 
L 864.313612 404.202359 
L 863.116006 407.399934 
L 861.392141 415.147994 
L 860.404808 420.256095 
L 857.586908 430.078815 
L 857.323426 431.630982 
L 857.166833 433.246821 
L 857.143793 434.679549 
L 857.247248 435.976892 
L 857.485904 437.246136 
L 857.538708 438.241438 
L 857.461597 439.251023 
L 856.986852 440.983649 
L 856.020252 443.292594 
L 855.74917 444.719313 
L 855.679863 445.738526 
L 856.093724 446.013276 
L 856.194107 445.982125 
L 856.204018 446.067448 
L 856.53758 446.860114 
L 856.5588 446.824264 
L 856.603429 446.821288 
L 859.409547 446.284733 
L 859.314 446.249496 
" clip-path="url(#p9ba34fc019)" style="fill: none; stroke: #000000; stroke-opacity: 0.501961; stroke-width: 1.3; stroke-linecap: round"/>
   </g>
   <g id="line2d_12">
    <path d="M 907.43391 486.066042 
L 907.154577 486.333008 
L 906.848845 486.459904 
L 906.637339 486.334586 
L 906.052746 485.383381 
L 905.273192 485.145591 
L 904.710257 485.182285 
L 903.449322 484.738726 
L 902.565564 483.961238 
L 901.523037 483.406841 
L 900.371278 482.569992 
L 899.071165 482.292621 
L 897.74933 482.274714 
L 895.201806 482.738128 
L 890.36663 484.982977 
L 889.699324 485.820934 
L 888.463653 488.444321 
L 887.664957 489.499808 
L 885.552076 490.855768 
L 884.873509 491.173659 
L 884.56909 491.028476 
L 883.38934 492.165042 
L 880.537644 492.796075 
L 879.626832 492.869318 
L 878.592603 493.468666 
L 878.600473 494.133445 
L 879.272831 497.756968 
L 879.423813 499.013967 
L 879.175445 500.168337 
L 878.899353 502.476238 
L 878.803346 503.312291 
L 878.349675 504.549385 
L 877.996216 506.307786 
L 877.31867 508.241344 
L 876.772077 510.424946 
L 876.066792 512.628464 
L 874.372488 520.112555 
L 874.439779 521.355393 
L 874.036566 522.822731 
L 873.381 528.384639 
L 873.352086 530.06198 
L 873.112123 531.815398 
L 873.009548 533.715917 
L 872.279658 537.29961 
L 871.657432 538.972947 
L 871.285463 540.557462 
L 870.736081 541.926822 
L 870.435092 543.577514 
L 869.781266 545.204134 
L 868.489055 548.036856 
L 867.959974 549.300289 
L 866.09584 551.847228 
L 865.244704 553.23359 
L 864.711786 554.867192 
L 864.013565 556.408521 
L 863.362835 558.153615 
L 861.184319 560.963742 
L 860.060297 561.862455 
L 858.644839 562.827563 
L 855.296905 563.547655 
L 852.01332 563.772171 
L 850.3288 563.724418 
L 848.690122 563.837768 
L 847.039763 563.80948 
L 842.521283 564.081818 
L 839.300788 563.958398 
L 833.071535 562.902469 
L 831.568256 562.506607 
L 830.030722 562.316808 
L 828.542575 562.015608 
L 827.022865 561.831343 
L 825.343134 561.424846 
L 823.628426 561.159297 
L 821.98747 560.710665 
L 820.23083 560.413029 
L 818.42596 559.900268 
L 811.14429 558.751369 
L 804.944557 558.392011 
L 803.383473 558.381337 
L 801.755754 558.210136 
L 800.08624 558.223995 
L 789.226287 557.338014 
L 787.374439 556.974949 
L 785.639032 556.749891 
L 783.869386 556.381548 
L 782.176563 556.25226 
L 780.627271 556.018744 
L 772.81034 555.990936 
L 767.443286 555.218229 
L 760.052354 553.775792 
L 758.280739 553.660051 
L 756.507781 553.423603 
L 746.387114 553.348859 
L 744.737002 553.298427 
L 741.437642 552.706427 
L 739.848127 552.132716 
L 739.269744 551.768981 
L 737.197965 551.272831 
L 733.875028 550.723516 
L 720.383987 549.103093 
L 715.901209 548.643961 
L 712.049333 548.134027 
L 709.301809 547.656307 
L 699.906054 545.043998 
L 698.204759 544.739749 
L 696.570006 544.234448 
L 694.899474 543.936452 
L 693.10041 543.4769 
L 689.479247 542.800257 
L 687.548557 542.588779 
L 685.651839 542.269021 
L 683.743681 542.173055 
L 680.099705 541.398708 
L 678.42117 540.781337 
L 676.643875 540.352362 
L 675.065001 539.686662 
L 668.801701 538.293684 
L 667.081242 538.169436 
L 665.338566 537.784856 
L 663.493817 537.583376 
L 661.650259 537.257207 
L 659.792948 537.136287 
L 657.933081 536.667241 
L 656.123743 536.329231 
L 652.661107 535.174161 
L 651.029109 534.599845 
L 647.824329 534.023093 
L 639.741607 534.164515 
L 634.397561 533.24375 
L 631.195973 532.410421 
L 627.912138 531.748078 
L 624.727893 530.940761 
L 619.23488 529.963695 
L 615.931772 529.878864 
L 613.907181 529.972285 
L 605.573265 529.485911 
L 603.383491 529.081339 
L 601.169244 528.79866 
L 596.871365 527.995536 
L 594.820979 527.594759 
L 592.754229 527.434418 
L 590.725133 527.103578 
L 588.688115 527.007285 
L 586.7079 526.801913 
L 584.66038 526.746528 
L 582.637116 526.517663 
L 580.525494 526.463501 
L 576.456611 526.087498 
L 574.495454 525.887652 
L 572.036911 525.774673 
L 569.304927 525.515426 
L 566.39671 525.405754 
L 563.497203 525.118748 
L 557.782394 525.092742 
L 555.209175 525.248867 
L 553.007355 525.260709 
L 551.335484 525.479937 
L 544.606017 525.384437 
L 542.324819 525.28829 
L 540.081953 525.076151 
L 537.870636 525.167644 
L 535.779781 525.116139 
L 531.902486 525.426066 
L 529.992237 525.706746 
L 523.790078 526.046199 
L 521.760735 526.030392 
L 519.834009 525.768336 
L 517.977679 525.651109 
L 516.09972 525.317973 
L 510.263577 525.204382 
L 508.191682 525.177634 
L 505.991652 525.394228 
L 503.785823 525.353053 
L 501.600492 525.464332 
L 499.519727 525.412782 
L 497.439901 525.511701 
L 495.41903 525.413651 
L 493.336866 525.523505 
L 491.330747 525.459557 
L 489.306033 525.551567 
L 483.251928 525.241074 
L 480.289422 525.311659 
L 477.077854 525.191614 
L 473.682194 525.225215 
L 470.385019 524.981871 
L 467.164847 524.894973 
L 462.022321 524.329734 
L 460.46456 523.845022 
L 458.473535 523.530302 
L 456.489715 523.103492 
L 454.529341 522.851828 
L 452.571394 522.480878 
L 446.571641 521.768162 
L 440.600638 520.616711 
L 438.364275 520.116109 
L 436.129254 519.329917 
L 433.845922 518.689602 
L 431.638409 517.902479 
L 429.437139 517.300223 
L 427.436315 516.534062 
L 425.565179 516.02039 
L 422.118059 514.435912 
L 418.69877 512.310953 
L 413.738622 508.021133 
L 412.121565 506.50623 
L 410.705417 504.950912 
L 409.299151 503.583085 
L 408.231858 502.062265 
L 407.127949 500.686086 
L 402.663213 494.062198 
L 400.983931 490.378826 
L 400.295033 486.480187 
L 400.238544 484.495239 
L 400.066856 482.572244 
L 400.060161 480.692178 
L 399.585088 477.10667 
L 399.13414 475.430475 
L 398.444363 471.835895 
L 398.115339 466.180351 
L 397.981251 456.118819 
L 397.146245 449.181117 
L 396.608048 445.70701 
L 396.3168 441.939401 
L 396.496737 438.118083 
L 396.797812 436.156979 
L 396.98785 434.079199 
L 397.302555 432.079268 
L 397.638321 425.81443 
L 397.657498 423.801327 
L 397.520683 421.707662 
L 397.767769 415.290411 
L 398.008932 413.11724 
L 399.446079 407.095673 
L 400.186663 403.261376 
L 400.560734 399.345669 
L 400.54442 397.316337 
L 402.163467 379.835072 
L 402.190167 377.783589 
L 402.331231 375.789318 
L 402.239446 369.587389 
L 402.730075 361.044687 
L 403.046906 358.833387 
L 403.133242 356.648181 
L 403.818171 350.470887 
L 404.743228 329.826399 
L 404.827142 322.857754 
L 405.089706 319.945621 
L 405.319264 313.334724 
L 405.816639 304.005036 
L 407.705363 290.8307 
L 407.84954 286.86269 
L 407.690093 284.695605 
L 407.663901 282.439646 
L 407.50537 280.112595 
L 407.662069 277.737462 
L 407.685151 275.391409 
L 407.941863 273.052762 
L 408.067135 270.639219 
L 408.400785 268.206016 
L 408.904693 263.248827 
L 408.852285 260.84259 
L 408.974769 258.386141 
L 408.927857 256.002329 
L 409.054836 253.690125 
L 409.047735 251.457421 
L 409.360178 249.241534 
L 409.540213 247.060216 
L 410.249466 242.938654 
L 410.559366 240.968881 
L 410.7958 237.457665 
L 410.671388 235.725457 
L 410.706 233.926961 
L 410.493941 232.081664 
L 410.427825 230.304149 
L 410.142442 228.380416 
L 410.17845 226.380372 
L 410.072656 224.281374 
L 410.414251 213.005151 
L 410.298241 198.410276 
L 410.52715 193.887969 
L 410.591228 190.583268 
L 410.859236 186.861529 
L 410.907534 182.625261 
L 411.15711 178.467782 
L 411.083134 174.590581 
L 411.139072 171.26483 
L 410.894341 167.703227 
L 410.631933 165.790064 
L 410.362244 161.753585 
L 410.38778 159.674014 
L 410.266308 157.524392 
L 410.355291 155.410305 
L 410.185526 153.264327 
L 410.27545 151.230935 
L 409.678979 145.357489 
L 409.641783 143.419445 
L 409.368547 141.382297 
L 409.457626 135.408725 
L 409.572456 133.558427 
L 409.960278 131.653203 
L 410.191881 129.650701 
L 410.625245 127.669429 
L 410.866176 125.626859 
L 411.324347 123.599352 
L 411.597726 121.491982 
L 412.077679 119.449455 
L 412.361008 117.393298 
L 412.844021 115.535687 
L 413.140542 113.56699 
L 413.568169 111.645584 
L 413.812115 109.755196 
L 414.231872 107.96878 
L 414.49242 106.136198 
L 414.868776 104.340357 
L 415.045357 102.441229 
L 415.376014 100.568981 
L 415.506466 98.583201 
L 415.814786 96.616815 
L 415.999053 94.574942 
L 416.784494 90.727276 
L 418.259597 87.014757 
L 420.262891 83.628257 
L 424.731801 78.122429 
L 428.529486 74.562519 
L 429.872662 73.403028 
L 432.946142 71.447057 
L 436.134227 70.126678 
L 439.482665 69.524092 
L 444.751022 69.191257 
L 450.112843 68.353185 
L 455.482157 67.981721 
L 457.323042 68.021088 
L 463.05955 68.857659 
L 464.987682 68.904605 
L 466.97555 69.073204 
L 472.748288 68.556655 
L 476.614566 68.545233 
L 480.56588 68.965096 
L 482.604548 69.480395 
L 484.671228 69.820805 
L 486.804315 70.355729 
L 488.854325 70.577861 
L 490.881064 70.91168 
L 492.531004 70.845273 
L 494.610637 70.921119 
L 497.074047 70.850083 
L 502.603015 71.511234 
L 508.270235 72.919673 
L 514.781166 75.328709 
L 516.47886 75.573978 
L 518.428929 75.987896 
L 526.512034 76.083715 
L 528.569586 75.974638 
L 536.581352 76.595161 
L 538.519796 76.880334 
L 544.467867 76.748038 
L 546.480789 76.592148 
L 548.507125 76.20976 
L 550.5333 76.080601 
L 552.565209 75.811485 
L 556.237467 75.839407 
L 558.204606 76.183138 
L 560.758561 76.493267 
L 563.699586 77.039987 
L 573.24162 77.955208 
L 576.280865 78.087601 
L 578.988754 77.996861 
L 582.927544 78.025901 
L 586.958563 78.586956 
L 588.889093 79.082369 
L 593.05323 79.565458 
L 599.714744 79.113268 
L 603.954276 78.815235 
L 607.725739 79.018741 
L 615.751541 80.29669 
L 617.706991 80.732097 
L 619.636711 80.957722 
L 621.523988 81.335428 
L 631.291186 82.363217 
L 635.772168 83.20188 
L 637.920503 83.890224 
L 640.037427 84.447432 
L 641.911849 85.158872 
L 647.058427 86.28879 
L 648.75015 86.516553 
L 650.626585 86.512198 
L 654.399292 86.771212 
L 658.321394 87.388379 
L 660.223276 88.008416 
L 662.126374 88.510106 
L 663.941971 89.165305 
L 667.375825 89.964295 
L 669.908953 90.185803 
L 671.717929 90.109555 
L 680.082988 90.575678 
L 691.153129 91.656102 
L 704.828721 93.871369 
L 706.925822 94.264602 
L 707.635215 94.538559 
L 709.548722 94.605848 
L 711.508999 94.816897 
L 715.399792 94.624388 
L 717.34069 94.576794 
L 719.439805 94.772772 
L 721.481592 94.712658 
L 723.749481 94.913291 
L 725.985758 94.968588 
L 728.060769 95.178818 
L 730.177143 95.2503 
L 732.250734 95.44772 
L 734.178465 95.361864 
L 736.032462 95.484681 
L 737.878259 95.394506 
L 739.745737 95.44395 
L 741.636688 95.360448 
L 747.516513 95.904664 
L 749.48291 96.158739 
L 751.436567 96.633447 
L 755.386074 97.30832 
L 758.984913 97.595548 
L 760.966815 97.447285 
L 773.080752 97.733062 
L 785.411349 99.402493 
L 787.69232 99.446564 
L 789.620727 99.668895 
L 791.713312 99.56578 
L 795.813782 99.596435 
L 797.93918 99.972994 
L 799.885998 100.162313 
L 810.415143 103.381806 
L 816.344033 103.933254 
L 822.104629 104.271637 
L 824.026407 104.457714 
L 825.954138 104.892789 
L 827.865771 105.174075 
L 829.759313 105.648767 
L 831.667701 105.943463 
L 833.576779 106.376583 
L 840.455618 107.087462 
L 843.217872 107.194792 
L 846.576575 107.597895 
L 850.34797 107.926458 
L 858.148165 109.172072 
L 861.605632 109.998604 
L 864.50371 110.435022 
L 866.536772 110.898147 
L 869.739474 111.337533 
L 871.740793 111.329183 
L 873.712764 111.521675 
L 875.794859 111.578711 
L 881.888485 112.758296 
L 883.955171 113.22814 
L 885.944674 113.947254 
L 887.968262 114.431047 
L 889.909907 115.043458 
L 891.851453 115.452664 
L 893.691012 116.020644 
L 895.503408 116.327976 
L 897.23202 116.815765 
L 898.941758 117.181787 
L 902.348689 118.500317 
L 905.654518 120.25669 
L 906.814604 121.32145 
L 910.020001 123.518523 
L 912.104054 124.795728 
L 914.5517 126.522669 
L 916.75073 128.980511 
L 918.570192 131.567758 
L 919.870851 134.120657 
L 920.615045 136.525858 
L 920.660568 138.563481 
L 920.178778 140.196359 
L 920.294699 143.201625 
L 920.740255 144.613182 
L 921.373609 148.462913 
L 921.424817 150.277154 
L 921.705103 153.66609 
L 921.634597 160.810445 
L 921.391817 162.645012 
L 918.914714 171.229847 
L 918.732608 172.976344 
L 918.417283 174.808954 
L 918.317292 176.727438 
L 917.95261 178.697658 
L 917.737746 180.655608 
L 916.398383 186.414193 
L 915.930112 189.673435 
L 915.686104 194.256338 
L 916.067403 202.395751 
L 916.019689 205.133499 
L 916.147905 207.529938 
L 916.160685 211.496193 
L 915.944722 213.728612 
L 915.818313 217.800459 
L 916.475905 224.370579 
L 916.785857 228.559045 
L 916.975225 239.058025 
L 917.227508 241.148121 
L 917.325512 243.135353 
L 917.558959 245.302644 
L 917.590916 247.147177 
L 917.794402 249.277349 
L 917.798949 253.694867 
L 917.575652 255.886706 
L 917.472646 258.097308 
L 917.169448 260.358238 
L 916.807887 266.733777 
L 916.777967 268.843498 
L 916.881401 271.016102 
L 916.746436 273.085581 
L 916.759245 275.1255 
L 916.294636 280.932691 
L 916.1203 282.793698 
L 915.627635 284.517643 
L 915.42239 286.314246 
L 914.958903 288.136178 
L 914.472545 293.486238 
L 914.745203 302.623227 
L 914.641485 307.85329 
L 914.401197 313.41366 
L 914.271024 319.016625 
L 913.844546 324.11056 
L 913.6202 328.182785 
L 913.151459 331.914323 
L 912.78657 338.180357 
L 912.635359 340.307449 
L 911.73788 347.113337 
L 910.812059 351.196448 
L 909.844271 356.831992 
L 909.57315 360.663953 
L 909.581438 364.567415 
L 909.476131 366.590864 
L 909.177998 368.541835 
L 909.018126 370.576281 
L 908.577842 372.466254 
L 908.263807 374.358303 
L 907.760942 376.149101 
L 907.122719 381.618851 
L 906.961054 383.523351 
L 907.078425 385.150818 
L 906.991357 386.961626 
L 907.007728 389.410636 
L 906.788494 392.08932 
L 906.678253 395.06364 
L 904.629371 411.148284 
L 904.647742 413.131514 
L 904.532832 415.126212 
L 904.538999 417.228239 
L 904.126788 421.332953 
L 902.247103 429.128225 
L 901.766474 431.052725 
L 901.210695 437.191997 
L 901.094312 439.279014 
L 901.111612 441.453623 
L 900.976233 443.509435 
L 900.952804 445.567637 
L 900.671732 447.494136 
L 900.558604 449.384977 
L 900.228026 451.101382 
L 900.141684 452.952178 
L 899.869715 454.577468 
L 899.700627 457.892515 
L 899.920219 459.556794 
L 899.947324 461.064621 
L 900.202681 462.517944 
L 900.274034 463.693835 
L 900.810511 465.675843 
L 900.661675 467.103231 
L 899.313838 470.607884 
L 896.172317 477.203852 
L 896.50103 477.322472 
L 897.312519 477.691465 
L 897.226386 477.701981 
L 897.502601 477.938497 
L 897.449395 477.963574 
L 897.600101 478.04681 
L 897.532242 478.116596 
L 897.536312 478.311871 
L 897.414978 478.290121 
L 897.591186 478.23483 
L 897.727772 478.20729 
L 897.727772 478.20729 
" clip-path="url(#p9ba34fc019)" style="fill: none; stroke: #4c72b0; stroke-opacity: 0.74902; stroke-width: 1.3; stroke-linecap: round"/>
   </g>
   <g id="line2d_13">
    <path d="M 922.44304 430.286441 
L 922.235596 430.803101 
L 921.795649 431.329877 
L 920.340068 432.509215 
L 919.883957 432.409257 
L 919.325973 432.828613 
L 918.59031 433.565802 
L 917.742835 434.608447 
L 915.704596 436.302824 
L 913.324518 437.581008 
L 912.230413 437.562584 
L 909.925556 438.005779 
L 904.959979 442.034434 
L 903.790341 443.254567 
L 900.361933 445.931966 
L 899.191946 447.46677 
L 897.715859 449.140763 
L 897.957964 448.931063 
L 898.644979 448.536419 
L 899.384511 447.833453 
L 901.027692 446.506187 
L 901.384401 446.55221 
L 901.223729 447.080587 
L 900.671798 448.136064 
L 899.978075 448.940109 
L 899.488869 449.84744 
L 895.722042 454.353168 
L 895.1763 455.478544 
L 894.528766 456.47988 
L 893.831728 458.352756 
L 893.53787 461.453844 
L 893.231968 462.802338 
L 893.050996 464.315747 
L 892.594869 465.884343 
L 892.445866 467.653567 
L 892.071823 469.096311 
L 891.549596 472.115492 
L 891.578555 473.66502 
L 891.330785 475.237038 
L 890.927205 483.03767 
L 890.329912 484.218901 
L 890.004253 485.704142 
L 890.242814 487.448438 
L 890.803407 489.421365 
L 891.0386 491.425258 
L 891.436996 493.334641 
L 891.372309 495.093459 
L 891.055331 496.772719 
L 889.666513 500.012336 
L 888.646615 501.406906 
L 888.159151 502.99444 
L 887.902608 504.441391 
L 887.097605 505.29585 
L 885.213026 505.036837 
L 879.508796 502.672463 
L 876.246046 501.456139 
L 873.128305 500.53075 
L 870.446309 500.373219 
L 868.027249 500.537535 
L 866.329331 501.313257 
L 865.413061 502.44491 
L 863.735503 503.080254 
L 862.325405 503.439321 
L 860.824802 503.957022 
L 854.477879 505.294478 
L 849.112271 505.719991 
L 847.417634 505.804395 
L 845.619754 505.659882 
L 843.933816 505.657937 
L 842.230137 505.501482 
L 837.303042 505.420104 
L 835.683768 505.31622 
L 834.091359 505.398316 
L 832.495304 505.340045 
L 830.81707 505.420856 
L 829.055984 505.290357 
L 827.325383 505.352847 
L 821.857386 504.97197 
L 818.626703 505.009329 
L 816.753451 505.215034 
L 814.602229 505.275736 
L 798.940413 506.892002 
L 795.488906 506.959531 
L 786.714519 506.728838 
L 784.925814 506.773542 
L 781.472942 507.362398 
L 779.653344 507.75452 
L 775.973636 508.329477 
L 772.376878 508.467894 
L 766.488839 508.019187 
L 759.025555 508.062657 
L 754.029949 508.942609 
L 748.162304 509.421979 
L 746.229269 509.496753 
L 740.478847 508.863881 
L 734.969938 508.206004 
L 732.360681 508.011714 
L 723.249556 508.18855 
L 715.830858 508.019721 
L 705.513759 506.296877 
L 698.502734 505.765164 
L 696.760446 505.620505 
L 694.98561 505.347535 
L 693.205729 505.241695 
L 689.36043 504.631785 
L 687.445555 504.166772 
L 685.451332 503.838113 
L 683.627025 503.385679 
L 676.743266 502.847211 
L 675.094107 502.943444 
L 668.14785 502.719822 
L 666.359413 502.421761 
L 664.144204 502.206752 
L 661.569416 501.755189 
L 656.086814 501.205385 
L 650.978494 501.114026 
L 647.062421 501.624623 
L 645.607697 502.02181 
L 643.702145 502.188567 
L 641.919903 502.497351 
L 638.350467 502.649718 
L 634.345195 502.512081 
L 632.071447 502.393744 
L 627.463639 502.504773 
L 612.639405 504.31671 
L 610.332996 504.292451 
L 608.190241 504.415324 
L 597.282297 504.058768 
L 588.450911 504.531138 
L 586.52749 504.860415 
L 581.380196 505.013479 
L 578.175799 504.955927 
L 564.699912 505.481031 
L 561.850939 505.981406 
L 559.657894 506.4853 
L 557.715108 507.116867 
L 555.282506 507.534676 
L 552.752592 508.135462 
L 550.300814 508.504754 
L 547.705687 509.026315 
L 540.558752 509.673794 
L 538.322618 510.138104 
L 536.178483 510.374521 
L 533.999408 510.814616 
L 531.829505 511.139027 
L 529.705602 511.757423 
L 520.906655 513.309592 
L 516.665508 513.78617 
L 514.609218 513.707776 
L 508.513868 514.067321 
L 506.326732 514.149588 
L 502.048202 514.771005 
L 499.879495 515.198637 
L 497.729899 515.402108 
L 493.437503 516.021494 
L 491.30731 516.671477 
L 489.098604 517.048643 
L 487.220643 517.203443 
L 479.913078 518.787076 
L 476.685306 519.432241 
L 466.680354 520.59545 
L 463.754461 520.998608 
L 461.319432 520.740903 
L 457.577619 520.702078 
L 455.446981 520.747542 
L 453.466144 520.640616 
L 451.417366 520.765895 
L 449.403605 520.737527 
L 443.279187 520.954646 
L 439.041741 520.831353 
L 432.086152 519.759377 
L 427.230184 519.311876 
L 425.196603 518.734601 
L 422.794847 518.952839 
L 420.817432 518.842478 
L 414.120302 518.835803 
L 412.227566 518.637172 
L 410.600662 518.184812 
L 409.226506 517.27126 
L 407.894117 515.825578 
L 406.682881 514.006818 
L 405.246426 512.491189 
L 403.907794 510.893795 
L 402.810369 509.024928 
L 400.216546 506.289823 
L 398.062177 503.358965 
L 396.119822 499.803379 
L 394.916567 495.854602 
L 393.993682 486.504599 
L 392.865711 480.854385 
L 392.005963 472.401596 
L 392.150374 470.324204 
L 392.165964 468.32409 
L 392.315832 466.371684 
L 392.155003 462.631998 
L 390.972982 453.201361 
L 390.83696 449.372004 
L 391.302192 445.379699 
L 391.763676 443.375914 
L 392.673745 437.433091 
L 392.850625 435.399355 
L 392.6314 433.181026 
L 392.42851 428.269374 
L 392.582382 423.307629 
L 393.2862 418.843749 
L 393.803875 417.047778 
L 394.565799 413.318258 
L 395.076318 409.209394 
L 395.105857 407.156154 
L 396.091512 395.713968 
L 397.118037 387.968778 
L 397.889547 377.006739 
L 397.843599 374.920677 
L 398.304011 366.828142 
L 398.970488 360.878507 
L 399.268529 354.619236 
L 399.47689 338.757096 
L 399.906656 332.157086 
L 401.080502 320.278394 
L 401.775946 308.487544 
L 402.20443 306.243615 
L 402.733294 304.204461 
L 403.979295 300.105221 
L 404.465994 298.021887 
L 404.997475 293.841441 
L 405.186689 287.228999 
L 405.487215 285.325721 
L 406.515968 274.192762 
L 407.454149 255.473355 
L 408.570785 248.978381 
L 408.98264 246.73855 
L 409.513313 244.485417 
L 410.250957 240.081158 
L 410.352418 237.911185 
L 410.620976 235.743315 
L 410.46385 220.793739 
L 410.819149 216.681612 
L 411.284167 214.382311 
L 412.352628 206.512609 
L 412.597109 204.08169 
L 412.860062 197.357262 
L 413.024338 192.991299 
L 413.223943 190.865073 
L 413.310801 188.664473 
L 413.560227 186.54341 
L 413.568654 184.402773 
L 413.773181 182.217883 
L 413.818987 179.858743 
L 414.00435 177.564223 
L 413.905416 175.30656 
L 414.376344 169.120363 
L 414.396402 167.034173 
L 414.526653 165.09647 
L 414.404661 163.02261 
L 414.489117 161.011074 
L 414.330074 158.995307 
L 414.409424 157.008059 
L 414.293002 155.028103 
L 414.35917 151.344193 
L 414.332122 148.772812 
L 414.177916 145.926063 
L 414.256504 140.012735 
L 414.748255 134.715819 
L 415.691591 130.83819 
L 416.258192 129.60739 
L 417.289349 125.853285 
L 417.720533 123.746064 
L 418.396953 121.574492 
L 418.9879 119.287226 
L 419.761767 117.097256 
L 420.409849 114.918496 
L 421.236163 112.96737 
L 422.723913 107.425536 
L 423.094605 105.568989 
L 423.331896 103.541347 
L 423.725617 101.536798 
L 424.001014 99.434797 
L 424.929795 95.390899 
L 426.945159 89.939503 
L 427.664642 88.215522 
L 429.511985 85.305013 
L 431.522706 82.786862 
L 436.689095 78.204525 
L 439.757905 76.190821 
L 442.971769 74.791069 
L 446.151113 74.117113 
L 451.257891 73.788079 
L 459.980686 73.44737 
L 463.56312 73.567565 
L 467.484418 74.112028 
L 473.421937 75.288492 
L 477.261498 75.716315 
L 479.116419 75.692512 
L 484.730846 76.097506 
L 486.41798 76.330179 
L 488.333338 76.975698 
L 490.723992 77.573411 
L 493.343629 78.350418 
L 499.004442 79.589279 
L 501.691799 79.950556 
L 504.320951 80.469817 
L 506.67417 80.721122 
L 510.39123 81.578603 
L 514.494234 82.91963 
L 516.554127 83.918479 
L 518.382735 84.67867 
L 520.036378 85.535936 
L 523.569324 86.866035 
L 527.131985 87.571863 
L 529.060868 87.640427 
L 531.01935 87.880116 
L 533.042278 87.976867 
L 535.085355 88.29548 
L 537.135776 88.49286 
L 539.140769 88.970943 
L 541.090496 89.274907 
L 543.012244 89.789638 
L 549.231447 90.447142 
L 552.213748 90.696562 
L 555.409583 90.710549 
L 567.072713 91.350804 
L 568.887022 91.765815 
L 570.962985 92.071506 
L 575.96051 93.19834 
L 578.514149 93.749267 
L 583.606141 94.536806 
L 588.370911 94.922805 
L 590.430369 95.097308 
L 596.759828 96.325309 
L 602.56588 97.396345 
L 604.537946 97.621125 
L 615.321479 97.761763 
L 617.850675 98.02978 
L 620.473034 98.194951 
L 625.273786 99.00992 
L 630.750454 100.631118 
L 638.151909 102.028012 
L 640.325156 102.29955 
L 647.912172 104.033647 
L 650.638424 104.700862 
L 653.19491 105.515284 
L 659.467473 106.957305 
L 661.113193 107.27876 
L 666.597196 107.657547 
L 668.657023 108.028713 
L 670.627388 108.246754 
L 679.470896 110.262356 
L 684.819408 110.735067 
L 686.515072 110.948502 
L 688.716342 111.107045 
L 691.216224 111.675753 
L 693.904341 112.161567 
L 699.37278 113.43475 
L 701.943685 114.248247 
L 704.39085 114.890473 
L 706.650387 115.654926 
L 708.475689 116.075599 
L 710.50885 116.685233 
L 714.632511 117.384578 
L 720.465639 117.496539 
L 728.539236 118.093596 
L 730.599158 118.402971 
L 738.212563 118.921601 
L 739.982368 118.857502 
L 742.166679 119.043687 
L 744.513794 119.131422 
L 749.686783 119.823547 
L 752.345087 120.409652 
L 754.895328 120.846415 
L 757.324967 121.401814 
L 763.479737 122.132211 
L 765.597589 122.25493 
L 767.632945 122.138027 
L 769.722428 122.247392 
L 771.782457 122.232651 
L 775.85508 122.606712 
L 777.647932 123.041238 
L 779.534932 123.333051 
L 781.826354 123.856491 
L 791.901565 124.645148 
L 794.351449 124.603241 
L 798.489603 125.015588 
L 801.886 125.78244 
L 803.865023 126.532126 
L 806.034218 127.188487 
L 808.332128 128.082608 
L 813.142472 129.278581 
L 817.72587 129.942085 
L 819.73324 130.004675 
L 825.080245 130.781828 
L 826.932599 131.097988 
L 829.011708 131.685123 
L 831.235863 132.174174 
L 833.542669 132.861109 
L 835.882533 133.357651 
L 838.153231 133.973874 
L 852.487655 136.381481 
L 854.371201 137.030685 
L 856.203232 137.511755 
L 857.987008 138.160134 
L 859.791891 138.553794 
L 861.569508 139.064605 
L 863.393327 139.297688 
L 865.22592 139.665694 
L 867.170808 139.840348 
L 868.969504 140.230314 
L 870.999142 140.511142 
L 885.784104 144.532637 
L 891.348434 146.345151 
L 893.277106 146.819096 
L 895.158344 147.53968 
L 897.254181 148.176305 
L 899.229535 149.087467 
L 901.250703 149.889569 
L 904.67783 152.036053 
L 907.016432 154.438135 
L 907.950961 155.719535 
L 909.413063 157.150235 
L 911.040792 158.959416 
L 912.413255 160.679261 
L 913.216474 162.506431 
L 913.740629 164.217688 
L 913.711682 166.010583 
L 913.426719 167.610728 
L 911.874904 170.661663 
L 911.391405 172.387896 
L 911.537549 174.325259 
L 911.26826 182.13058 
L 911.263287 184.117782 
L 911.487537 186.029019 
L 911.386117 187.88814 
L 911.414679 189.730561 
L 910.636515 193.41962 
L 908.841594 198.625776 
L 908.192951 201.974425 
L 907.990223 203.945578 
L 907.363795 208.320234 
L 906.803163 210.621389 
L 906.359135 213.01296 
L 905.683912 215.29063 
L 905.224836 217.432985 
L 904.718663 219.226056 
L 904.182251 222.812812 
L 904.053416 226.977749 
L 904.238046 229.270481 
L 903.950168 240.439656 
L 903.834967 242.271647 
L 903.528889 244.114727 
L 903.34855 247.919711 
L 903.519835 249.968528 
L 903.540862 251.995185 
L 903.909679 255.665157 
L 903.930483 258.104836 
L 903.433635 264.533716 
L 902.713502 271.73224 
L 902.277363 278.207681 
L 902.251658 280.624401 
L 902.674194 286.109498 
L 902.741658 288.057382 
L 902.579258 290.108536 
L 902.546089 292.134512 
L 902.195872 294.166016 
L 901.973624 296.237975 
L 901.552346 298.344604 
L 900.161637 314.22585 
L 897.883584 330.727284 
L 897.531159 337.368333 
L 897.541157 339.696121 
L 897.204116 344.142961 
L 895.181675 354.257164 
L 894.785693 358.41654 
L 894.730394 360.467613 
L 894.51698 362.75269 
L 894.442466 365.223954 
L 893.547341 373.048662 
L 893.172389 375.586208 
L 892.672961 377.917529 
L 892.365217 380.058079 
L 891.982046 381.826721 
L 891.553232 385.456683 
L 891.58173 387.520909 
L 891.290931 392.222546 
L 889.890359 399.425588 
L 889.335721 401.64529 
L 888.598793 403.631997 
L 887.751758 407.26967 
L 887.314671 411.082791 
L 887.354479 416.847865 
L 886.743073 422.557309 
L 886.436834 424.751752 
L 885.885871 426.980792 
L 885.548985 429.342876 
L 885.033525 431.659984 
L 883.89307 440.218061 
L 883.816089 442.453597 
L 883.263292 446.704342 
L 882.27363 450.892371 
L 881.584092 452.899192 
L 880.497625 456.857334 
L 880.229305 458.667419 
L 879.779477 460.730687 
L 879.484158 463.269766 
L 877.53255 474.569202 
L 875.13372 483.882766 
L 874.909483 487.256204 
L 874.959672 489.002789 
L 874.871008 492.156663 
L 874.536211 493.525472 
L 874.402053 494.849683 
L 873.78601 497.055305 
L 873.317045 498.009366 
L 873.125115 498.960055 
L 872.751019 499.809957 
L 872.544186 500.674256 
L 872.237495 501.339043 
L 872.403942 502.572985 
L 872.418533 502.6931 
L 873.115045 503.064369 
L 872.889588 503.268402 
L 873.090755 503.47929 
L 873.201696 503.705725 
L 873.307445 503.727636 
L 873.258454 503.825107 
" clip-path="url(#p9ba34fc019)" style="fill: none; stroke: #55a868; stroke-opacity: 0.74902; stroke-width: 1.3; stroke-linecap: round"/>
   </g>
   <g id="patch_3">
    <path d="M 364.256656 588.888 
L 364.256656 43.152 
" style="fill: none; stroke: #cccccc; stroke-width: 1.25; stroke-linejoin: miter; stroke-linecap: square"/>
   </g>
   <g id="patch_4">
    <path d="M 949.023344 588.888 
L 949.023344 43.152 
" style="fill: none; stroke: #cccccc; stroke-width: 1.25; stroke-linejoin: miter; stroke-linecap: square"/>
   </g>
   <g id="patch_5">
    <path d="M 364.256656 588.888 
L 949.023344 588.888 
" style="fill: none; stroke: #cccccc; stroke-width: 1.25; stroke-linejoin: miter; stroke-linecap: square"/>
   </g>
   <g id="patch_6">
    <path d="M 364.256656 43.152 
L 949.023344 43.152 
" style="fill: none; stroke: #cccccc; stroke-width: 1.25; stroke-linejoin: miter; stroke-linecap: square"/>
   </g>
   <g id="text_13">
    <!-- corridors-walk -->
    <g style="fill: #262626" transform="translate(581.292281 37.152) scale(0.204 -0.204)">
     <defs>
      <path id="DejaVuSerif-63" d="M 3291 997 
Q 3169 466 2822 187 
Q 2475 -91 1925 -91 
Q 1200 -91 759 389 
Q 319 869 319 1663 
Q 319 2459 759 2936 
Q 1200 3413 1925 3413 
Q 2241 3413 2553 3339 
Q 2866 3266 3181 3116 
L 3181 2266 
L 2847 2266 
Q 2781 2703 2561 2903 
Q 2341 3103 1931 3103 
Q 1466 3103 1228 2742 
Q 991 2381 991 1663 
Q 991 944 1227 581 
Q 1463 219 1931 219 
Q 2303 219 2525 412 
Q 2747 606 2828 997 
L 3291 997 
z
" transform="scale(0.015625)"/>
      <path id="DejaVuSerif-6f" d="M 1925 219 
Q 2388 219 2623 584 
Q 2859 950 2859 1663 
Q 2859 2375 2623 2739 
Q 2388 3103 1925 3103 
Q 1463 3103 1227 2739 
Q 991 2375 991 1663 
Q 991 950 1228 584 
Q 1466 219 1925 219 
z
M 1925 -91 
Q 1200 -91 759 389 
Q 319 869 319 1663 
Q 319 2456 758 2934 
Q 1197 3413 1925 3413 
Q 2653 3413 3092 2934 
Q 3531 2456 3531 1663 
Q 3531 869 3092 389 
Q 2653 -91 1925 -91 
z
" transform="scale(0.015625)"/>
      <path id="DejaVuSerif-72" d="M 3059 3328 
L 3059 2497 
L 2728 2497 
Q 2713 2744 2591 2866 
Q 2469 2988 2234 2988 
Q 1809 2988 1582 2694 
Q 1356 2400 1356 1850 
L 1356 331 
L 2022 331 
L 2022 0 
L 263 0 
L 263 331 
L 781 331 
L 781 2994 
L 231 2994 
L 231 3322 
L 1356 3322 
L 1356 2731 
Q 1525 3078 1790 3245 
Q 2056 3413 2438 3413 
Q 2578 3413 2733 3391 
Q 2888 3369 3059 3328 
z
" transform="scale(0.015625)"/>
      <path id="DejaVuSerif-69" d="M 622 4353 
Q 622 4497 726 4603 
Q 831 4709 978 4709 
Q 1122 4709 1226 4603 
Q 1331 4497 1331 4353 
Q 1331 4206 1228 4103 
Q 1125 4000 978 4000 
Q 831 4000 726 4103 
Q 622 4206 622 4353 
z
M 1356 331 
L 1900 331 
L 1900 0 
L 231 0 
L 231 331 
L 781 331 
L 781 2988 
L 231 2988 
L 231 3322 
L 1356 3322 
L 1356 331 
z
" transform="scale(0.015625)"/>
      <path id="DejaVuSerif-64" d="M 3359 331 
L 3909 331 
L 3909 0 
L 2784 0 
L 2784 519 
Q 2616 206 2355 57 
Q 2094 -91 1709 -91 
Q 1097 -91 708 395 
Q 319 881 319 1663 
Q 319 2444 706 2928 
Q 1094 3413 1709 3413 
Q 2094 3413 2355 3264 
Q 2616 3116 2784 2803 
L 2784 4531 
L 2241 4531 
L 2241 4863 
L 3359 4863 
L 3359 331 
z
M 2784 1497 
L 2784 1825 
Q 2784 2422 2554 2737 
Q 2325 3053 1888 3053 
Q 1444 3053 1217 2703 
Q 991 2353 991 1663 
Q 991 975 1217 622 
Q 1444 269 1888 269 
Q 2325 269 2554 583 
Q 2784 897 2784 1497 
z
" transform="scale(0.015625)"/>
      <path id="DejaVuSerif-73" d="M 359 184 
L 359 959 
L 691 959 
Q 703 588 923 403 
Q 1144 219 1575 219 
Q 1963 219 2166 364 
Q 2369 509 2369 788 
Q 2369 1006 2220 1140 
Q 2072 1275 1594 1428 
L 1178 1569 
Q 750 1706 558 1912 
Q 366 2119 366 2438 
Q 366 2894 700 3153 
Q 1034 3413 1625 3413 
Q 1888 3413 2178 3344 
Q 2469 3275 2778 3144 
L 2778 2419 
L 2447 2419 
Q 2434 2741 2221 2922 
Q 2009 3103 1644 3103 
Q 1281 3103 1095 2975 
Q 909 2847 909 2591 
Q 909 2381 1050 2254 
Q 1191 2128 1613 1997 
L 2069 1856 
Q 2541 1709 2748 1489 
Q 2956 1269 2956 922 
Q 2956 450 2595 179 
Q 2234 -91 1600 -91 
Q 1278 -91 972 -22 
Q 666 47 359 184 
z
" transform="scale(0.015625)"/>
      <path id="DejaVuSerif-2d" d="M 281 1959 
L 1881 1959 
L 1881 1472 
L 281 1472 
L 281 1959 
z
" transform="scale(0.015625)"/>
      <path id="DejaVuSerif-77" d="M 3072 3322 
L 3922 728 
L 4672 2988 
L 4191 2988 
L 4191 3322 
L 5394 3322 
L 5394 2988 
L 5025 2988 
L 4038 0 
L 3559 0 
L 2741 2484 
L 1919 0 
L 1459 0 
L 475 2988 
L 103 2988 
L 103 3322 
L 1606 3322 
L 1606 2988 
L 1069 2988 
L 1813 728 
L 2669 3322 
L 3072 3322 
z
" transform="scale(0.015625)"/>
      <path id="DejaVuSerif-61" d="M 2547 1044 
L 2547 1747 
L 1806 1747 
Q 1378 1747 1168 1562 
Q 959 1378 959 997 
Q 959 650 1171 447 
Q 1384 244 1747 244 
Q 2106 244 2326 466 
Q 2547 688 2547 1044 
z
M 3122 2075 
L 3122 331 
L 3634 331 
L 3634 0 
L 2547 0 
L 2547 359 
Q 2356 128 2106 18 
Q 1856 -91 1522 -91 
Q 969 -91 644 203 
Q 319 497 319 997 
Q 319 1513 691 1797 
Q 1063 2081 1741 2081 
L 2547 2081 
L 2547 2309 
Q 2547 2688 2317 2895 
Q 2088 3103 1672 3103 
Q 1328 3103 1125 2947 
Q 922 2791 872 2484 
L 575 2484 
L 575 3156 
Q 875 3284 1158 3348 
Q 1441 3413 1709 3413 
Q 2400 3413 2761 3070 
Q 3122 2728 3122 2075 
z
" transform="scale(0.015625)"/>
      <path id="DejaVuSerif-6c" d="M 1313 331 
L 1856 331 
L 1856 0 
L 184 0 
L 184 331 
L 738 331 
L 738 4531 
L 184 4531 
L 184 4863 
L 1313 4863 
L 1313 331 
z
" transform="scale(0.015625)"/>
      <path id="DejaVuSerif-6b" d="M 1831 0 
L 219 0 
L 219 331 
L 738 331 
L 738 4531 
L 184 4531 
L 184 4863 
L 1313 4863 
L 1313 1697 
L 2713 2988 
L 2234 2988 
L 2234 3322 
L 3738 3322 
L 3738 2988 
L 3169 2988 
L 2181 2075 
L 3444 331 
L 3922 331 
L 3922 0 
L 2284 0 
L 2284 331 
L 2759 331 
L 1766 1697 
L 1313 1275 
L 1313 331 
L 1831 331 
L 1831 0 
z
" transform="scale(0.015625)"/>
     </defs>
     <use xlink:href="#DejaVuSerif-63"/>
     <use xlink:href="#DejaVuSerif-6f" x="56.005859"/>
     <use xlink:href="#DejaVuSerif-72" x="116.210938"/>
     <use xlink:href="#DejaVuSerif-72" x="164.013672"/>
     <use xlink:href="#DejaVuSerif-69" x="211.816406"/>
     <use xlink:href="#DejaVuSerif-64" x="243.798828"/>
     <use xlink:href="#DejaVuSerif-6f" x="307.8125"/>
     <use xlink:href="#DejaVuSerif-72" x="368.017578"/>
     <use xlink:href="#DejaVuSerif-73" x="415.820312"/>
     <use xlink:href="#DejaVuSerif-2d" x="467.138672"/>
     <use xlink:href="#DejaVuSerif-77" x="500.927734"/>
     <use xlink:href="#DejaVuSerif-61" x="586.523438"/>
     <use xlink:href="#DejaVuSerif-6c" x="646.142578"/>
     <use xlink:href="#DejaVuSerif-6b" x="678.125"/>
    </g>
   </g>
   <g id="legend_1">
    <g id="patch_7">
     <path d="M 553.418922 360.65018 
L 759.861078 360.65018 
Q 763.601078 360.65018 763.601078 356.91018 
L 763.601078 275.12982 
Q 763.601078 271.38982 759.861078 271.38982 
L 553.418922 271.38982 
Q 549.678922 271.38982 549.678922 275.12982 
L 549.678922 356.91018 
Q 549.678922 360.65018 553.418922 360.65018 
z
" style="fill: #ffffff; opacity: 0.8; stroke: #cccccc; stroke-linejoin: miter"/>
    </g>
    <g id="line2d_14">
     <path d="M 557.158922 286.533898 
L 575.858922 286.533898 
L 594.558922 286.533898 
" style="fill: none; stroke: #000000; stroke-opacity: 0.501961; stroke-width: 1.3; stroke-linecap: round"/>
    </g>
    <g id="text_14">
     <!-- gt -->
     <g style="fill: #262626" transform="translate(609.518922 293.078898) scale(0.187 -0.187)">
      <defs>
       <path id="DejaVuSerif-67" d="M 3359 2988 
L 3359 72 
Q 3359 -644 2965 -1033 
Q 2572 -1422 1844 -1422 
Q 1516 -1422 1216 -1362 
Q 916 -1303 641 -1184 
L 641 -488 
L 941 -488 
Q 997 -813 1206 -963 
Q 1416 -1113 1806 -1113 
Q 2313 -1113 2548 -827 
Q 2784 -541 2784 72 
L 2784 519 
Q 2616 206 2355 57 
Q 2094 -91 1709 -91 
Q 1097 -91 708 395 
Q 319 881 319 1663 
Q 319 2444 706 2928 
Q 1094 3413 1709 3413 
Q 2094 3413 2355 3264 
Q 2616 3116 2784 2803 
L 2784 3322 
L 3909 3322 
L 3909 2988 
L 3359 2988 
z
M 2784 1825 
Q 2784 2422 2554 2737 
Q 2325 3053 1888 3053 
Q 1444 3053 1217 2703 
Q 991 2353 991 1663 
Q 991 975 1217 622 
Q 1444 269 1888 269 
Q 2325 269 2554 583 
Q 2784 897 2784 1497 
L 2784 1825 
z
" transform="scale(0.015625)"/>
       <path id="DejaVuSerif-74" d="M 691 2988 
L 184 2988 
L 184 3322 
L 691 3322 
L 691 4353 
L 1269 4353 
L 1269 3322 
L 2350 3322 
L 2350 2988 
L 1269 2988 
L 1269 878 
Q 1269 456 1350 337 
Q 1431 219 1650 219 
Q 1875 219 1978 351 
Q 2081 484 2088 781 
L 2522 781 
Q 2497 328 2275 118 
Q 2053 -91 1600 -91 
Q 1103 -91 897 129 
Q 691 350 691 878 
L 691 2988 
z
" transform="scale(0.015625)"/>
      </defs>
      <use xlink:href="#DejaVuSerif-67"/>
      <use xlink:href="#DejaVuSerif-74" x="64.013672"/>
     </g>
    </g>
    <g id="line2d_15">
     <path d="M 557.158922 314.247883 
L 575.858922 314.247883 
L 594.558922 314.247883 
" style="fill: none; stroke: #4c72b0; stroke-opacity: 0.74902; stroke-width: 1.3; stroke-linecap: round"/>
    </g>
    <g id="text_15">
     <!-- DH-PTAM_CPU -->
     <g style="fill: #262626" transform="translate(609.518922 320.792883) scale(0.187 -0.187)">
      <defs>
       <path id="DejaVuSerif-44" d="M 1581 331 
L 2163 331 
Q 3072 331 3558 850 
Q 4044 1369 4044 2338 
Q 4044 3306 3559 3818 
Q 3075 4331 2163 4331 
L 1581 4331 
L 1581 331 
z
M 353 0 
L 353 331 
L 947 331 
L 947 4331 
L 353 4331 
L 353 4666 
L 2209 4666 
Q 3416 4666 4089 4050 
Q 4763 3434 4763 2338 
Q 4763 1238 4088 619 
Q 3413 0 2209 0 
L 353 0 
z
" transform="scale(0.015625)"/>
       <path id="DejaVuSerif-48" d="M 353 0 
L 353 331 
L 947 331 
L 947 4331 
L 353 4331 
L 353 4666 
L 2175 4666 
L 2175 4331 
L 1581 4331 
L 1581 2719 
L 4000 2719 
L 4000 4331 
L 3406 4331 
L 3406 4666 
L 5228 4666 
L 5228 4331 
L 4634 4331 
L 4634 331 
L 5228 331 
L 5228 0 
L 3406 0 
L 3406 331 
L 4000 331 
L 4000 2338 
L 1581 2338 
L 1581 331 
L 2175 331 
L 2175 0 
L 353 0 
z
" transform="scale(0.015625)"/>
       <path id="DejaVuSerif-50" d="M 1581 2375 
L 2406 2375 
Q 2872 2375 3115 2626 
Q 3359 2878 3359 3353 
Q 3359 3831 3115 4081 
Q 2872 4331 2406 4331 
L 1581 4331 
L 1581 2375 
z
M 353 0 
L 353 331 
L 947 331 
L 947 4331 
L 353 4331 
L 353 4666 
L 2559 4666 
Q 3259 4666 3668 4311 
Q 4078 3956 4078 3353 
Q 4078 2753 3668 2397 
Q 3259 2041 2559 2041 
L 1581 2041 
L 1581 331 
L 2303 331 
L 2303 0 
L 353 0 
z
" transform="scale(0.015625)"/>
       <path id="DejaVuSerif-54" d="M 1222 0 
L 1222 331 
L 1819 331 
L 1819 4294 
L 447 4294 
L 447 3566 
L 63 3566 
L 63 4666 
L 4206 4666 
L 4206 3566 
L 3822 3566 
L 3822 4294 
L 2450 4294 
L 2450 331 
L 3047 331 
L 3047 0 
L 1222 0 
z
" transform="scale(0.015625)"/>
       <path id="DejaVuSerif-41" d="M 1281 1691 
L 2994 1691 
L 2138 3909 
L 1281 1691 
z
M -38 0 
L -38 331 
L 372 331 
L 2034 4666 
L 2559 4666 
L 4225 331 
L 4684 331 
L 4684 0 
L 2988 0 
L 2988 331 
L 3506 331 
L 3116 1356 
L 1153 1356 
L 763 331 
L 1275 331 
L 1275 0 
L -38 0 
z
" transform="scale(0.015625)"/>
       <path id="DejaVuSerif-4d" d="M 353 0 
L 353 331 
L 947 331 
L 947 4331 
L 319 4331 
L 319 4666 
L 1678 4666 
L 3316 1344 
L 4953 4666 
L 6228 4666 
L 6228 4331 
L 5606 4331 
L 5606 331 
L 6203 331 
L 6203 0 
L 4378 0 
L 4378 331 
L 4972 331 
L 4972 3938 
L 3372 684 
L 2931 684 
L 1331 3938 
L 1331 331 
L 1925 331 
L 1925 0 
L 353 0 
z
" transform="scale(0.015625)"/>
       <path id="DejaVuSerif-5f" d="M 3200 -1259 
L 3200 -1509 
L 0 -1509 
L 0 -1259 
L 3200 -1259 
z
" transform="scale(0.015625)"/>
       <path id="DejaVuSerif-43" d="M 4513 1234 
Q 4306 581 3820 245 
Q 3334 -91 2591 -91 
Q 2134 -91 1743 65 
Q 1353 222 1050 525 
Q 700 875 529 1320 
Q 359 1766 359 2328 
Q 359 3416 987 4083 
Q 1616 4750 2644 4750 
Q 3025 4750 3456 4650 
Q 3888 4550 4384 4347 
L 4384 3272 
L 4031 3272 
Q 3916 3859 3567 4137 
Q 3219 4416 2591 4416 
Q 1844 4416 1459 3886 
Q 1075 3356 1075 2328 
Q 1075 1303 1459 773 
Q 1844 244 2591 244 
Q 3113 244 3450 492 
Q 3788 741 3938 1234 
L 4513 1234 
z
" transform="scale(0.015625)"/>
       <path id="DejaVuSerif-55" d="M 897 4331 
L 300 4331 
L 300 4666 
L 2125 4666 
L 2125 4331 
L 1528 4331 
L 1528 1919 
Q 1528 1025 1820 672 
Q 2113 319 2828 319 
Q 3544 319 3836 672 
Q 4128 1025 4128 1919 
L 4128 4331 
L 3531 4331 
L 3531 4666 
L 5106 4666 
L 5106 4331 
L 4513 4331 
L 4513 1856 
Q 4513 791 4103 350 
Q 3694 -91 2713 -91 
Q 1731 -91 1314 353 
Q 897 797 897 1856 
L 897 4331 
z
" transform="scale(0.015625)"/>
      </defs>
      <use xlink:href="#DejaVuSerif-44"/>
      <use xlink:href="#DejaVuSerif-48" x="80.175781"/>
      <use xlink:href="#DejaVuSerif-2d" x="167.382812"/>
      <use xlink:href="#DejaVuSerif-50" x="201.171875"/>
      <use xlink:href="#DejaVuSerif-54" x="268.457031"/>
      <use xlink:href="#DejaVuSerif-41" x="329.65625"/>
      <use xlink:href="#DejaVuSerif-4d" x="401.873047"/>
      <use xlink:href="#DejaVuSerif-5f" x="504.265625"/>
      <use xlink:href="#DejaVuSerif-43" x="554.265625"/>
      <use xlink:href="#DejaVuSerif-50" x="630.779297"/>
      <use xlink:href="#DejaVuSerif-55" x="696.314453"/>
     </g>
    </g>
    <g id="line2d_16">
     <path d="M 557.158922 342.21607 
L 575.858922 342.21607 
L 594.558922 342.21607 
" style="fill: none; stroke: #55a868; stroke-opacity: 0.74902; stroke-width: 1.3; stroke-linecap: round"/>
    </g>
    <g id="text_16">
     <!-- DH-PTAM_GPU -->
     <g style="fill: #262626" transform="translate(609.518922 348.76107) scale(0.187 -0.187)">
      <defs>
       <path id="DejaVuSerif-47" d="M 4097 3272 
Q 3988 3856 3641 4136 
Q 3294 4416 2675 4416 
Q 1869 4416 1472 3897 
Q 1075 3378 1075 2328 
Q 1075 1300 1484 772 
Q 1894 244 2688 244 
Q 3041 244 3362 331 
Q 3684 419 3975 594 
L 3975 1797 
L 3097 1797 
L 3097 2131 
L 4609 2131 
L 4609 391 
Q 4194 150 3714 29 
Q 3234 -91 2688 -91 
Q 1631 -91 995 570 
Q 359 1231 359 2328 
Q 359 3434 996 4092 
Q 1634 4750 2713 4750 
Q 3113 4750 3539 4658 
Q 3966 4566 4447 4378 
L 4447 3272 
L 4097 3272 
z
" transform="scale(0.015625)"/>
      </defs>
      <use xlink:href="#DejaVuSerif-44"/>
      <use xlink:href="#DejaVuSerif-48" x="80.175781"/>
      <use xlink:href="#DejaVuSerif-2d" x="167.382812"/>
      <use xlink:href="#DejaVuSerif-50" x="201.171875"/>
      <use xlink:href="#DejaVuSerif-54" x="268.457031"/>
      <use xlink:href="#DejaVuSerif-41" x="329.65625"/>
      <use xlink:href="#DejaVuSerif-4d" x="401.873047"/>
      <use xlink:href="#DejaVuSerif-5f" x="504.265625"/>
      <use xlink:href="#DejaVuSerif-47" x="554.265625"/>
      <use xlink:href="#DejaVuSerif-50" x="634.148438"/>
      <use xlink:href="#DejaVuSerif-55" x="699.683594"/>
     </g>
    </g>
   </g>
  </g>
 </g>
 <defs>
  <clipPath id="p9ba34fc019">
   <rect x="364.256656" y="43.152" width="584.766688" height="545.736"/>
  </clipPath>
 </defs>
</svg>
